<?xml version="1.0" encoding="UTF-8" standalone="no"?>
<!-- Created with Inkscape (http://www.inkscape.org/) -->

<svg
   xmlns:dc="http://purl.org/dc/elements/1.1/"
   xmlns:cc="http://creativecommons.org/ns#"
   xmlns:rdf="http://www.w3.org/1999/02/22-rdf-syntax-ns#"
   xmlns:svg="http://www.w3.org/2000/svg"
   xmlns="http://www.w3.org/2000/svg"
   xmlns:sodipodi="http://sodipodi.sourceforge.net/DTD/sodipodi-0.dtd"
   xmlns:inkscape="http://www.inkscape.org/namespaces/inkscape"
   width="50.0mm"
   height="50.0mm"
   viewBox="0 0 50.0 50.0"
   version="1.1"
   id="svg8"
   inkscape:version="0.92.4 (5da689c313, 2019-01-14)"
   sodipodi:docname="drawing.svg">
  <defs
     id="defs2" />
  <sodipodi:namedview
     id="base"
     pagecolor="#ffffff"
     bordercolor="#666666"
     borderopacity="1.0"
     inkscape:pageopacity="0.0"
     inkscape:pageshadow="2"
     inkscape:zoom="3.6203867"
     inkscape:cx="101.25506"
     inkscape:cy="60.717917"
     inkscape:document-units="mm"
     inkscape:current-layer="g837"
     showgrid="true"
     inkscape:window-width="1920"
     inkscape:window-height="1147"
     inkscape:window-x="-8"
     inkscape:window-y="-8"
     inkscape:window-maximized="1"
     borderlayer="true"
     inkscape:snap-object-midpoints="true"
     inkscape:snap-midpoints="true"
     inkscape:snap-smooth-nodes="true"
     inkscape:object-paths="true"
     inkscape:snap-intersection-paths="true"
     inkscape:snap-global="false">
    <inkscape:grid
       id="grid829"
       units="mm"
       type="xygrid"
       empspacing="1"
       spacingy="2.54"
       spacingx="2.54" />
  </sodipodi:namedview>
  <metadata
     id="metadata5">
    <rdf:RDF>
      <cc:Work
         rdf:about="">
        <dc:format>image/svg+xml</dc:format>
        <dc:type
           rdf:resource="http://purl.org/dc/dcmitype/StillImage" />
        <dc:title />
      </cc:Work>
    </rdf:RDF>
  </metadata>
  <g
     id="g835"
     sodipodi:insensitive="true"
     inkscape:groupmode="layer"
     inkscape:label="[fixed] BG">
    <rect
       id="rect833"
       style="stroke:none;fill-opacity:1;fill:#FFFFFF"
       height="50.0"
       width="50.0"
       y="0"
       x="0" />
  </g>
  <g
     id="g839"
     inkscape:groupmode="layer"
     inkscape:label="B.Cu-disabled" />
  <g
     id="g841"
     inkscape:groupmode="layer"
     inkscape:label="B.Adhes-disabled" />
  <g
     id="g843"
     inkscape:groupmode="layer"
     inkscape:label="F.Adhes-disabled" />
  <g
     id="g845"
     inkscape:groupmode="layer"
     inkscape:label="B.Paste-disabled" />
  <g
     id="g847"
     inkscape:groupmode="layer"
     inkscape:label="F.Paste-disabled" />
  <g
     id="g849"
     inkscape:groupmode="layer"
     inkscape:label="B.SilkS-disabled" />
  <g
     id="g851"
     inkscape:groupmode="layer"
     inkscape:label="F.SilkS-disabled" />
  <g
     id="g853"
     inkscape:groupmode="layer"
     inkscape:label="B.Mask-disabled" />
  <g
     id="g855"
     inkscape:groupmode="layer"
     inkscape:label="F.Mask"
     style="display:inline" />
  <g
     id="g857"
     inkscape:groupmode="layer"
     inkscape:label="Dwgs.User-disabled" />
  <g
     id="g859"
     inkscape:groupmode="layer"
     inkscape:label="Cmts.User-disabled" />
  <g
     id="g861"
     inkscape:groupmode="layer"
     inkscape:label="Eco1.User-disabled" />
  <g
     id="g863"
     inkscape:groupmode="layer"
     inkscape:label="Eco2.User-disabled" />
  <g
     id="g865"
     inkscape:groupmode="layer"
     inkscape:label="Edge.Cuts"
     style="display:none">
    <path
       style="fill:#000000;stroke-width:0.36889309"
       d="M24.246732 47.719555L24.045757 47.551001L23.888268 47.360097L23.770469 47.127639L23.688569 46.834419L23.638759 46.461232L23.617259 45.988872L23.620259 45.398133L23.643969 44.669809L23.666579 43.932902L23.665279 43.319153L23.635179 42.804073L23.571399 42.363177L23.469039 41.971978L23.323214 41.605988L23.129034 41.240722L22.881611 40.851692L22.665774 40.544094L22.462089 40.28073L22.269809 40.061745L22.088187 39.887282L21.916478 39.757488L21.753934 39.672508L21.599809 39.632488L21.453356 39.637588L21.313827 39.687908L21.180478 39.783618L21.05256 39.924867L20.929327 40.111797L20.810033 40.344552L20.693931 40.623276L20.580274 40.948114L20.468315 41.319211L20.334003 41.76344L20.201422 42.13511L20.067803 42.438331L19.930378 42.677209L19.786378 42.855852L19.633034 42.978369L19.467577 43.048869L19.287239 43.071459L18.954463 43.058509L18.654059 43.020049L18.386278 42.956649L18.151369 42.868869L17.949583 42.757276L17.781167 42.622438L17.646373 42.464921L17.54545 42.285294L17.47865 42.084123L17.44622 41.861975L17.44842 41.619416L17.48548 41.357014L17.55766 41.075336L17.665206 40.774948L17.808371 40.456418L17.987405 40.120312L18.242534 39.627529L18.337924 39.402283L18.411844 39.190948L18.464264 38.993383L18.495174 38.809449L18.504574 38.639005L18.492384 38.48191L18.458614 38.338025L18.403234 38.20721L18.326234 38.089325L18.227584 37.984229L18.10727 37.891779L17.965268 37.811839L17.801555 37.744269L17.616111 37.688929L17.252577 37.610479L16.895544 37.559659L16.544075 37.536859L16.197235 37.542459L15.854088 37.576829L15.513697 37.640359L15.175128 37.733439L14.837443 37.856441L14.499708 38.009754L14.160986 38.193759L13.820341 38.40884L13.476837 38.655379L13.129539 38.933761L12.77751 39.244366L12.419815 39.58758L12.055518 39.963783L11.293799 40.740736L10.605194 41.376993L10.311951 41.621843L10.065356 41.806897L9.8748209 41.923909L9.749892 41.96475L9.6145853 41.94873L9.469527 41.902638L9.3172671 41.829432L9.1603557 41.732064L8.8427787 41.476668L8.5371964 41.160091L8.2640093 40.805973L8.043618 40.437954L7.959596 40.256121L7.896423 40.079677L7.856649 39.911579L7.842824 39.754781L7.866926 39.583823L7.936835 39.396865L8.0489544 39.198334L8.1996871 38.992654L8.3854362 38.784254L8.6026049 38.577558L8.8475965 38.376993L9.116814 38.186985L9.4113297 37.979406L9.6950753 37.749862L9.9669149 37.500331L10.225713 37.232792L10.470334 36.949223L10.699641 36.651601L10.9125 36.341906L11.107775 36.022115L11.284329 35.694208L11.441028 35.360162L11.576735 35.021956L11.690315 34.681567L11.780635 34.340975L11.846555 34.002158L11.886935 33.667093L11.900645 33.33776L11.878815 32.820282L11.819375 32.396796L11.778385 32.233951L11.731395 32.110984L11.679545 32.033354L11.623965 32.006524L11.538685 32.024874L11.401691 32.076764L11.000998 32.266655L10.478732 32.547217L9.891731 32.889467L9.3483726 33.196508L8.8788699 33.411056L8.6689311 33.483476L8.4739959 33.532576L8.2929112 33.558276L8.1245234 33.560476L7.9676792 33.539186L7.8212252 33.494306L7.684016 33.425796L7.5548822 33.333519L7.4326784 33.217442L7.3162512 33.0775L7.2044473 32.913623L7.0961132 32.725746L7.0056932 32.537101L6.9396252 32.354756L6.8978292 32.178837L6.8802242 32.009468L6.8867242 31.846773L6.9172572 31.690876L6.9717372 31.541902L7.0500832 31.399975L7.1522149 31.265219L7.2780507 31.137759L7.4275097 31.017719L7.6005108 30.905222L7.7969729 30.800395L8.0168149 30.703355L8.2599557 30.614235L8.5263143 30.533155L9.3046793 30.305468L9.8964411 30.09764L10.126067 29.996474L10.313507 29.894635L10.460249 29.790242L10.567782 29.681416L10.637592 29.566277L10.671172 29.442946L10.669972 29.309543L10.635593 29.1642L10.569406 29.005015L10.47294 28.830118L10.195123 28.425676L9.8956485 28.056251L9.5697669 27.714529L9.2197649 27.401255L8.8479289 27.11717L8.4565455 26.863018L8.0479011 26.639541L7.6242825 26.447482L7.187976 26.287585L6.7412682 26.160592L6.2864456 26.067246L5.8257948 26.00829L5.3616023 25.984467L4.8961547 25.996519L4.4317384 26.04519L3.97064 26.131223L3.5151461 26.25536L3.309883 26.306201L3.1110979 26.325648L2.9170941 26.313151L2.7261747 26.268163L2.5366428 26.190135L2.3468016 26.078518L2.1549543 25.932764L1.9594041 25.752324L1.6647554 25.432201L1.4473514 25.133393L1.3673594 24.989391L1.3063714 24.847609L1.2642844 24.707009L1.2409954 24.566556L1.2364054 24.425212L1.2504064 24.281942L1.2828974 24.135708L1.3337774 23.985475L1.4902911 23.668863L1.719127 23.323814L1.887681 23.122839L2.0785843 22.96535L2.3110429 22.847551L2.6042627 22.765651L2.9774498 22.715841L3.44981 22.694341L4.0405494 22.697341L4.768874 22.721051L5.5057802 22.743661L6.1195298 22.742361L6.6346094 22.712261L7.0755057 22.648471L7.4667054 22.54611L7.8326952 22.400285L8.1979618 22.206104L8.5869919 21.958681L8.8931763 21.743514L9.1559085 21.539643L9.375121 21.346619L9.5507461 21.163996L9.6827162 20.991325L9.7709632 20.828159L9.8154202 20.67405L9.8160193 20.52855L9.7726933 20.391211L9.6853733 20.261587L9.553991 20.13924L9.3784821 20.0237L9.158777 19.914531L8.8948082 19.811284L8.5865079 19.713513L8.2338087 19.620769L7.6376598 19.461012L7.1702737 19.293379L6.9818127 19.202679L6.8218778 19.105289L6.6892472 18.999639L6.5826995 18.884155L6.5010135 18.757265L6.4429665 18.617396L6.4073375 18.462974L6.3929055 18.292428L6.3984455 18.104183L6.4227415 17.896667L6.5227075 17.41753L6.5833605 17.230415L6.6651465 17.064201L6.7665048 16.919103L6.8858762 16.795337L7.0217011 16.69312L7.1724199 16.61267L7.336473 16.5542L7.5123009 16.51793L7.698344 16.50407L7.8930426 16.51287L8.0948373 16.54448L8.3021684 16.59915L8.5134763 16.6771L8.7272015 16.778543L8.9417844 16.903696L9.1556654 17.052774L9.3161081 17.161812L9.4978757 17.263997L9.9002945 17.438731L10.312739 17.558822L10.50704 17.592702L10.685028 17.606112L10.905705 17.595582L11.092165 17.553612L11.24876 17.475022L11.379841 17.354606L11.489757 17.187169L11.582857 16.967513L11.663497 16.690444L11.736027 16.350763L11.792107 15.982549L11.820887 15.620087L11.822087 15.262829L11.795517 14.91023L11.740897 14.561743L11.657977 14.216821L11.546526 13.87488L11.406247 13.535449L11.236916 13.197943L11.038283 12.861815L10.810098 12.52652L10.552112 12.191511L10.264073 11.85624L9.9457326 11.520162L9.5968403 11.182729L9.217146 10.843395L8.6276483 10.32949L8.1820935 9.919182L7.8665909 9.5879433L7.7532684 9.4443104L7.6672499 9.3112472L7.6067991 9.1856881L7.5701797 9.0645671L7.5556553 8.9448183L7.5614897 8.8233759L7.5859464 8.6971741L7.6272892 8.5631469L7.7536877 8.2593533L7.8843001 8.0096394L8.0349995 7.7864101L8.2033056 7.5901156L8.3867384 7.4212065L8.5828176 7.2801332L8.7890632 7.167346L9.002995 7.0832954L9.2221328 7.0284324L9.4439966 7.0032064L9.6661061 7.0080664L9.8859812 7.0434664L10.101142 7.1098554L10.309108 7.2076834L10.507399 7.3374008L10.693535 7.4994581L10.865036 7.6943059L11.425621 8.3927161L11.954168 8.9918376L12.461795 9.5003693L12.959618 9.9270104L13.208329 10.11234L13.458757 10.28046L13.712293 10.432456L13.970327 10.569416L14.505446 10.802579L15.075231 10.988647L15.494179 11.098532L15.86725 11.180202L16.19494 11.232982L16.477747 11.256202L16.716166 11.249202L16.910696 11.211262L17.061833 11.141732L17.170074 11.03994L17.235914 10.905209L17.259854 10.736862L17.242384 10.534225L17.184014 10.296623L17.085224 10.02338L16.946524 9.713821L16.768409 9.3672571L16.55137 8.9830414L16.228891 8.4288225L15.995679 8.0032148L15.848993 7.6778329L15.807243 7.5438561L15.786093 7.4242913L15.785207 7.3155902L15.804237 7.2142047L15.842847 7.1165867L15.900687 7.0191877L16.072707 6.8108548L16.317554 6.5608206L16.634858 6.270545L16.946161 6.0328345L17.215695 5.8722194L17.323619 5.8284884L17.407689 5.8132304L17.510096 5.8256374L17.621254 5.8612874L17.861347 5.9928987L18.111013 6.1892258L18.353301 6.4314299L18.571257 6.7006723L18.74793 6.9781143L18.866365 7.2449171L18.898445 7.3684418L18.909615 7.4822421L18.919415 7.6716514L18.947845 7.86814L19.05393 8.2717034L19.214709 8.6716286L19.417071 9.0466121L19.647899 9.37535L19.769891 9.5157196L19.894081 9.6365388L20.018832 9.7351448L20.142503 9.8088748L20.263456 9.8550658L20.380051 9.8710548L20.512862 9.8574738L20.65646 9.8177188L20.809336 9.7532698L20.969984 9.6656068L21.308563 9.4265623L21.660139 9.1124295L22.012652 8.7350522L22.354042 8.3062744L22.67225 7.83794L22.955218 7.341893L23.045058 7.141768L23.125828 6.9093662L23.197318 6.6488617L23.259318 6.3644291L23.354048 5.7404763L23.408368 5.0709025L23.420628 4.389102L23.389188 3.7284695L23.312398 3.1223995L23.256488 2.8502612L23.188628 2.6042865L23.135608 2.3944157L23.114138 2.19285L23.124898 1.9974221L23.168578 1.8059646L23.245878 1.6163101L23.357473 1.4262913L23.504055 1.2337407L23.686313 1.0364911L24.003619 0.74454853L24.300614 0.52805626L24.443827 0.44784006L24.584759 0.38616976L24.724344 0.34293986L24.863515 0.31804476L25.003204 0.31137876L25.144343 0.32283656L25.287866 0.35231256L25.434705 0.39970106L25.742061 0.54779364L26.073873 0.76626987L26.257382 0.92942737L26.406892 1.1354913L26.525973 1.401808L26.618193 1.7457235L26.687133 2.1845843L26.736353 2.7357364L26.769433 3.4165261L26.789943 4.2442997L26.811523 5.0702839L26.848303 5.7658831L26.904083 6.3498857L26.982663 6.8410802L27.087845 7.2582549L27.223429 7.6201983L27.393216 7.9456989L27.601007 8.253545L28.01082 8.7699087L28.19068 8.966288L28.356015 9.1207192L28.508457 9.2326424L28.649635 9.3014974L28.781179 9.3267244L28.90472 9.3077644L29.021887 9.2440564L29.134312 9.1350414L29.243625 8.9801591L29.351454 8.7788496L29.459432 8.5305532L29.569188 8.2347098L29.800554 7.498143L30.022511 6.7976472L30.132226 6.5062522L30.243467 6.2523885L30.35801 6.034778L30.477632 5.8521426L30.604109 5.7032042L30.739218 5.586685L30.884735 5.501307L31.042437 5.445792L31.2141 5.418862L31.4015 5.4192385L31.606413 5.4456435L31.830617 5.4967995L32.344001 5.6682517L32.475189 5.7335367L32.588956 5.8207967L32.685296 5.9281892L32.764206 6.0538713L32.825686 6.1960002L32.869726 6.3527332L32.896326 6.5222277L32.905526 6.702641L32.897226 6.8921304L32.871476 7.0888531L32.828266 7.2909665L32.767596 7.4966279L32.689466 7.7039946L32.593866 7.9112238L32.480787 8.116473L32.350231 8.3178994L32.22492 8.5195608L32.120068 8.7349396L32.035358 8.9606116L31.970478 9.1931522L31.925108 9.4291373L31.898928 9.6651425L31.891628 9.8977434L31.902888 10.123515L31.932388 10.339035L31.979818 10.540877L32.044858 10.725618L32.127198 10.889832L32.226518 11.030097L32.342501 11.142987L32.47483 11.225077L32.62319 11.272947L32.933966 11.314657L33.257181 11.324977L33.591439 11.304587L33.935343 11.254147L34.287496 11.174327L34.646502 11.065799L35.010964 10.929231L35.379486 10.765294L35.75067 10.574655L36.123121 10.357986L36.495442 10.115955L36.866235 9.8492315L37.234106 9.5584849L37.597656 9.244385L37.95549 8.9076011L38.30621 8.5488027L39.067931 7.7730983L39.756536 7.1378635L40.049779 6.8934074L40.296374 6.7086508L40.486864 6.5917879L40.611793 6.5510129L40.747099 6.5670329L40.892157 6.6131239L41.044417 6.6863309L41.201328 6.7836979L41.518905 7.0390938L41.824487 7.3556709L42.097674 7.7097885L42.318065 8.077806L42.402085 8.2596395L42.465255 8.4360827L42.505025 8.6041805L42.518855 8.7609779L42.494745 8.9322506L42.424765 9.1192373L42.312439 9.31761L42.161307 9.5230402L41.974899 9.7312L41.756748 9.9377611L41.510387 10.138395L41.239348 10.328774L40.966042 10.526398L40.689535 10.763395L40.412702 11.034999L40.138417 11.336445L39.869555 11.662965L39.608991 12.009795L39.359599 12.372169L39.124254 12.74532L38.90583 13.124481L38.707203 13.504889L38.531247 13.881775L38.380837 14.250375L38.258847 14.605922L38.168157 14.943651L38.111627 15.258795L38.092147 15.546588L38.098347 15.756445L38.117747 15.938791L38.151597 16.093669L38.201137 16.221119L38.267597 16.321184L38.352227 16.393904L38.456257 16.439324L38.580927 16.457484L38.727476 16.448384L38.897143 16.412144L39.091165 16.348764L39.310781 16.258284L39.83175 15.996216L40.469956 15.626265L41.013313 15.319224L41.482816 15.104676L41.692754 15.032256L41.887689 14.983166L42.068774 14.957466L42.237162 14.955266L42.394006 14.976556L42.54046 15.021436L42.677677 15.089986L42.806811 15.182266L42.929014 15.298343L43.045441 15.438285L43.157245 15.602162L43.265579 15.790039L43.356309 15.979335L43.422549 16.162187L43.464369 16.338469L43.481859 16.508056L43.475059 16.670821L43.444129 16.826641L43.389119 16.975389L43.310109 17.116939L43.207181 17.251166L43.080417 17.377945L42.929901 17.49715L42.755715 17.608656L42.557943 17.712336L42.336667 17.808066L42.09197 17.895716L41.823934 17.975166L41.110084 18.191289L40.511272 18.423645L40.255465 18.545506L40.028971 18.670941L39.831974 18.799786L39.664657 18.931882L39.527206 19.067066L39.419804 19.205177L39.342634 19.346052L39.295884 19.489531L39.279734 19.635452L39.294374 19.783652L39.339984 19.933971L39.416754 20.086246L39.524324 20.248753L39.648356 20.407651L39.942426 20.71363L40.292206 21.002197L40.690938 21.271368L41.131866 21.519157L41.608233 21.743577L42.113281 21.942645L42.640253 22.114374L43.182393 22.25678L43.732942 22.367875L44.285144 22.445675L44.832242 22.488195L45.367478 22.493495L45.884096 22.459495L46.375337 22.384265L46.834446 22.26581L47.044316 22.21279L47.245882 22.19132L47.44131 22.20208L47.632767 22.24576L47.822422 22.32305L48.012441 22.434645L48.204991 22.581227L48.40224 22.763484L48.694183 23.08079L48.910676 23.377786L48.990896 23.520998L49.052566 23.661931L49.095796 23.801516L49.120696 23.940687L49.127396 24.080376L49.115936 24.221516L49.086466 24.365038L49.039076 24.511877L48.890984 24.819234L48.672508 25.151046L48.50935 25.334555L48.303286 25.484065L48.036969 25.603145L47.693053 25.695365L47.254193 25.764305L46.70304 25.813525L46.02225 25.846605L45.194476 25.867115L44.368492 25.888695L43.672894 25.925475L43.088891 25.981255L42.597697 26.059835L42.180522 26.165017L41.818578 26.300601L41.493076 26.470388L41.185229 26.678179L40.668865 27.087992L40.472486 27.267852L40.318055 27.433187L40.206132 27.585629L40.137282 27.726806L40.112052 27.85835L40.131012 27.981891L40.194722 28.099059L40.303737 28.211484L40.45862 28.320796L40.65993 28.428626L40.908226 28.536604L41.20407 28.64636L41.940637 28.877726L42.512711 29.051532L42.972317 29.21055L43.330537 29.362359L43.598457 29.514541L43.787159 29.674677L43.855269 29.760097L43.907729 29.850347L43.971249 30.049133L43.988799 30.278616L43.976709 30.606135L43.944249 30.895986L43.889809 31.148606L43.811789 31.364434L43.70858 31.543907L43.57858 31.687463L43.420185 31.79554L43.231789 31.86858L43.01179 31.90701L42.758582 31.91131L42.470561 31.88185L42.146125 31.8191L41.783667 31.7235L41.381584 31.595485L40.452127 31.243966L40.124605 31.119325L39.82344 31.023385L39.548394 30.956315L39.299227 30.918285L39.075702 30.909485L38.877579 30.930025L38.70462 30.980105L38.556587 31.059885L38.43324 31.169532L38.33434 31.309215L38.25965 31.479101L38.20893 31.679356L38.18194 31.910146L38.17844 32.171638L38.1982 32.463999L38.24098 32.787395L38.390956 33.558813L38.482606 33.916222L38.586839 34.257214L38.704763 34.583628L38.837483 34.897301L38.986107 35.200071L39.151742 35.493776L39.335494 35.780255L39.53847 36.061345L39.761776 36.338883L40.006521 36.614709L40.27381 36.89066L40.56475 37.168573L41.222011 37.73764L41.838204 38.263363L42.300647 38.713887L42.475906 38.916643L42.614758 39.107431L42.717882 39.28853L42.785952 39.462217L42.819652 39.630769L42.819655 39.796464L42.786635 39.96158L42.721275 40.128394L42.624255 40.299183L42.496244 40.476226L42.337922 40.661799L42.149968 40.858181L41.944969 41.049429L41.742446 41.210619L41.542296 41.341734L41.344418 41.442754L41.14871 41.513664L40.95507 41.554434L40.763396 41.565054L40.573587 41.545504L40.385539 41.495774L40.199152 41.415834L40.014323 41.305668L39.830951 41.165258L39.648933 40.994585L39.468169 40.793631L39.288555 40.562376L39.10999 40.300803L38.978282 40.111906L38.827059 39.923094L38.472292 39.548406L38.058127 39.182117L37.597008 38.8296L37.101374 38.496232L36.583666 38.187388L36.056325 37.908443L35.531792 37.664773L35.022509 37.461753L34.540915 37.304759L34.099452 37.199166L33.710561 37.150346L33.539718 37.148946L33.386683 37.163716L33.253011 37.195376L33.140257 37.244586L33.049977 37.312016L32.983727 37.398346L32.943057 37.504248L32.929527 37.630391L32.948027 37.752972L33.000337 37.925231L33.191779 38.387141L33.474636 38.952838L33.819688 39.559038L34.117925 40.10413L34.23079 40.356295L34.31946 40.595052L34.38393 40.820535L34.42418 41.032879L34.44019 41.232219L34.43199 41.418688L34.39949 41.592422L34.34271 41.753554L34.26163 41.902219L34.156239 42.038552L34.026522 42.162687L33.872463 42.274758L33.694046 42.3749L33.491258 42.46325L33.313254 42.52235L33.14198 42.56047L32.977461 42.57763L32.819718 42.57383L32.668775 42.54912L32.524653 42.5035L32.387377 42.43698L32.256967 42.34959L32.133448 42.241344L32.016842 42.112258L31.907172 41.96235L31.80446 41.791637L31.70873 41.600138L31.62 41.387869L31.463648 40.901093L31.283833 40.322358L31.064316 39.749599L30.832869 39.24892L30.721351 39.046268L30.617265 38.886427L30.461266 38.681714L30.326393 38.537632L30.197752 38.455542L30.131112 38.438172L30.060452 38.436772L29.899597 38.482752L29.700296 38.594806L29.447654 38.774296L29.126779 39.022583L28.787386 39.316445L28.472883 39.642922L28.184146 39.998932L27.922048 40.38139L27.687464 40.787213L27.481269 41.213319L27.304336 41.656624L27.157541 42.114044L27.041757 42.582496L26.957857 43.058898L26.906717 43.540165L26.889217 44.023214L26.906227 44.504962L26.958617 44.982327L27.047267 45.452223L27.173049 45.911569L27.226069 46.12144L27.247539 46.323006L27.236779 46.518434L27.193089 46.709891L27.115789 46.899546L27.004194 47.089565L26.857614 47.282115L26.675359 47.479365L26.355236 47.774014L26.056428 47.991418L25.912426 48.071408L25.770644 48.132398L25.630044 48.174488L25.489591 48.197778L25.348247 48.202378L25.204977 48.188378L25.058744 48.155888L24.90851 48.105008L24.591899 47.948494L24.24685 47.719657L24.246751 47.719656"
       id="path915"
       inkscape:connector-curvature="0"
       sodipodi:nodetypes="ccssssccsscscssssscccssscccscssscssscccsccssccssssscsssscccsscscccsccscccsccc" />
  </g>
  <g
     id="g867"
     inkscape:groupmode="layer"
     inkscape:label="Margin-disabled" />
  <g
     id="g869"
     inkscape:groupmode="layer"
     inkscape:label="B.CrtYd-disabled" />
  <g
     id="g871"
     inkscape:groupmode="layer"
     inkscape:label="F.CrtYd-disabled" />
  <g
     id="g873"
     inkscape:groupmode="layer"
     inkscape:label="B.Fab-disabled" />
  <g
     id="g875"
     inkscape:groupmode="layer"
     inkscape:label="F.Fab-disabled" />
  <g
     id="g877"
     inkscape:groupmode="layer"
     inkscape:label="Drill" />
  <g
     id="g837"
     inkscape:groupmode="layer"
     inkscape:label="F.Cu">
    <path
       style="fill:#008000;stroke-width:0.36889309"
       d="m 31.191136,5.3948027 c -0.657195,0.047901 -0.996825,0.6466684 -1.41335,2.0794596 -0.305581,1.0511583 -0.603275,1.6824013 -0.899204,1.8360977 1.016364,0.2239751 2.492153,1.072243 3.244251,1.617715 -0.08341,-0.610902 -0.142949,-2.1040264 0.241209,-2.652495 0.742917,-1.060804 0.703375,-2.3453842 -0.04274,-2.631697 -0.46688,-0.1791578 -0.83144,-0.2708537 -1.130166,-0.2490803 z m -13.806392,0.394291 c -0.1884,0 -0.678682,0.3365831 -1.089856,0.747758 -0.747591,0.7475911 -0.747822,0.7474445 0.233578,2.4220744 0.629616,1.0743599 0.785931,1.8498729 0.555137,2.1653109 0.907489,-0.531357 2.199959,-1.063786 3.280842,-1.2400339 -0.548232,-0.355083 -1.477467,-1.6092312 -1.477467,-2.4259605 0,-0.5768171 -0.983165,-1.6691489 -1.502234,-1.6691489 z m 24.829492,9.1420773 c -0.43313,-0.02537 -0.98952,0.199951 -1.767334,0.67076 -0.563985,0.341376 -1.559509,0.732041 -1.899284,0.863265 0.445288,0.701652 0.777873,2.048242 0.793179,2.845365 0.270126,-0.355748 1.915864,-1.190613 2.542761,-1.359419 1.491611,-0.401649 1.908428,-1.158856 1.359039,-2.185396 -0.285289,-0.533068 -0.595231,-0.809209 -1.028361,-0.834575 z M 7.6757765,16.479914 c -0.5718916,0.0077 -1.0269379,0.32116 -1.175639,0.913639 -0.3513905,1.400051 -0.059095,1.776263 1.7110075,2.202967 0.8578612,0.206798 1.6562664,0.651034 1.819363,0.953899 0.730194,-0.55473 2.03795,-1.780985 1.323922,-3.017623 0,0 -0.630273,0.05031 -0.692272,0.04941 C 10.214845,17.575719 9.5268888,17.326603 9.1330512,17.028718 8.6360288,16.652788 8.1205808,16.473886 7.6757765,16.479914 Z M 40.109455,27.967585 c -0.116325,0.908668 -1.263718,1.865986 -1.468229,2.918834 0.134032,0.04437 1.63886,0.272321 1.788106,0.333164 2.709849,1.10481 3.523775,0.882677 3.536735,-0.965316 0.0046,-0.659622 -0.363114,-0.911006 -2.048454,-1.400948 -0.387221,-0.112568 -1.546178,-0.784538 -1.808158,-0.885734 z m -29.03579,1.301364 c -0.345822,0.178888 -1.7981198,1.026194 -2.5700311,1.240083 -1.4823466,0.410742 -1.9777313,1.16994 -1.4304062,2.192631 0.5705818,1.066136 1.2492002,1.169377 2.8048311,0.22776 0.5162122,-0.312463 1.4347152,-0.758424 1.7708732,-0.915475 -0.408813,-0.702696 -0.379912,-1.905867 -0.575267,-2.744999 z m 21.862132,8.246796 c -0.951298,0.01163 -1.936182,0.729146 -2.774114,0.905653 0.228104,0.442595 1.128386,1.895946 1.27905,2.455476 0.379305,1.408624 1.060518,1.933353 2.027784,1.56218 1.146556,-0.439976 1.252266,-1.377458 0.328145,-2.904218 -0.282251,-0.466314 -0.697428,-1.642392 -0.860865,-2.019091 z m -14.035546,0.433816 c -0.01395,0.373148 -0.605811,1.569406 -0.935697,2.146483 -1.05094,1.838426 -0.561029,2.951239 1.299662,2.951239 0.503205,0 0.857145,-0.460884 1.22008,-1.745886 0.264911,-0.93794 0.58346,-1.498632 0.909764,-1.657523 -0.9732,-0.241231 -1.583531,-1.283083 -2.493809,-1.694313 z"
       id="path915-7"
       inkscape:connector-curvature="0"
       sodipodi:nodetypes="ssccccssccccssscccscsscscccssccccccccccccccccccccsscc" />
    <ellipse
       style="opacity:1;fill:#008000;fill-opacity:1;stroke:#000000;stroke-width:0.1;stroke-miterlimit:4;stroke-dasharray:none;stroke-opacity:1"
       id="path949"
       cx="20.389742"
       cy="25.079205"
       rx="3.8733201"
       ry="4.1656461" />
    <ellipse
       style="opacity:1;fill:#008000;fill-opacity:1;stroke:#000000;stroke-width:0.1;stroke-miterlimit:4;stroke-dasharray:none;stroke-opacity:1"
       id="path951"
       cx="32.228947"
       cy="20.694313"
       rx="3.7271571"
       ry="3.4348307" />
    <ellipse
       style="opacity:1;fill:#008000;fill-opacity:1;stroke:#000000;stroke-width:0.1;stroke-miterlimit:4;stroke-dasharray:none;stroke-opacity:1"
       id="path953"
       cx="31.863537"
       cy="31.291132"
       rx="3.5079124"
       ry="3.6540756" />
    <path
       style="display:inline;fill:none;stroke:#c00000;stroke-width:1;stroke-miterlimit:4;stroke-dasharray:none;stroke-opacity:1"
       d="m 24.241627,47.920519 c -0.378045,-0.217506 -0.429258,-1.107466 -0.341781,-3.250183 0.08782,-2.15106 -0.653616,-3.73266 -1.388748,-4.823524 -4.445485,-2.375138 -4.540894,-5.145606 -10.935759,0.06211 -1.030746,1.100553 -1.556689,1.745221 -1.7940119,1.745221 -0.691098,0 -1.7243632,-0.970613 -1.7243632,-1.77148 0,-0.43062 0.051943,-0.896415 0.7989602,-1.385093 C 10.453376,37.452576 12.114788,35.422533 12.114788,33.684887 11.908447,30.480562 11.580406,25.645979 4.814805,25.967995 4.257291,26.144943 2.8207051,26.384111 2.2927921,25.856205 1.40334,24.966752 1.1915537,24.625657 1.8974838,23.660239 c 0.43675,-0.597289 0.4677793,-0.716075 2.6104973,-0.628596 2.151058,0.08782 3.2698565,-0.07891 4.3607205,-0.814039 C 11.51449,18.798088 11.409493,20.49744 12.095256,16.609636 12.466729,14.629518 11.787345,12.86645 9.6797252,11.050629 7.9034612,9.5202856 7.6298856,9.3824291 8.0353996,8.4924249 8.6740246,7.0907931 9.7329091,6.877463 10.604145,8.0048929 c 1.547492,2.0025451 2.634665,2.8532211 4.210196,3.2943421 4.851361,-0.585251 2.456684,-0.343379 5.37795,-0.898351 1.334618,-0.438489 1.805212,-1.3991922 2.502085,-2.7484065 0.502989,-0.9738406 1.17019,-3.502932 0.776005,-4.7376067 -0.182829,-0.5726556 -0.579113,-1.0336044 -0.04491,-1.5677954 0.879864,-0.87986445 1.463488,-0.94591845 2.38756,-0.270221 0.537866,0.393297 0.674972,1.0592362 0.71607,3.4780301 0.04066,2.393172 0.202902,3.1951607 0.811062,4.0092453 4.238626,2.1365712 3.104405,1.6109502 5.022154,3.0194032 1.621819,0.30735 3.833963,-0.753033 5.68302,-2.7241407 1.030748,-1.0987844 2.068261,-1.99779 2.305582,-1.99779 0.691097,0 1.907066,1.4091008 1.907066,2.2099654 0,0.4319278 -0.526981,1.0776393 -1.279514,1.5677973 -1.443985,0.940525 -3.147203,3.764325 -3.147203,5.217814 1.771023,4.027895 0.528497,2.691728 1.324652,4.539643 1.056622,1.751765 5.066813,2.93007 7.417692,2.179522 0.572653,-0.182827 1.033605,-0.03651 1.567794,0.497689 0.879866,0.879864 0.94592,1.46349 0.270224,2.387562 -0.393301,0.537866 -3.126294,0.209883 -5.545091,0.250981 -2.99568,0.828289 -5.015916,5.464072 -5.041464,6.765185 0.775606,2.341791 1.308344,4.038051 3.13606,5.570363 1.852999,1.51839 2.008198,2.0403 0.92796,3.12054 -1.100111,1.100109 -1.573484,0.763541 -2.523214,-0.7124 -4.906816,-6.21325 -9.924215,-2.07396 -10.536547,-1.415507 -1.874918,1.474809 -2.688602,4.765086 -1.917191,7.181311 0.182828,0.572657 0.0365,1.033606 -0.497689,1.567797 -0.889453,0.889452 -1.134225,0.873129 -2.099642,0.167197 z"
       id="path915-9"
       inkscape:connector-curvature="0"
       sodipodi:nodetypes="ccccssccccccccscscccccscccssssccsccccccccsccc" />
  </g>
</svg>
