<?xml version="1.0" encoding="UTF-8" standalone="no"?>
<!-- Created with Inkscape (http://www.inkscape.org/) -->

<svg
   xmlns:dc="http://purl.org/dc/elements/1.1/"
   xmlns:cc="http://creativecommons.org/ns#"
   xmlns:rdf="http://www.w3.org/1999/02/22-rdf-syntax-ns#"
   xmlns:svg="http://www.w3.org/2000/svg"
   xmlns="http://www.w3.org/2000/svg"
   xmlns:sodipodi="http://sodipodi.sourceforge.net/DTD/sodipodi-0.dtd"
   xmlns:inkscape="http://www.inkscape.org/namespaces/inkscape"
   width="50.0mm"
   height="50.0mm"
   viewBox="0 0 50.0 50.0"
   version="1.1"
   id="svg8"
   inkscape:version="0.92.4 (5da689c313, 2019-01-14)"
   sodipodi:docname="drawing.svg">
  <defs
     id="defs2" />
  <sodipodi:namedview
     id="base"
     pagecolor="#ffffff"
     bordercolor="#666666"
     borderopacity="1.0"
     inkscape:pageopacity="0.0"
     inkscape:pageshadow="2"
     inkscape:zoom="3.6203867"
     inkscape:cx="101.25506"
     inkscape:cy="60.717917"
     inkscape:document-units="mm"
     inkscape:current-layer="g837"
     showgrid="true"
     inkscape:window-width="1920"
     inkscape:window-height="1147"
     inkscape:window-x="-8"
     inkscape:window-y="-8"
     inkscape:window-maximized="1"
     borderlayer="true"
     inkscape:snap-object-midpoints="true"
     inkscape:snap-midpoints="true"
     inkscape:snap-smooth-nodes="true"
     inkscape:object-paths="true"
     inkscape:snap-intersection-paths="true"
     inkscape:snap-global="false">
    <inkscape:grid
       id="grid829"
       units="mm"
       type="xygrid"
       empspacing="1"
       spacingy="2.54"
       spacingx="2.54" />
  </sodipodi:namedview>
  <metadata
     id="metadata5">
    <rdf:RDF>
      <cc:Work
         rdf:about="">
        <dc:format>image/svg+xml</dc:format>
        <dc:type
           rdf:resource="http://purl.org/dc/dcmitype/StillImage" />
        <dc:title />
      </cc:Work>
    </rdf:RDF>
  </metadata>
  <g
     id="g835"
     sodipodi:insensitive="true"
     inkscape:groupmode="layer"
     inkscape:label="[fixed] BG">
    <rect
       id="rect833"
       style="stroke:none;fill-opacity:1;fill:#FFFFFF"
       height="50.0"
       width="50.0"
       y="0"
       x="0" />
  </g>
  <g
     id="g839"
     inkscape:groupmode="layer"
     inkscape:label="B.Cu-disabled" />
  <g
     id="g841"
     inkscape:groupmode="layer"
     inkscape:label="B.Adhes-disabled" />
  <g
     id="g843"
     inkscape:groupmode="layer"
     inkscape:label="F.Adhes-disabled" />
  <g
     id="g845"
     inkscape:groupmode="layer"
     inkscape:label="B.Paste-disabled" />
  <g
     id="g847"
     inkscape:groupmode="layer"
     inkscape:label="F.Paste-disabled" />
  <g
     id="g849"
     inkscape:groupmode="layer"
     inkscape:label="B.SilkS-disabled" />
  <g
     id="g851"
     inkscape:groupmode="layer"
     inkscape:label="F.SilkS-disabled" />
  <g
     id="g853"
     inkscape:groupmode="layer"
     inkscape:label="B.Mask-disabled" />
  <g
     id="g855"
     inkscape:groupmode="layer"
     inkscape:label="F.Mask"
     style="display:inline">
    <path
       style="display:inline;fill:none;stroke:#c00000;stroke-width:1;stroke-miterlimit:4;stroke-dasharray:none;stroke-opacity:1"
       d="m 24.241627,47.920519 c -0.378045,-0.217506 -0.429258,-1.107466 -0.341781,-3.250183 0.08782,-2.15106 -0.653616,-3.73266 -1.388748,-4.823524 -4.445485,-2.375138 -4.540894,-5.145606 -10.935759,0.06211 -1.030746,1.100553 -1.556689,1.745221 -1.7940119,1.745221 -0.691098,0 -1.7243632,-0.970613 -1.7243632,-1.77148 0,-0.43062 0.051943,-0.896415 0.7989602,-1.385093 C 10.453376,37.452576 12.114788,35.422533 12.114788,33.684887 11.908447,30.480562 11.580406,25.645979 4.814805,25.967995 4.257291,26.144943 2.8207051,26.384111 2.2927921,25.856205 1.40334,24.966752 1.1915537,24.625657 1.8974838,23.660239 c 0.43675,-0.597289 0.4677793,-0.716075 2.6104973,-0.628596 2.151058,0.08782 3.2698565,-0.07891 4.3607205,-0.814039 C 11.51449,18.798088 11.409493,20.49744 12.095256,16.609636 12.466729,14.629518 11.787345,12.86645 9.6797252,11.050629 7.9034612,9.5202856 7.6298856,9.3824291 8.0353996,8.4924249 8.6740246,7.0907931 9.7329091,6.877463 10.604145,8.0048929 c 1.547492,2.0025451 2.634665,2.8532211 4.210196,3.2943421 4.851361,-0.585251 2.456684,-0.343379 5.37795,-0.898351 1.334618,-0.438489 1.805212,-1.3991922 2.502085,-2.7484065 0.502989,-0.9738406 1.17019,-3.502932 0.776005,-4.7376067 -0.182829,-0.5726556 -0.579113,-1.0336044 -0.04491,-1.5677954 0.879864,-0.87986445 1.463488,-0.94591845 2.38756,-0.270221 0.537866,0.393297 0.674972,1.0592362 0.71607,3.4780301 0.04066,2.393172 0.202902,3.1951607 0.811062,4.0092453 4.238626,2.1365712 3.104405,1.6109502 5.022154,3.0194032 1.621819,0.30735 3.833963,-0.753033 5.68302,-2.7241407 1.030748,-1.0987844 2.068261,-1.99779 2.305582,-1.99779 0.691097,0 1.907066,1.4091008 1.907066,2.2099654 0,0.4319278 -0.526981,1.0776393 -1.279514,1.5677973 -1.443985,0.940525 -3.147203,3.764325 -3.147203,5.217814 1.771023,4.027895 0.528497,2.691728 1.324652,4.539643 1.056622,1.751765 5.066813,2.93007 7.417692,2.179522 0.572653,-0.182827 1.033605,-0.03651 1.567794,0.497689 0.879866,0.879864 0.94592,1.46349 0.270224,2.387562 -0.393301,0.537866 -3.126294,0.209883 -5.545091,0.250981 -2.99568,0.828289 -5.015916,5.464072 -5.041464,6.765185 0.775606,2.341791 1.308344,4.038051 3.13606,5.570363 1.852999,1.51839 2.008198,2.0403 0.92796,3.12054 -1.100111,1.100109 -1.573484,0.763541 -2.523214,-0.7124 -4.906816,-6.21325 -9.924215,-2.07396 -10.536547,-1.415507 -1.874918,1.474809 -2.688602,4.765086 -1.917191,7.181311 0.182828,0.572657 0.0365,1.033606 -0.497689,1.567797 -0.889453,0.889452 -1.134225,0.873129 -2.099642,0.167197 z"
       id="path915-9"
       inkscape:connector-curvature="0"
       sodipodi:nodetypes="ccccssccccccccscscccccscccssssccsccccccccsccc" />
  </g>
  <g
     id="g857"
     inkscape:groupmode="layer"
     inkscape:label="Dwgs.User-disabled" />
  <g
     id="g859"
     inkscape:groupmode="layer"
     inkscape:label="Cmts.User-disabled" />
  <g
     id="g861"
     inkscape:groupmode="layer"
     inkscape:label="Eco1.User-disabled" />
  <g
     id="g863"
     inkscape:groupmode="layer"
     inkscape:label="Eco2.User-disabled" />
  <g
     id="g865"
     inkscape:groupmode="layer"
     inkscape:label="Edge.Cuts"
     style="display:inline">
    <path
       style="fill:#000000;stroke-width:0.36889309"
       d="m 24.246732,47.719555 -0.200975,-0.168554 -0.157489,-0.190904 -0.117799,-0.232458 -0.0819,-0.29322 -0.04981,-0.373187 -0.0215,-0.47236 0.003,-0.590739 0.02371,-0.728324 0.02261,-0.736907 -0.0013,-0.613749 -0.0301,-0.51508 -0.06378,-0.440896 -0.10236,-0.391199 -0.145825,-0.36599 -0.19418,-0.365266 -0.247423,-0.38903 -0.215837,-0.307598 -0.203685,-0.263364 -0.19228,-0.218985 -0.181622,-0.174463 -0.171709,-0.129794 -0.162544,-0.08498 -0.154125,-0.04002 -0.146453,0.0051 -0.139529,0.05032 -0.133349,0.09571 -0.127918,0.141249 -0.123233,0.18693 -0.119294,0.232755 -0.116102,0.278724 -0.113657,0.324838 -0.111959,0.371097 -0.134312,0.444229 -0.132581,0.37167 -0.133619,0.303221 -0.137425,0.238878 -0.144,0.178643 -0.153344,0.122517 -0.165457,0.0705 -0.180338,0.02259 -0.332776,-0.01295 -0.300404,-0.03846 -0.267781,-0.0634 -0.234909,-0.08778 -0.201786,-0.111593 -0.168416,-0.134838 -0.134794,-0.157517 -0.100923,-0.179627 -0.0668,-0.201171 -0.03243,-0.222148 0.0022,-0.242559 0.03706,-0.262402 0.07218,-0.281678 0.107546,-0.300388 0.143165,-0.31853 0.179034,-0.336106 0.255129,-0.492783 0.09539,-0.225246 0.07392,-0.211335 0.05242,-0.197565 0.03091,-0.183934 0.0094,-0.170444 -0.01219,-0.157095 -0.03377,-0.143885 -0.05538,-0.130815 -0.077,-0.117885 -0.09865,-0.105096 -0.120314,-0.09245 -0.142002,-0.07994 -0.163713,-0.06757 -0.185444,-0.05534 -0.363534,-0.07845 -0.357033,-0.05082 -0.351469,-0.0228 -0.34684,0.0056 -0.343147,0.03437 -0.340391,0.06353 -0.338569,0.09308 -0.337685,0.123002 -0.337735,0.153313 -0.338722,0.184005 -0.340645,0.215081 -0.343504,0.246539 -0.347298,0.278382 -0.352029,0.310605 -0.357695,0.343214 -0.364297,0.376203 -0.761719,0.776953 -0.688605,0.636257 -0.293243,0.24485 -0.246595,0.185054 L 9.8748209,41.923909 9.749892,41.96475 9.6145853,41.94873 9.469527,41.902638 9.3172671,41.829432 9.1603557,41.732064 8.8427787,41.476668 8.5371964,41.160091 8.2640093,40.805973 8.043618,40.437954 7.959596,40.256121 7.896423,40.079677 7.856649,39.911579 7.842824,39.754781 l 0.024102,-0.170958 0.069909,-0.186958 0.1121194,-0.198531 0.1507327,-0.20568 0.1857491,-0.2084 0.2171687,-0.206696 0.2449916,-0.200565 0.2692175,-0.190008 0.2945157,-0.207579 0.2837456,-0.229544 0.2718396,-0.249531 0.2587981,-0.267539 0.244621,-0.283569 0.229307,-0.297622 0.212859,-0.309695 0.195275,-0.319791 0.176554,-0.327907 0.156699,-0.334046 0.135707,-0.338206 0.11358,-0.340389 0.09032,-0.340592 0.06592,-0.338817 0.04038,-0.335065 0.01371,-0.329333 -0.02183,-0.517478 -0.05944,-0.423486 -0.04099,-0.162845 -0.04699,-0.122967 -0.05185,-0.07763 -0.05558,-0.02683 -0.08528,0.01835 -0.136994,0.05189 -0.400693,0.189891 -0.522266,0.280562 -0.587001,0.34225 -0.5433584,0.307041 -0.4695027,0.214548 -0.2099388,0.07242 -0.1949352,0.0491 -0.1810847,0.0257 -0.1683878,0.0022 -0.1568442,-0.02129 -0.146454,-0.04488 L 7.684016,33.425796 7.5548822,33.333519 7.4326784,33.217442 7.3162512,33.0775 7.2044473,32.913623 7.0961132,32.725746 l -0.09042,-0.188645 -0.066068,-0.182345 -0.041796,-0.175919 -0.017605,-0.169369 0.0065,-0.162695 0.030533,-0.155897 0.05448,-0.148974 0.078346,-0.141927 0.1021317,-0.134756 0.1258358,-0.12746 0.149459,-0.12004 0.1730011,-0.112497 0.1964621,-0.104827 0.219842,-0.09704 0.2431408,-0.08912 0.2663586,-0.08108 0.778365,-0.227687 0.5917618,-0.207828 0.2296259,-0.101166 0.18744,-0.101839 0.146742,-0.104393 0.107533,-0.108826 0.06981,-0.115139 0.03358,-0.123331 -0.0012,-0.133403 L 10.635593,29.1642 10.569406,29.005015 10.47294,28.830118 10.195123,28.425676 9.8956485,28.056251 9.5697669,27.714529 9.2197649,27.401255 8.8479289,27.11717 8.4565455,26.863018 8.0479011,26.639541 7.6242825,26.447482 7.187976,26.287585 6.7412682,26.160592 6.2864456,26.067246 5.8257948,26.00829 5.3616023,25.984467 4.8961547,25.996519 4.4317384,26.04519 3.97064,26.131223 3.5151461,26.25536 3.309883,26.306201 3.1110979,26.325648 2.9170941,26.313151 2.7261747,26.268163 2.5366428,26.190135 2.3468016,26.078518 2.1549543,25.932764 1.9594041,25.752324 1.6647554,25.432201 l -0.217404,-0.298808 -0.079992,-0.144002 -0.060988,-0.141782 -0.042087,-0.1406 -0.023289,-0.140453 -0.00459,-0.141344 0.014001,-0.14327 0.032491,-0.146234 0.05088,-0.150233 0.1565137,-0.316612 0.2288359,-0.345049 0.168554,-0.200975 0.1909033,-0.157489 0.2324586,-0.117799 0.2932198,-0.0819 0.3731871,-0.04981 0.4723602,-0.0215 0.5907394,0.003 0.7283246,0.02371 0.7369062,0.02261 0.6137496,-0.0013 0.5150796,-0.0301 0.4408963,-0.06379 0.3911997,-0.102361 0.3659898,-0.145825 0.3652666,-0.194181 0.3890301,-0.247423 0.3061844,-0.215167 0.2627322,-0.203871 0.2192125,-0.193024 0.1756251,-0.182623 0.1319701,-0.172671 0.088247,-0.163166 0.044457,-0.154109 5.991e-4,-0.1455 -0.043326,-0.137339 -0.08732,-0.129624 L 9.553991,20.13924 9.3784821,20.0237 9.158777,19.914531 8.8948082,19.811284 8.5865079,19.713513 8.2338087,19.620769 7.6376598,19.461012 7.1702737,19.293379 l -0.188461,-0.0907 -0.1599349,-0.09739 -0.1326306,-0.10565 -0.1065477,-0.115484 -0.081686,-0.12689 -0.058047,-0.139869 -0.035629,-0.154422 -0.014432,-0.170546 0.00554,-0.188245 0.024296,-0.207516 0.099966,-0.479137 0.060653,-0.187115 0.081786,-0.166214 0.1013583,-0.145098 0.1193714,-0.123766 0.1358249,-0.102217 0.1507188,-0.08045 0.1640531,-0.05847 0.1758279,-0.03627 0.1860431,-0.01386 0.1946986,0.0088 0.2017947,0.03161 0.2073311,0.05467 0.2113079,0.07795 0.2137252,0.101443 0.2145829,0.125153 0.213881,0.149078 0.1604427,0.109038 0.1817676,0.102185 0.4024188,0.174734 0.4124445,0.120091 0.194301,0.03388 0.177988,0.01341 0.220677,-0.01053 0.18646,-0.04197 0.156595,-0.07859 0.131081,-0.120416 0.109916,-0.167437 0.0931,-0.219656 0.08064,-0.277069 0.07253,-0.339681 0.05608,-0.368214 0.02878,-0.362462 0.0012,-0.357258 -0.02657,-0.352599 -0.05462,-0.348487 -0.08292,-0.344922 L 11.546526,13.87488 11.406247,13.535449 11.236916,13.197943 11.038283,12.861815 10.810098,12.52652 10.552112,12.191511 10.264073,11.85624 9.9457326,11.520162 9.5968403,11.182729 9.217146,10.843395 8.6276483,10.32949 8.1820935,9.919182 7.8665909,9.5879433 7.7532684,9.4443104 7.6672499,9.3112472 7.6067991,9.1856881 7.5701797,9.0645671 7.5556553,8.9448183 7.5614897,8.8233759 7.5859464,8.6971741 7.6272892,8.5631469 7.7536877,8.2593533 7.8843001,8.0096394 8.0349995,7.7864101 8.2033056,7.5901156 8.3867384,7.4212065 8.5828176,7.2801332 8.7890632,7.167346 9.002995,7.0832954 l 0.2191378,-0.054863 0.2218638,-0.025226 0.2221095,0.00486 0.2198751,0.0354 0.2151608,0.066389 0.207966,0.097828 0.198291,0.1297174 0.186136,0.1620573 0.171501,0.1948478 0.560585,0.6984102 0.528547,0.5991215 0.507627,0.5085317 0.497823,0.4266411 0.248711,0.1853296 0.250428,0.16812 0.253536,0.151996 0.258034,0.13696 0.535119,0.233163 0.569785,0.186068 0.418948,0.109885 0.373071,0.08167 0.32769,0.05278 0.282807,0.02322 0.238419,-0.007 0.19453,-0.03794 0.151137,-0.06953 0.108241,-0.101792 0.06584,-0.134731 0.02394,-0.168347 -0.01747,-0.202637 -0.05837,-0.237602 -0.09879,-0.273243 -0.1387,-0.309559 L 16.768409,9.3672571 16.55137,8.9830414 16.228891,8.4288225 15.995679,8.0032148 15.848993,7.6778329 l -0.04175,-0.1339768 -0.02115,-0.1195648 -8.86e-4,-0.1087011 0.01903,-0.1013855 0.03861,-0.097618 0.05784,-0.097399 0.17202,-0.2083329 0.244847,-0.2500342 0.317304,-0.2902756 0.311303,-0.2377105 0.269534,-0.1606151 0.107924,-0.043731 0.08407,-0.015258 0.102407,0.012407 0.111158,0.03565 0.240093,0.1316113 0.249666,0.1963271 0.242288,0.2422041 0.217956,0.2692424 0.176673,0.277442 0.118435,0.2668028 0.03208,0.1235247 0.01117,0.1138003 0.0098,0.1894093 0.02843,0.1964886 0.106085,0.4035634 0.160779,0.3999252 0.202362,0.3749835 0.230828,0.3287379 0.121992,0.1403696 0.12419,0.1208192 0.124751,0.098606 0.123671,0.07373 0.120953,0.046191 0.116595,0.015989 0.132811,-0.013581 0.143598,-0.039755 0.152876,-0.064449 0.160648,-0.087663 0.338579,-0.2390445 0.351576,-0.3141328 0.352513,-0.3773773 0.34139,-0.4287778 0.318208,-0.4683344 0.282968,-0.496047 0.08984,-0.200125 0.08077,-0.2324018 0.07149,-0.2605045 0.062,-0.2844326 0.09473,-0.6239528 0.05432,-0.6695738 0.01226,-0.6818005 -0.03144,-0.6606325 -0.07679,-0.60607 -0.05591,-0.2721383 -0.06786,-0.2459747 -0.05302,-0.2098708 -0.02147,-0.2015657 0.01076,-0.1954279 0.04368,-0.1914575 0.0773,-0.1896545 0.111595,-0.1900188 0.146582,-0.1925506 0.182258,-0.1972496 0.317306,-0.29194257 0.296995,-0.21649227 0.143213,-0.0802162 0.140932,-0.0616703 0.139585,-0.0432299 0.139171,-0.0248951 0.139689,-0.006666 0.141139,0.0114578 0.143523,0.029476 0.146839,0.0473885 0.307356,0.14809258 0.331812,0.21847623 0.183509,0.1631575 0.14951,0.20606393 0.119081,0.2663167 0.09222,0.3439155 0.06894,0.4388608 0.04922,0.5511521 0.03308,0.6807897 0.02051,0.8277736 0.02158,0.8259842 0.03678,0.6955992 0.05578,0.5840026 0.07858,0.4911945 0.105182,0.4171747 0.135584,0.3619434 0.169787,0.3255006 0.207791,0.3078461 0.409813,0.5163637 0.17986,0.1963793 0.165335,0.1544312 0.152442,0.1119232 0.141178,0.068855 0.131544,0.025227 0.123541,-0.01896 0.117167,-0.063708 0.112425,-0.109015 0.109313,-0.1548823 0.107829,-0.2013095 0.107978,-0.2482964 0.109756,-0.2958434 0.231366,-0.7365668 0.221957,-0.7004958 0.109715,-0.291395 0.111241,-0.2538637 0.114543,-0.2176105 0.119622,-0.1826354 0.126477,-0.1489384 0.135109,-0.1165192 0.145517,-0.085378 0.157702,-0.055515 0.171663,-0.02693 0.1874,3.765e-4 0.204913,0.026405 0.224204,0.051156 0.513384,0.1714522 0.131188,0.065285 0.113767,0.08726 0.09634,0.1073925 0.07891,0.1256821 0.06148,0.1421289 0.04404,0.156733 0.0266,0.1694945 0.0092,0.1804133 -0.0083,0.1894894 -0.02575,0.1967227 -0.04321,0.2021134 -0.06067,0.2056614 -0.07813,0.2073667 -0.0956,0.2072292 -0.113079,0.2052492 -0.130556,0.2014264 -0.125311,0.2016614 -0.104852,0.2153788 -0.08471,0.225672 -0.06488,0.2325406 -0.04537,0.2359851 -0.02618,0.2360052 -0.0073,0.2326009 0.01126,0.2257716 0.0295,0.21552 0.04743,0.201842 0.06504,0.184741 0.08234,0.164214 0.09932,0.140265 0.115983,0.11289 0.132329,0.08209 0.14836,0.04787 0.310776,0.04171 0.323215,0.01032 0.334258,-0.02039 0.343904,-0.05044 0.352153,-0.07982 0.359006,-0.108528 0.364462,-0.136568 0.368522,-0.163937 0.371184,-0.190639 0.372451,-0.216669 0.372321,-0.242031 0.370793,-0.2667235 0.367871,-0.2907466 0.36355,-0.3140999 0.357834,-0.3367839 0.35072,-0.3587984 0.761721,-0.7757044 0.688605,-0.6352348 0.293243,-0.2444561 0.246595,-0.1847566 0.19049,-0.1168629 0.124929,-0.040775 0.135306,0.01602 0.145058,0.046091 0.15226,0.073207 0.156911,0.097367 0.317577,0.2553959 0.305582,0.3165771 0.273187,0.3541176 0.220391,0.3680175 0.08402,0.1818335 0.06317,0.1764432 0.03977,0.1680978 0.01383,0.1567974 -0.02411,0.1712727 -0.06998,0.1869867 L 42.312439,9.31761 42.161307,9.5230402 41.974899,9.7312 l -0.218151,0.2065611 -0.246361,0.2006339 -0.271039,0.190379 -0.273306,0.197624 -0.276507,0.236997 -0.276833,0.271604 -0.274285,0.301446 -0.268862,0.32652 -0.260564,0.34683 -0.249392,0.362374 -0.235345,0.373151 -0.218424,0.379161 -0.198627,0.380408 -0.175956,0.376886 -0.15041,0.3686 -0.12199,0.355547 -0.09069,0.337729 -0.05653,0.315144 -0.01948,0.287793 0.0062,0.209857 0.0194,0.182346 0.03385,0.154878 0.04954,0.12745 0.06646,0.100065 0.08463,0.07272 0.10403,0.04542 0.12467,0.01816 0.146549,-0.0091 0.169667,-0.03624 0.194022,-0.06338 0.219616,-0.09048 0.520969,-0.262068 0.638206,-0.369951 0.543357,-0.307041 0.469503,-0.214548 0.209938,-0.07242 0.194935,-0.04909 0.181085,-0.0257 0.168388,-0.0022 0.156844,0.02129 0.146454,0.04488 0.137217,0.06855 0.129134,0.09228 0.122203,0.116077 0.116427,0.139942 0.111804,0.163877 0.108334,0.187877 0.09073,0.189296 0.06624,0.182852 0.04182,0.176282 0.01749,0.169587 -0.0068,0.162765 -0.03093,0.15582 -0.05501,0.148748 -0.07901,0.14155 -0.102928,0.134227 -0.126764,0.126779 -0.150516,0.119205 -0.174186,0.111506 -0.197772,0.10368 -0.221276,0.09573 -0.244697,0.08765 -0.268036,0.07945 -0.71385,0.216123 -0.598812,0.232356 -0.255807,0.121861 -0.226494,0.125435 -0.196997,0.128845 -0.167317,0.132096 -0.137451,0.135184 -0.107402,0.138111 -0.07717,0.140875 -0.04675,0.143479 -0.01615,0.145921 0.01464,0.1482 0.04561,0.150319 0.07677,0.152275 0.10757,0.162507 0.124032,0.158898 0.29407,0.305979 0.34978,0.288567 0.398732,0.269171 0.440928,0.247789 0.476367,0.22442 0.505048,0.199068 0.526972,0.171729 0.54214,0.142406 0.550549,0.111095 0.552202,0.0778 0.547098,0.04252 0.535236,0.0053 0.516618,-0.034 0.491241,-0.07523 0.459109,-0.118455 0.20987,-0.05302 0.201566,-0.02147 0.195428,0.01076 0.191457,0.04368 0.189655,0.07729 0.190019,0.111595 0.19255,0.146582 0.197249,0.182257 0.291943,0.317306 0.216493,0.296996 0.08022,0.143212 0.06167,0.140933 0.04323,0.139585 0.0249,0.139171 0.0067,0.139689 -0.01146,0.14114 -0.02947,0.143522 -0.04739,0.146839 -0.148092,0.307357 -0.218476,0.331812 -0.163158,0.183509 -0.206064,0.14951 -0.266317,0.11908 -0.343916,0.09222 -0.43886,0.06894 -0.551153,0.04922 -0.68079,0.03308 -0.827774,0.02051 -0.825984,0.02158 -0.695598,0.03678 -0.584003,0.05578 -0.491194,0.07858 -0.417175,0.105182 -0.361944,0.135584 -0.325502,0.169787 -0.307847,0.207791 -0.516364,0.409813 -0.196379,0.17986 -0.154431,0.165335 -0.111923,0.152442 -0.06885,0.141177 -0.02523,0.131544 0.01896,0.123541 0.06371,0.117168 0.109015,0.112425 0.154883,0.109312 0.20131,0.10783 0.248296,0.107978 0.295844,0.109756 0.736567,0.231366 0.572074,0.173806 0.459606,0.159018 0.35822,0.151809 0.26792,0.152182 0.188702,0.160136 0.06811,0.08542 0.05246,0.09025 0.06352,0.198786 0.01755,0.229483 -0.01209,0.327519 -0.03246,0.289851 -0.05444,0.25262 -0.07802,0.215828 -0.103209,0.179473 -0.13,0.143556 -0.158395,0.108077 -0.188396,0.07304 -0.219999,0.03843 -0.253208,0.0043 -0.288021,-0.02946 -0.324436,-0.06275 -0.362458,-0.0956 -0.402083,-0.128015 -0.929457,-0.351519 -0.327522,-0.124641 -0.301165,-0.09594 -0.275046,-0.06707 -0.249167,-0.03803 -0.223525,-0.0088 -0.198123,0.02054 -0.172959,0.05008 -0.148033,0.07978 -0.123347,0.109647 -0.0989,0.139683 -0.07469,0.169886 -0.05072,0.200255 -0.02699,0.23079 -0.0035,0.261492 0.01976,0.292361 0.04278,0.323396 0.149976,0.771418 0.09165,0.357409 0.104233,0.340992 0.117924,0.326414 0.13272,0.313673 0.148624,0.30277 0.165635,0.293705 0.183752,0.286479 0.202976,0.28109 0.223306,0.277538 0.244745,0.275826 0.267289,0.275951 0.29094,0.277913 0.657261,0.569067 0.616193,0.525723 0.462443,0.450524 0.175259,0.202756 0.138852,0.190788 0.103124,0.181099 0.06807,0.173687 0.0337,0.168552 3e-6,0.165695 -0.03302,0.165116 -0.06536,0.166814 -0.09702,0.170789 -0.128011,0.177043 -0.158322,0.185573 -0.187954,0.196382 -0.204999,0.191248 -0.202523,0.16119 -0.20015,0.131115 -0.197878,0.10102 -0.195708,0.07091 -0.19364,0.04077 -0.191674,0.01062 -0.189809,-0.01955 -0.188048,-0.04973 -0.186387,-0.07994 -0.184829,-0.110166 -0.183372,-0.14041 -0.182018,-0.170673 -0.180764,-0.200954 -0.179614,-0.231255 -0.178565,-0.261573 -0.131708,-0.188897 -0.151223,-0.188812 -0.354767,-0.374688 -0.414165,-0.366289 -0.461119,-0.352517 -0.495634,-0.333368 -0.517708,-0.308844 -0.527341,-0.278945 -0.524533,-0.24367 -0.509283,-0.20302 -0.481594,-0.156994 -0.441463,-0.105593 -0.388891,-0.04882 -0.170843,-0.0014 -0.153035,0.01477 -0.133672,0.03166 -0.112754,0.04921 -0.09028,0.06743 -0.06625,0.08633 -0.04067,0.105902 -0.01353,0.126143 0.0185,0.122581 0.05231,0.172259 0.191442,0.46191 0.282857,0.565697 0.345052,0.6062 0.298237,0.545092 0.112865,0.252165 0.08867,0.238757 0.06447,0.225483 0.04025,0.212344 0.01601,0.19934 -0.0082,0.186469 -0.0325,0.173734 -0.05678,0.161132 -0.08108,0.148665 -0.105391,0.136333 -0.129717,0.124135 -0.154059,0.112071 -0.178417,0.100142 -0.202788,0.08835 -0.178004,0.0591 -0.171274,0.03812 -0.164519,0.01716 -0.157743,-0.0038 L 32.668775,42.54912 32.524653,42.5035 32.387377,42.43698 32.256967,42.34959 32.133448,42.241344 32.016842,42.112258 31.907172,41.96235 31.80446,41.791637 31.70873,41.600138 31.62,41.387869 31.463648,40.901093 31.283833,40.322358 31.064316,39.749599 30.832869,39.24892 l -0.111518,-0.202652 -0.104086,-0.159841 -0.155999,-0.204713 -0.134873,-0.144082 -0.128641,-0.08209 -0.06664,-0.01737 -0.07066,-0.0014 -0.160855,0.04598 -0.199301,0.112054 -0.252642,0.17949 -0.320875,0.248287 -0.339393,0.293862 -0.314503,0.326477 -0.288737,0.35601 -0.262098,0.382458 -0.234584,0.405823 -0.206195,0.426106 -0.176933,0.443305 -0.146795,0.45742 -0.115784,0.468452 -0.0839,0.476402 -0.05114,0.481267 -0.0175,0.483049 0.01701,0.481748 0.05239,0.477365 0.08865,0.469896 0.125782,0.459346 0.05302,0.209871 0.02147,0.201566 -0.01076,0.195428 -0.04369,0.191457 -0.0773,0.189655 -0.111595,0.190019 -0.14658,0.19255 -0.182255,0.19725 -0.320123,0.294649 -0.298808,0.217404 -0.144002,0.07999 -0.141782,0.06099 -0.1406,0.04209 -0.140453,0.02329 -0.141344,0.0046 -0.14327,-0.014 -0.146233,-0.03249 -0.150234,-0.05088 -0.316611,-0.156514 -0.345049,-0.228837 -9.9e-5,-10e-7"
       id="path915"
       inkscape:connector-curvature="0"
       sodipodi:nodetypes="ccssssccsscscssssscccssscccscssscssscccsccssccssssscsssscccsscscccsccscccsccc" />
    <path
       style="display:inline;fill:none;stroke:#008000;stroke-width:1.5;stroke-miterlimit:4;stroke-dasharray:none;stroke-opacity:1"
       d="m 24.351017,47.88407 -0.200975,-0.168553 -0.157489,-0.190905 -0.117799,-0.232458 -0.0819,-0.293221 -0.04981,-0.373187 -0.0215,-0.472358 0.003,-0.590741 0.02371,-0.728324 0.02261,-0.736907 -0.0013,-0.613748 -0.0301,-0.51508 -0.06378,-0.440897 -0.10236,-0.3912 -0.145825,-0.365987 -0.19418,-0.365268 -0.247423,-0.38903 -0.215837,-0.307597 -0.203685,-0.263363 -0.19228,-0.218985 -0.181622,-0.174464 -0.171709,-0.129794 -0.162544,-0.08498 -0.154125,-0.04002 -0.146453,0.0051 -0.139529,0.05032 -0.133349,0.09571 -0.127918,0.141248 -0.123233,0.186931 -0.119294,0.232754 -0.116102,0.278725 -0.113657,0.324837 -0.111959,0.371097 -0.134312,0.44423 -0.132581,0.371671 -0.133619,0.30322 -0.137425,0.238876 -0.144,0.178644 -0.153344,0.122518 -0.165457,0.0705 -0.180338,0.02259 -0.332776,-0.01294 -0.300404,-0.03846 -0.267781,-0.0634 -0.234909,-0.08778 -0.201786,-0.111594 -0.168416,-0.134836 -0.134794,-0.157518 -0.100923,-0.179628 -0.0668,-0.20117 -0.03243,-0.222147 0.0022,-0.24256 0.03706,-0.262403 0.07218,-0.281678 0.107546,-0.300387 0.143165,-0.318532 0.179034,-0.336105 0.255129,-0.492784 0.09539,-0.225245 0.07392,-0.211333 0.05242,-0.197567 0.03091,-0.183933 0.0094,-0.170445 -0.01219,-0.157094 -0.03377,-0.143885 -0.05538,-0.130816 -0.077,-0.117885 -0.09865,-0.105095 -0.120314,-0.09245 -0.142002,-0.07994 -0.163713,-0.06757 -0.185444,-0.05534 -0.363534,-0.07845 -0.357033,-0.05082 -0.351469,-0.02281 -0.34684,0.0056 -0.343147,0.03437 -0.340391,0.06353 -0.338569,0.09308 -0.337685,0.123002 -0.337735,0.153313 -0.338722,0.184004 -0.340645,0.215082 -0.343504,0.246539 -0.347298,0.278382 -0.352029,0.310605 -0.357695,0.343214 -0.364297,0.376203 -0.761719,0.776952 -0.688605,0.636257 -0.293243,0.244851 -0.246596,0.185078 -0.1905348,0.117012 -0.124929,0.04084 -0.135307,-0.01603 -0.145058,-0.04609 -0.15226,-0.07321 -0.156911,-0.09737 -0.317577,-0.255394 -0.305583,-0.316577 -0.273187,-0.354118 -0.220391,-0.368019 -0.08402,-0.181833 -0.06317,-0.176445 -0.03977,-0.168098 -0.01383,-0.156797 0.0241,-0.170958 0.06991,-0.18696 0.112119,-0.19853 0.150733,-0.205679 0.185749,-0.208402 0.217169,-0.206695 0.244991,-0.200565 0.269218,-0.190008 0.294516,-0.207578 0.283745,-0.229545 0.2718398,-0.249531 0.258798,-0.267539 0.244621,-0.28357 0.229307,-0.297622 0.212859,-0.309694 0.195275,-0.319792 0.176554,-0.327906 0.156699,-0.334047 0.135707,-0.338206 0.11358,-0.340387 0.09032,-0.340592 0.06592,-0.338818 0.04038,-0.335066 0.01371,-0.329332 -0.02183,-0.517477 -0.05944,-0.423487 -0.04099,-0.162846 -0.04699,-0.122965 -0.05185,-0.07763 -0.05558,-0.02683 -0.08528,0.01836 -0.136994,0.05189 -0.400693,0.189892 -0.522266,0.280561 -0.5870008,0.342249 -0.543358,0.307041 -0.469503,0.214548 -0.209939,0.07242 -0.194935,0.0491 -0.181085,0.02569 -0.168388,0.0021 -0.156844,-0.02128 -0.146454,-0.04488 -0.137209,-0.06851 -0.129134,-0.09228 -0.122203,-0.116078 -0.116428,-0.139941 -0.111803,-0.163878 -0.108335,-0.187875 -0.09042,-0.188645 -0.06607,-0.182346 -0.0418,-0.175919 -0.01761,-0.16937 0.0065,-0.162695 0.03053,-0.155895 0.05448,-0.148976 0.07835,-0.141926 0.102132,-0.134757 0.125836,-0.12746 0.149459,-0.120039 0.173001,-0.112498 0.196462,-0.104826 0.219842,-0.09704 0.243141,-0.08912 0.266358,-0.08108 0.778365,-0.227688 0.5917618,-0.207827 0.229626,-0.101166 0.18744,-0.101841 0.146742,-0.104391 0.107533,-0.108826 0.06981,-0.115139 0.03358,-0.123333 -0.0012,-0.133403 -0.03438,-0.145342 -0.06619,-0.159184 -0.09647,-0.174898 -0.277817,-0.404442 -0.2994738,-0.369424 -0.325882,-0.341723 -0.350002,-0.313275 -0.371836,-0.284083 -0.391383,-0.254153 -0.408645,-0.223476 -0.423618,-0.192059 -0.436307,-0.159897 -0.446707,-0.126993 -0.454823,-0.09335 -0.460651,-0.05896 -0.464192,-0.02382 -0.465448,0.01205 -0.464416,0.04867 -0.461099,0.08603 -0.455494,0.124136 -0.205263,0.05084 -0.198785,0.01945 -0.194012,-0.01242 -0.19092,-0.04499 -0.189531,-0.07803 -0.189842,-0.111616 -0.191847,-0.145754 -0.19555,-0.18044 -0.294649,-0.320123 -0.217404,-0.298808 -0.07999,-0.144003 -0.06099,-0.141782 -0.04209,-0.140599 -0.02329,-0.140453 -0.0046,-0.141345 0.014,-0.14327 0.03249,-0.146233 0.05088,-0.150234 0.156514,-0.316612 0.228836,-0.345049 0.168554,-0.200974 0.190903,-0.157489 0.232459,-0.1178 0.293219,-0.0819 0.373188,-0.04981 0.47236,-0.0215 0.590739,0.003 0.728325,0.02371 0.736906,0.02261 0.613749,-0.0013 0.51508,-0.0301 0.440897,-0.06379 0.391199,-0.102361 0.36599,-0.145825 0.365267,-0.194181 0.38903,-0.247423 0.306184,-0.215167 0.262732,-0.203871 0.219213,-0.193024 0.175625,-0.182623 0.13197,-0.172671 0.08825,-0.163166 0.04446,-0.154109 6.09e-4,-0.1455 -0.04333,-0.137337 -0.08732,-0.129624 -0.131382,-0.122347 -0.175509,-0.11554 -0.219705,-0.109169 -0.263969,-0.103247 -0.3083,-0.09777 -0.352699,-0.09274 -0.596149,-0.159757 -0.467386,-0.167633 -0.188461,-0.0907 -0.159935,-0.09739 -0.132631,-0.10565 -0.106547,-0.115484 -0.08169,-0.12689 -0.05805,-0.139869 -0.03563,-0.154422 -0.01443,-0.170546 0.0055,-0.188245 0.0243,-0.207516 0.09997,-0.479137 0.06065,-0.187115 0.08179,-0.166214 0.101358,-0.145098 0.119371,-0.123766 0.135825,-0.102217 0.150719,-0.08045 0.164053,-0.05847 0.175828,-0.03627 0.186043,-0.01386 0.194699,0.0088 0.201794,0.03161 0.207331,0.05467 0.211308,0.07795 0.213726,0.101443 0.214583,0.125153 0.213881,0.149077 0.160442,0.109039 0.181768,0.102185 0.4024188,0.174734 0.412444,0.120091 0.194301,0.03388 0.177988,0.01341 0.220677,-0.01053 0.18646,-0.04197 0.156595,-0.07859 0.131081,-0.120416 0.109916,-0.167437 0.0931,-0.219656 0.08064,-0.277069 0.07253,-0.339681 0.05608,-0.368214 0.02878,-0.362462 0.0012,-0.357258 -0.02657,-0.352599 -0.05462,-0.348487 -0.08292,-0.344922 -0.11146,-0.341941 -0.140279,-0.339431 -0.169331,-0.337506 -0.198633,-0.336128 -0.228185,-0.335295 -0.257986,-0.335009 -0.288039,-0.335271 -0.31834,-0.336078 -0.3488928,-0.337433 -0.379694,-0.339334 -0.589498,-0.513905 -0.445555,-0.410308 -0.315502,-0.3312386 -0.113323,-0.143633 -0.08602,-0.133063 -0.06045,-0.125559 -0.03662,-0.121121 -0.01453,-0.119749 0.0058,-0.121442 0.02446,-0.126202 0.04134,-0.134027 0.126399,-0.303794 0.130612,-0.249713 0.1507,-0.22323 0.168306,-0.196294 0.183433,-0.168909 0.196079,-0.141074 0.206245,-0.112787 0.213932,-0.08405 0.219138,-0.05486 0.221864,-0.02523 0.222109,0.0049 0.219875,0.0354 0.2151608,0.06639 0.207966,0.09783 0.198291,0.129717 0.186136,0.162058 0.171501,0.194848 0.560585,0.69841 0.528547,0.599121 0.507627,0.508531 0.497823,0.4266416 0.248711,0.185329 0.250428,0.16812 0.253536,0.151996 0.258034,0.13696 0.535119,0.233163 0.569785,0.186068 0.418948,0.109885 0.373071,0.08167 0.32769,0.05278 0.282807,0.02322 0.238419,-0.007 0.19453,-0.03794 0.151137,-0.06953 0.108241,-0.101792 0.06584,-0.134731 0.02394,-0.168347 -0.01747,-0.202637 -0.05837,-0.237602 -0.09879,-0.273243 -0.1387,-0.3095586 -0.178116,-0.346564 -0.217039,-0.384216 -0.322479,-0.554218 -0.233212,-0.425608 -0.146686,-0.325382 -0.04175,-0.133977 -0.02115,-0.119565 -8.73e-4,-0.108701 0.01903,-0.101385 0.03861,-0.09762 0.05784,-0.0974 0.172019,-0.208333 0.244847,-0.250034 0.317305,-0.290276 0.311303,-0.23771 0.269534,-0.160616 0.107924,-0.04373 0.08407,-0.01526 0.102407,0.01241 0.111158,0.03565 0.240093,0.131612 0.249666,0.196327 0.242287,0.242204 0.217957,0.269242 0.176673,0.277442 0.118435,0.266803 0.03208,0.123525 0.01117,0.1138 0.0098,0.18941 0.02843,0.196488 0.106085,0.403563 0.160779,0.399926 0.202362,0.374983 0.230828,0.328737 0.121992,0.14037 0.12419,0.120819 0.124751,0.09861 0.123671,0.07373 0.120953,0.04619 0.116595,0.01599 0.132811,-0.01358 0.143598,-0.03975 0.152876,-0.06445 0.160648,-0.08766 0.338579,-0.239044 0.351576,-0.314133 0.352513,-0.377377 0.34139,-0.428777 0.318208,-0.468335 0.282969,-0.496047 0.08984,-0.200125 0.08077,-0.232402 0.07149,-0.260504 0.062,-0.284433 0.09473,-0.623953 0.05432,-0.669574 0.01226,-0.6818 -0.03144,-0.660632 -0.07679,-0.606071 -0.05591,-0.272138 -0.06786,-0.245975 -0.05302,-0.20987 -0.02147,-0.201566 0.01076,-0.195428 0.04368,-0.191457 0.0773,-0.189655 0.111595,-0.190019 0.146582,-0.19255 0.182258,-0.19725 0.317306,-0.29194195 0.296995,-0.216493 0.143213,-0.08022 0.140932,-0.06167 0.139587,-0.04323 0.13916,-0.0249 0.139689,-0.0067 0.141139,0.01146 0.143523,0.02948 0.146839,0.04739 0.307356,0.148093 0.331812,0.218476 0.183509,0.16315795 0.14951,0.206064 0.119081,0.266316 0.09222,0.343916 0.06894,0.43886 0.04922,0.551153 0.03308,0.680789 0.02051,0.827774 0.02158,0.825984 0.03678,0.695599 0.05578,0.584003 0.07858,0.491195 0.105182,0.417174 0.135584,0.361944 0.169787,0.3255 0.207791,0.307846 0.409813,0.516364 0.179859,0.196379 0.165335,0.154431 0.152442,0.111923 0.141179,0.06886 0.131543,0.02523 0.123542,-0.01896 0.117166,-0.06371 0.112426,-0.109015 0.109313,-0.154882 0.107828,-0.201309 0.107979,-0.248297 0.109755,-0.295843 0.231367,-0.736567 0.221957,-0.700496 0.109715,-0.291395 0.111241,-0.253863 0.114543,-0.217611 0.119621,-0.182635 0.126479,-0.148939 0.135107,-0.116519 0.145518,-0.08538 0.157702,-0.05551 0.171662,-0.02693 0.187402,3.71e-4 0.204911,0.02641 0.224206,0.05116 0.513384,0.171452 0.131186,0.06529 0.113768,0.08726 0.09634,0.107392 0.07891,0.125682 0.06148,0.142129 0.04404,0.156733 0.0266,0.169495 0.0092,0.180413 -0.0083,0.189489 -0.02574,0.196723 -0.04321,0.202113 -0.06067,0.205662 -0.07813,0.207367 -0.0956,0.207229 -0.11308,0.205249 -0.130556,0.201427 -0.12531,0.201661 -0.104852,0.215379 -0.08471,0.225671 -0.06488,0.232541 -0.04537,0.235985 -0.02619,0.236005 -0.0073,0.2326006 0.01127,0.225772 0.0295,0.21552 0.04743,0.201842 0.06504,0.184741 0.08234,0.164214 0.09932,0.140265 0.115983,0.11289 0.132328,0.08209 0.14836,0.04787 0.310777,0.04171 0.323215,0.01032 0.334256,-0.02039 0.343906,-0.05044 0.352152,-0.07982 0.359005,-0.108529 0.364464,-0.136567 0.368522,-0.163938 0.371184,-0.190638 0.372449,-0.21667 0.372321,-0.242031 0.370793,-0.266723 0.367871,-0.2907466 0.363551,-0.3141 0.357833,-0.336783 0.350721,-0.358799 0.761722,-0.775704 0.688605,-0.635235 0.293243,-0.244456 0.246594,-0.184757 0.19049,-0.116862 0.124928,-0.04078 0.135308,0.01602 0.145058,0.04609 0.152259,0.07321 0.156912,0.09737 0.317576,0.255396 0.305581,0.316577 0.273187,0.354117 0.220393,0.368018 0.08402,0.181833 0.06317,0.176444 0.03977,0.168097 0.01384,0.156798 -0.0241,0.171272 -0.06998,0.186987 -0.112326,0.198372 -0.15113,0.205431 -0.186409,0.208159 -0.218152,0.2065616 -0.246359,0.200633 -0.271039,0.19038 -0.273307,0.197624 -0.276508,0.236997 -0.276833,0.271604 -0.274283,0.301446 -0.268862,0.32652 -0.260564,0.34683 -0.249394,0.362374 -0.235344,0.373151 -0.218424,0.379161 -0.198628,0.380408 -0.175956,0.376886 -0.15041,0.3686 -0.121989,0.355547 -0.09069,0.337729 -0.05653,0.315144 -0.01947,0.287793 0.0062,0.209857 0.01939,0.182346 0.03385,0.154878 0.04954,0.12745 0.06646,0.100065 0.08463,0.07272 0.104032,0.04542 0.124669,0.01816 0.14655,-0.0091 0.169667,-0.03624 0.194021,-0.06338 0.219615,-0.09048 0.52097,-0.262068 0.638207,-0.369951 0.543356,-0.307041 0.469503,-0.214548 0.209939,-0.07242 0.194934,-0.04909 0.181084,-0.0257 0.168389,-0.0022 0.156845,0.02129 0.146452,0.04488 0.137218,0.06855 0.129135,0.09228 0.122201,0.116077 0.116427,0.139942 0.111805,0.163877 0.108334,0.187877 0.09073,0.189296 0.06624,0.182852 0.04182,0.176282 0.01749,0.169587 -0.0068,0.162765 -0.03093,0.15582 -0.05501,0.148748 -0.07901,0.14155 -0.102928,0.134227 -0.126762,0.126779 -0.150516,0.119205 -0.174186,0.111506 -0.197773,0.10368 -0.221276,0.09573 -0.244698,0.08765 -0.268036,0.07945 -0.713848,0.216123 -0.598813,0.232356 -0.255807,0.121861 -0.226494,0.125435 -0.196996,0.128845 -0.167317,0.132096 -0.137451,0.135184 -0.107402,0.138111 -0.07717,0.140875 -0.04675,0.143479 -0.01614,0.145921 0.01463,0.1482 0.04561,0.150319 0.07677,0.152275 0.107571,0.162507 0.124032,0.158898 0.294068,0.305979 0.349782,0.288567 0.39873,0.269171 0.440928,0.247789 0.476369,0.22442 0.505047,0.199068 0.526971,0.171729 0.542142,0.142406 0.550547,0.111095 0.552204,0.0778 0.547098,0.04252 0.535236,0.0053 0.516617,-0.034 0.491242,-0.07523 0.459107,-0.118455 0.20987,-0.05302 0.201568,-0.02147 0.195426,0.01076 0.191458,0.04368 0.189656,0.07729 0.190019,0.111595 0.19255,0.146582 0.197247,0.182257 0.291944,0.317306 0.216493,0.296996 0.08022,0.143212 0.06167,0.140933 0.04323,0.139585 0.0249,0.139171 0.0067,0.139689 -0.01146,0.14114 -0.02947,0.143522 -0.04739,0.146839 -0.14809,0.307357 -0.218477,0.331812 -0.163158,0.183509 -0.206065,0.14951 -0.266317,0.11908 -0.343916,0.09222 -0.438859,0.06894 -0.551153,0.04922 -0.680789,0.03308 -0.827776,0.02051 -0.825984,0.02158 -0.695597,0.03678 -0.584004,0.05578 -0.491194,0.07858 -0.417174,0.105182 -0.361945,0.135584 -0.325501,0.169787 -0.307848,0.207791 -0.516363,0.409813 -0.196379,0.179859 -0.154432,0.165335 -0.111922,0.152442 -0.06885,0.141177 -0.02524,0.131545 0.01897,0.12354 0.06371,0.117168 0.109016,0.112426 0.154882,0.109313 0.201311,0.107828 0.248295,0.107979 0.295844,0.109755 0.736569,0.231367 0.572074,0.173805 0.459605,0.15902 0.358219,0.151807 0.26792,0.152183 0.188703,0.160137 0.06811,0.08542 0.05246,0.09025 0.06352,0.198784 0.01754,0.229484 -0.01209,0.32752 -0.03246,0.289851 -0.05444,0.252618 -0.07802,0.215829 -0.103209,0.179472 -0.13,0.143558 -0.158396,0.108077 -0.188396,0.07304 -0.219999,0.03843 -0.253209,0.0043 -0.28802,-0.02946 -0.324437,-0.06275 -0.362458,-0.0956 -0.402082,-0.128016 -0.929457,-0.351518 -0.327523,-0.124642 -0.301165,-0.09594 -0.275044,-0.06707 -0.249169,-0.03803 -0.223523,-0.0088 -0.198125,0.02053 -0.172958,0.05008 -0.148032,0.07978 -0.123349,0.109646 -0.0989,0.139684 -0.07469,0.169886 -0.05072,0.200255 -0.02699,0.230788 -0.0035,0.261493 0.01976,0.292362 0.04278,0.323395 0.149976,0.771419 0.09165,0.357407 0.104233,0.340993 0.117925,0.326414 0.13272,0.313674 0.148625,0.30277 0.165634,0.293704 0.183753,0.28648 0.202975,0.281088 0.223306,0.27754 0.244745,0.275826 0.26729,0.275949 0.290938,0.277913 0.657262,0.569069 0.616194,0.525722 0.462441,0.450524 0.17526,0.202756 0.138853,0.190788 0.103124,0.181099 0.06807,0.173686 0.0337,0.168553 2e-6,0.165695 -0.03302,0.165116 -0.06536,0.166815 -0.09702,0.170788 -0.12801,0.177044 -0.158322,0.185573 -0.187954,0.196382 -0.205,0.191248 -0.202522,0.16119 -0.20015,0.131114 -0.197879,0.101021 -0.195707,0.07091 -0.19364,0.04077 -0.191675,0.01061 -0.18981,-0.01955 -0.188047,-0.04973 -0.186386,-0.07994 -0.18483,-0.110165 -0.183372,-0.140411 -0.182017,-0.170673 -0.180764,-0.200953 -0.179615,-0.231257 -0.178564,-0.261572 -0.13171,-0.188897 -0.151111,-0.188813 -0.354767,-0.374687 -0.414166,-0.366289 -0.461118,-0.352517 -0.495633,-0.333368 -0.517708,-0.308845 -0.527341,-0.278945 -0.524534,-0.243671 -0.509283,-0.20302 -0.481595,-0.156993 -0.441462,-0.105592 -0.38889,-0.04882 -0.170844,-0.0013 -0.153035,0.01476 -0.133673,0.03166 -0.112752,0.04921 -0.09028,0.06743 -0.06625,0.08633 -0.04067,0.105902 -0.01352,0.126143 0.01849,0.122582 0.05231,0.172257 0.191442,0.461909 0.282855,0.565698 0.345054,0.6062 0.298236,0.545092 0.112866,0.252166 0.08867,0.238755 0.06447,0.225483 0.04025,0.212344 0.01601,0.199343 -0.0082,0.186467 -0.0325,0.173734 -0.05678,0.161134 -0.08108,0.148664 -0.105391,0.136332 -0.129718,0.124134 -0.154059,0.112072 -0.178416,0.100143 -0.202787,0.08835 -0.178007,0.0591 -0.171272,0.03812 -0.164518,0.01717 -0.157745,-0.0038 -0.150942,-0.02471 -0.144121,-0.04562 -0.137277,-0.06652 -0.13041,-0.08739 -0.123518,-0.108247 -0.116607,-0.129085 -0.10967,-0.149907 -0.102711,-0.170715 -0.09573,-0.191497 -0.08873,-0.21227 -0.15635,-0.486775 -0.179816,-0.578737 -0.219517,-0.572759 -0.231447,-0.500679 -0.111516,-0.202652 -0.104087,-0.15984 -0.155999,-0.204714 -0.134874,-0.144081 -0.12864,-0.08209 -0.06664,-0.01738 -0.07066,-0.0013 -0.160856,0.04598 -0.1993,0.112054 -0.252643,0.179491 -0.320874,0.248285 -0.339394,0.293862 -0.314502,0.326477 -0.288737,0.35601 -0.262099,0.382458 -0.234583,0.405823 -0.206196,0.426106 -0.176933,0.443307 -0.146795,0.45742 -0.115783,0.46845 -0.0839,0.476403 -0.05114,0.481267 -0.0175,0.48305 0.01701,0.481748 0.05239,0.477364 0.08865,0.469897 0.125782,0.459346 0.05302,0.20987 0.02147,0.201567 -0.01076,0.195427 -0.04369,0.191458 -0.0773,0.189653 -0.111595,0.190021 -0.14658,0.192548 -0.182255,0.197252 -0.320123,0.294648 -0.298808,0.217403 -0.144002,0.07999 -0.141782,0.06099 -0.1406,0.04209 -0.140453,0.02328 -0.141344,0.0046 -0.14327,-0.014 -0.146233,-0.03249 -0.150234,-0.05088 -0.316611,-0.156514 -0.345049,-0.228836 -9.9e-5,-3e-6"
       id="path915-5"
       inkscape:connector-curvature="0"
       sodipodi:nodetypes="ccssssccsscscssssscccssscccscssscssscccsccssccssssscsssscccsscscccsccscccsccc" />
    <path
       style="fill:none;stroke:#000000;stroke-width:0.26458332px;stroke-linecap:butt;stroke-linejoin:miter;stroke-opacity:1"
       d="m 3.2155865,24.713796 c 6.431173,-0.365407 5.9926839,0 8.2582105,1.132764 2.265527,1.132764 3.325209,0.657734 3.727157,0.182704 0.401949,-0.47503 0.913519,-3.471372 0.986601,-4.092565 0.07308,-0.621193 1.534711,-0.328867 1.059682,-1.205845"
       id="path963"
       inkscape:connector-curvature="0" />
  </g>
  <g
     id="g867"
     inkscape:groupmode="layer"
     inkscape:label="Margin-disabled" />
  <g
     id="g869"
     inkscape:groupmode="layer"
     inkscape:label="B.CrtYd-disabled" />
  <g
     id="g871"
     inkscape:groupmode="layer"
     inkscape:label="F.CrtYd-disabled" />
  <g
     id="g873"
     inkscape:groupmode="layer"
     inkscape:label="B.Fab-disabled" />
  <g
     id="g875"
     inkscape:groupmode="layer"
     inkscape:label="F.Fab-disabled" />
  <g
     id="g877"
     inkscape:groupmode="layer"
     inkscape:label="Drill" />
  <g
     id="g837"
     inkscape:groupmode="layer"
     inkscape:label="F.Cu">
    <path
       style="fill:#008000;stroke-width:0.36889309"
       d="m 31.191136,5.3948027 c -0.657195,0.047901 -0.996825,0.6466684 -1.41335,2.0794596 -0.305581,1.0511583 -0.603275,1.6824013 -0.899204,1.8360977 1.016364,0.2239751 2.492153,1.072243 3.244251,1.617715 -0.08341,-0.610902 -0.142949,-2.1040264 0.241209,-2.652495 0.742917,-1.060804 0.703375,-2.3453842 -0.04274,-2.631697 -0.46688,-0.1791578 -0.83144,-0.2708537 -1.130166,-0.2490803 z m -13.806392,0.394291 c -0.1884,0 -0.678682,0.3365831 -1.089856,0.747758 -0.747591,0.7475911 -0.747822,0.7474445 0.233578,2.4220744 0.629616,1.0743599 0.785931,1.8498729 0.555137,2.1653109 0.907489,-0.531357 2.199959,-1.063786 3.280842,-1.2400339 -0.548232,-0.355083 -1.477467,-1.6092312 -1.477467,-2.4259605 0,-0.5768171 -0.983165,-1.6691489 -1.502234,-1.6691489 z m 24.829492,9.1420773 c -0.43313,-0.02537 -0.98952,0.199951 -1.767334,0.67076 -0.563985,0.341376 -1.559509,0.732041 -1.899284,0.863265 0.445288,0.701652 0.777873,2.048242 0.793179,2.845365 0.270126,-0.355748 1.915864,-1.190613 2.542761,-1.359419 1.491611,-0.401649 1.908428,-1.158856 1.359039,-2.185396 -0.285289,-0.533068 -0.595231,-0.809209 -1.028361,-0.834575 z M 7.6757765,16.479914 c -0.5718916,0.0077 -1.0269379,0.32116 -1.175639,0.913639 -0.3513905,1.400051 -0.059095,1.776263 1.7110075,2.202967 0.8578612,0.206798 1.6562664,0.651034 1.819363,0.953899 0.730194,-0.55473 2.03795,-1.780985 1.323922,-3.017623 0,0 -0.630273,0.05031 -0.692272,0.04941 C 10.214845,17.575719 9.5268888,17.326603 9.1330512,17.028718 8.6360288,16.652788 8.1205808,16.473886 7.6757765,16.479914 Z M 40.109455,27.967585 c -0.116325,0.908668 -1.263718,1.865986 -1.468229,2.918834 0.134032,0.04437 1.63886,0.272321 1.788106,0.333164 2.709849,1.10481 3.523775,0.882677 3.536735,-0.965316 0.0046,-0.659622 -0.363114,-0.911006 -2.048454,-1.400948 -0.387221,-0.112568 -1.546178,-0.784538 -1.808158,-0.885734 z m -29.03579,1.301364 c -0.345822,0.178888 -1.7981198,1.026194 -2.5700311,1.240083 -1.4823466,0.410742 -1.9777313,1.16994 -1.4304062,2.192631 0.5705818,1.066136 1.2492002,1.169377 2.8048311,0.22776 0.5162122,-0.312463 1.4347152,-0.758424 1.7708732,-0.915475 -0.408813,-0.702696 -0.379912,-1.905867 -0.575267,-2.744999 z m 21.862132,8.246796 c -0.951298,0.01163 -1.936182,0.729146 -2.774114,0.905653 0.228104,0.442595 1.128386,1.895946 1.27905,2.455476 0.379305,1.408624 1.060518,1.933353 2.027784,1.56218 1.146556,-0.439976 1.252266,-1.377458 0.328145,-2.904218 -0.282251,-0.466314 -0.697428,-1.642392 -0.860865,-2.019091 z m -14.035546,0.433816 c -0.01395,0.373148 -0.605811,1.569406 -0.935697,2.146483 -1.05094,1.838426 -0.561029,2.951239 1.299662,2.951239 0.503205,0 0.857145,-0.460884 1.22008,-1.745886 0.264911,-0.93794 0.58346,-1.498632 0.909764,-1.657523 -0.9732,-0.241231 -1.583531,-1.283083 -2.493809,-1.694313 z"
       id="path915-7"
       inkscape:connector-curvature="0"
       sodipodi:nodetypes="ssccccssccccssscccscsscscccssccccccccccccccccccccsscc" />
    <ellipse
       style="opacity:1;fill:#008000;fill-opacity:1;stroke:#000000;stroke-width:0.1;stroke-miterlimit:4;stroke-dasharray:none;stroke-opacity:1"
       id="path949"
       cx="20.389742"
       cy="25.079205"
       rx="3.8733201"
       ry="4.1656461" />
    <ellipse
       style="opacity:1;fill:#008000;fill-opacity:1;stroke:#000000;stroke-width:0.1;stroke-miterlimit:4;stroke-dasharray:none;stroke-opacity:1"
       id="path951"
       cx="32.228947"
       cy="20.694313"
       rx="3.7271571"
       ry="3.4348307" />
    <ellipse
       style="opacity:1;fill:#008000;fill-opacity:1;stroke:#000000;stroke-width:0.1;stroke-miterlimit:4;stroke-dasharray:none;stroke-opacity:1"
       id="path953"
       cx="31.863537"
       cy="31.291132"
       rx="3.5079124"
       ry="3.6540756" />
  </g>
</svg>
