G04 #@! TF.GenerationSoftware,KiCad,Pcbnew,5.1.5*
G04 #@! TF.CreationDate,2020-03-10T18:03:46+01:00*
G04 #@! TF.ProjectId,v,762e6b69-6361-4645-9f70-636258585858,rev?*
G04 #@! TF.SameCoordinates,Original*
G04 #@! TF.FileFunction,Copper,L1,Top*
G04 #@! TF.FilePolarity,Positive*
%FSLAX46Y46*%
G04 Gerber Fmt 4.6, Leading zero omitted, Abs format (unit mm)*
G04 Created by KiCad (PCBNEW 5.1.5) date 2020-03-10 18:03:46*
%MOMM*%
%LPD*%
G04 APERTURE LIST*
%ADD10C,0.010000*%
%ADD11C,1.700000*%
%ADD12C,0.100000*%
%ADD13C,0.400000*%
G04 APERTURE END LIST*
D10*
G36*
X114910550Y-78229784D02*
G01*
X115210754Y-78460171D01*
X115443618Y-78705458D01*
X115626386Y-78984362D01*
X115653648Y-79036334D01*
X115723500Y-79183910D01*
X115784874Y-79338678D01*
X115838608Y-79507586D01*
X115885536Y-79697581D01*
X115926496Y-79915608D01*
X115962322Y-80168615D01*
X115993850Y-80463548D01*
X116021918Y-80807356D01*
X116047360Y-81206983D01*
X116071012Y-81669378D01*
X116093711Y-82201486D01*
X116116292Y-82810256D01*
X116119763Y-82909834D01*
X116141305Y-83447493D01*
X116167546Y-83910275D01*
X116200964Y-84307942D01*
X116244034Y-84650254D01*
X116299232Y-84946972D01*
X116369036Y-85207858D01*
X116455923Y-85442671D01*
X116562367Y-85661173D01*
X116690847Y-85873125D01*
X116843837Y-86088288D01*
X116965925Y-86244895D01*
X117072188Y-86373369D01*
X117159782Y-86471653D01*
X117214772Y-86524410D01*
X117224366Y-86529334D01*
X117246172Y-86490983D01*
X117288483Y-86384308D01*
X117346790Y-86221868D01*
X117416588Y-86016227D01*
X117493366Y-85779945D01*
X117494012Y-85777917D01*
X117615511Y-85398124D01*
X117716358Y-85088136D01*
X117800568Y-84836765D01*
X117872158Y-84632823D01*
X117935146Y-84465121D01*
X117993546Y-84322472D01*
X118051376Y-84193688D01*
X118095983Y-84101103D01*
X118312897Y-83715958D01*
X118547720Y-83407317D01*
X118807229Y-83167752D01*
X119098199Y-82989837D01*
X119118586Y-82980124D01*
X119229635Y-82931456D01*
X119329988Y-82899306D01*
X119441718Y-82880411D01*
X119586898Y-82871508D01*
X119787601Y-82869336D01*
X119866834Y-82869528D01*
X120095117Y-82872454D01*
X120269323Y-82882435D01*
X120420014Y-82904457D01*
X120577753Y-82943507D01*
X120773105Y-83004570D01*
X120849190Y-83029786D01*
X121218484Y-83175141D01*
X121514476Y-83344212D01*
X121747261Y-83546110D01*
X121926935Y-83789945D01*
X122063593Y-84084826D01*
X122084610Y-84144646D01*
X122185644Y-84569443D01*
X122207755Y-85011544D01*
X122150598Y-85472639D01*
X122013824Y-85954420D01*
X121797087Y-86458575D01*
X121501383Y-86984639D01*
X121328134Y-87340663D01*
X121228650Y-87726992D01*
X121207587Y-88125025D01*
X121209158Y-88152672D01*
X121227518Y-88325060D01*
X121256611Y-88480824D01*
X121289015Y-88583332D01*
X121324587Y-88647963D01*
X121368907Y-88686692D01*
X121443424Y-88707423D01*
X121569587Y-88718055D01*
X121666415Y-88722366D01*
X122122558Y-88702434D01*
X122609331Y-88608787D01*
X123120785Y-88444068D01*
X123650970Y-88210917D01*
X124193936Y-87911976D01*
X124743733Y-87549887D01*
X125294411Y-87127291D01*
X125335143Y-87093595D01*
X125485807Y-86962524D01*
X125680711Y-86784208D01*
X125905370Y-86572394D01*
X126145303Y-86340830D01*
X126386027Y-86103263D01*
X126513167Y-85975377D01*
X126949899Y-85538421D01*
X127337195Y-85163475D01*
X127679275Y-84847054D01*
X127980358Y-84585674D01*
X128244666Y-84375852D01*
X128476419Y-84214102D01*
X128679836Y-84096941D01*
X128859138Y-84020884D01*
X128893970Y-84009854D01*
X129158345Y-83974028D01*
X129448715Y-84011273D01*
X129757225Y-84117057D01*
X130076014Y-84286850D01*
X130397226Y-84516117D01*
X130713002Y-84800328D01*
X131015486Y-85134949D01*
X131154946Y-85313891D01*
X131435077Y-85731278D01*
X131638586Y-86128381D01*
X131764692Y-86508736D01*
X131812616Y-86875879D01*
X131781575Y-87233348D01*
X131670791Y-87584677D01*
X131479483Y-87933404D01*
X131206870Y-88283066D01*
X130852172Y-88637197D01*
X130414609Y-88999335D01*
X130327043Y-89065601D01*
X129888121Y-89415081D01*
X129507247Y-89768037D01*
X129160332Y-90148488D01*
X128866227Y-90522111D01*
X128472651Y-91088996D01*
X128133000Y-91653762D01*
X127851258Y-92207936D01*
X127631410Y-92743045D01*
X127477438Y-93250614D01*
X127404307Y-93631603D01*
X127379727Y-93812372D01*
X127687280Y-93657682D01*
X127836259Y-93579919D01*
X128035819Y-93471769D01*
X128263473Y-93345615D01*
X128496731Y-93213838D01*
X128579395Y-93166458D01*
X129040885Y-92910472D01*
X129447372Y-92707315D01*
X129807899Y-92554443D01*
X130131510Y-92449312D01*
X130427249Y-92389375D01*
X130704160Y-92372088D01*
X130971286Y-92394906D01*
X131171523Y-92437035D01*
X131492036Y-92555410D01*
X131781843Y-92738489D01*
X132048920Y-92992656D01*
X132301250Y-93324295D01*
X132324304Y-93359386D01*
X132556736Y-93780170D01*
X132706170Y-94194553D01*
X132773919Y-94597967D01*
X132761298Y-94985842D01*
X132669620Y-95353612D01*
X132500200Y-95696707D01*
X132254351Y-96010559D01*
X131933387Y-96290601D01*
X131538623Y-96532263D01*
X131391274Y-96603311D01*
X131248927Y-96661798D01*
X131049178Y-96735763D01*
X130815841Y-96816760D01*
X130572728Y-96896340D01*
X130508543Y-96916475D01*
X130125006Y-97038065D01*
X129810360Y-97143804D01*
X129551403Y-97238550D01*
X129334931Y-97327162D01*
X129147740Y-97414499D01*
X129127313Y-97424772D01*
X128960507Y-97520769D01*
X128809181Y-97628177D01*
X128690132Y-97732962D01*
X128620157Y-97821087D01*
X128608667Y-97858163D01*
X128639312Y-97921071D01*
X128722165Y-98023923D01*
X128843602Y-98153420D01*
X128989997Y-98296266D01*
X129147727Y-98439162D01*
X129303166Y-98568811D01*
X129441858Y-98671355D01*
X129923845Y-98957815D01*
X130470132Y-99215761D01*
X131063700Y-99440253D01*
X131687530Y-99626351D01*
X132324603Y-99769114D01*
X132957900Y-99863602D01*
X133570402Y-99904874D01*
X133696187Y-99906319D01*
X134137089Y-99887296D01*
X134599004Y-99827302D01*
X135105512Y-99723196D01*
X135149167Y-99712747D01*
X135518182Y-99639968D01*
X135837025Y-99615052D01*
X136125163Y-99637708D01*
X136361791Y-99694560D01*
X136659520Y-99808963D01*
X136935125Y-99963402D01*
X137210648Y-100171628D01*
X137400360Y-100342548D01*
X137769308Y-100727170D01*
X138055367Y-101103420D01*
X138259471Y-101474857D01*
X138382553Y-101845040D01*
X138425545Y-102217529D01*
X138389381Y-102595881D01*
X138274994Y-102983658D01*
X138160165Y-103240413D01*
X137928878Y-103639845D01*
X137671225Y-103963951D01*
X137377274Y-104220460D01*
X137037090Y-104417104D01*
X136640740Y-104561613D01*
X136381666Y-104624491D01*
X136194316Y-104659839D01*
X135993800Y-104690351D01*
X135770411Y-104716749D01*
X135514440Y-104739754D01*
X135216179Y-104760088D01*
X134865920Y-104778475D01*
X134453954Y-104795635D01*
X133970573Y-104812291D01*
X133774509Y-104818384D01*
X133192897Y-104837770D01*
X132687688Y-104859382D01*
X132250615Y-104885092D01*
X131873415Y-104916772D01*
X131547824Y-104956293D01*
X131265577Y-105005528D01*
X131018409Y-105066347D01*
X130798056Y-105140623D01*
X130596255Y-105230226D01*
X130404739Y-105337030D01*
X130215246Y-105462904D01*
X130019511Y-105609722D01*
X129915866Y-105692259D01*
X129786215Y-105798848D01*
X129686264Y-105884516D01*
X129630983Y-105936269D01*
X129624667Y-105944983D01*
X129635535Y-105958597D01*
X129673372Y-105978689D01*
X129746025Y-106007981D01*
X129861342Y-106049192D01*
X130027173Y-106105042D01*
X130251364Y-106178253D01*
X130541764Y-106271543D01*
X130852334Y-106370507D01*
X131285486Y-106511454D01*
X131646452Y-106636937D01*
X131945277Y-106751653D01*
X132192006Y-106860299D01*
X132396684Y-106967572D01*
X132569356Y-107078168D01*
X132720067Y-107196785D01*
X132822620Y-107291756D01*
X132992506Y-107474356D01*
X133115739Y-107650253D01*
X133198881Y-107838237D01*
X133248494Y-108057098D01*
X133271140Y-108325625D01*
X133274280Y-108585000D01*
X133250891Y-109048779D01*
X133185960Y-109446632D01*
X133076025Y-109788253D01*
X132917626Y-110083337D01*
X132707301Y-110341577D01*
X132615507Y-110429837D01*
X132331552Y-110636943D01*
X132010141Y-110776088D01*
X131646620Y-110848277D01*
X131236332Y-110854516D01*
X130855011Y-110810007D01*
X130631207Y-110769382D01*
X130415966Y-110722508D01*
X130194832Y-110665050D01*
X129953347Y-110592673D01*
X129677055Y-110501042D01*
X129351499Y-110385822D01*
X128962221Y-110242680D01*
X128959543Y-110241683D01*
X128535043Y-110089348D01*
X128184622Y-109975955D01*
X127908493Y-109901555D01*
X127706869Y-109866202D01*
X127579963Y-109869948D01*
X127540697Y-109890037D01*
X127510297Y-109967838D01*
X127496097Y-110114031D01*
X127497337Y-110314057D01*
X127513255Y-110553355D01*
X127543093Y-110817368D01*
X127586091Y-111091537D01*
X127609931Y-111216323D01*
X127729010Y-111739586D01*
X127867220Y-112214465D01*
X128031051Y-112651079D01*
X128226995Y-113059552D01*
X128461541Y-113450005D01*
X128741182Y-113832560D01*
X129072407Y-114217339D01*
X129461708Y-114614463D01*
X129915577Y-115034055D01*
X130238500Y-115315270D01*
X130678542Y-115699844D01*
X131051068Y-116045334D01*
X131360230Y-116357732D01*
X131610184Y-116643030D01*
X131805081Y-116907220D01*
X131949075Y-117156294D01*
X132046321Y-117396244D01*
X132100970Y-117633063D01*
X132117177Y-117872743D01*
X132110547Y-118016058D01*
X132064823Y-118305882D01*
X131973487Y-118580171D01*
X131829325Y-118852349D01*
X131625122Y-119135841D01*
X131353664Y-119444071D01*
X131329277Y-119469729D01*
X130928936Y-119846221D01*
X130527537Y-120138596D01*
X130125390Y-120346766D01*
X129722803Y-120470645D01*
X129320088Y-120510146D01*
X128917554Y-120465180D01*
X128515511Y-120335662D01*
X128414548Y-120289789D01*
X128153155Y-120134430D01*
X127874030Y-119915937D01*
X127592987Y-119648916D01*
X127325839Y-119347971D01*
X127160135Y-119131332D01*
X126976301Y-118877939D01*
X126824462Y-118678543D01*
X126690038Y-118516432D01*
X126558451Y-118374897D01*
X126415124Y-118237227D01*
X126259167Y-118098581D01*
X125816479Y-117745724D01*
X125316083Y-117401705D01*
X124776651Y-117076512D01*
X124216856Y-116780132D01*
X123655371Y-116522552D01*
X123110866Y-116313760D01*
X122676981Y-116182533D01*
X122540142Y-116150606D01*
X122439441Y-116133721D01*
X122399433Y-116134789D01*
X122408058Y-116184073D01*
X122460031Y-116304951D01*
X122554911Y-116496556D01*
X122692257Y-116758019D01*
X122871626Y-117088471D01*
X123036076Y-117385753D01*
X123265385Y-117814721D01*
X123444425Y-118190599D01*
X123577278Y-118525216D01*
X123668026Y-118830400D01*
X123720754Y-119117978D01*
X123739544Y-119399778D01*
X123739708Y-119424023D01*
X123703704Y-119832712D01*
X123592726Y-120203238D01*
X123405230Y-120539579D01*
X123220039Y-120764874D01*
X122907279Y-121038932D01*
X122539886Y-121255083D01*
X122215927Y-121384795D01*
X121784790Y-121494313D01*
X121382345Y-121524394D01*
X121007109Y-121474710D01*
X120657598Y-121344930D01*
X120332329Y-121134726D01*
X120093000Y-120913141D01*
X119912028Y-120700743D01*
X119751592Y-120464838D01*
X119604703Y-120191776D01*
X119464371Y-119867910D01*
X119323608Y-119479592D01*
X119260668Y-119287712D01*
X119159312Y-118983483D01*
X119050119Y-118677753D01*
X118938660Y-118384313D01*
X118830508Y-118116953D01*
X118731233Y-117889461D01*
X118646409Y-117715627D01*
X118583431Y-117611617D01*
X118510344Y-117515400D01*
X118124817Y-117831743D01*
X117681801Y-118248872D01*
X117289601Y-118727971D01*
X116951906Y-119260675D01*
X116672404Y-119838615D01*
X116454784Y-120453425D01*
X116302733Y-121096737D01*
X116219940Y-121760186D01*
X116205000Y-122186953D01*
X116216482Y-122585380D01*
X116253875Y-122962565D01*
X116321597Y-123350985D01*
X116420150Y-123768069D01*
X116506260Y-124166126D01*
X116540762Y-124514801D01*
X116522116Y-124832989D01*
X116448779Y-125139583D01*
X116319211Y-125453479D01*
X116275662Y-125539500D01*
X116171523Y-125701229D01*
X116015424Y-125897100D01*
X115823319Y-126110693D01*
X115611159Y-126325587D01*
X115394897Y-126525364D01*
X115190485Y-126693603D01*
X115073270Y-126777126D01*
X114713408Y-126969858D01*
X114332643Y-127094111D01*
X113947423Y-127146076D01*
X113580334Y-127123006D01*
X113377444Y-127069625D01*
X113134963Y-126977342D01*
X112880670Y-126858534D01*
X112642343Y-126725581D01*
X112540978Y-126659827D01*
X112431898Y-126582266D01*
X112381663Y-126530729D01*
X112379222Y-126483454D01*
X112413524Y-126418684D01*
X112416242Y-126414206D01*
X112484692Y-126301500D01*
X112398441Y-126400294D01*
X112312190Y-126499087D01*
X112190834Y-126412674D01*
X112032852Y-126271132D01*
X111870809Y-126077030D01*
X111726401Y-125858460D01*
X111650861Y-125713507D01*
X111596963Y-125591773D01*
X111551491Y-125475962D01*
X111513725Y-125357803D01*
X111482945Y-125229020D01*
X111458431Y-125081342D01*
X111439463Y-124906494D01*
X111425322Y-124696204D01*
X111415288Y-124442198D01*
X111408640Y-124136203D01*
X111404660Y-123769945D01*
X111402628Y-123335151D01*
X111401845Y-122851334D01*
X111401349Y-122367046D01*
X111400200Y-121958872D01*
X111397594Y-121618261D01*
X111392726Y-121336660D01*
X111384791Y-121105518D01*
X111372984Y-120916282D01*
X111356499Y-120760400D01*
X111334533Y-120629320D01*
X111306279Y-120514490D01*
X111270934Y-120407359D01*
X111227692Y-120299373D01*
X111175748Y-120181981D01*
X111144027Y-120112175D01*
X111060010Y-119946184D01*
X110948733Y-119753098D01*
X110819061Y-119545535D01*
X110679861Y-119336117D01*
X110539998Y-119137462D01*
X110408337Y-118962190D01*
X110293744Y-118822920D01*
X110205084Y-118732273D01*
X110153816Y-118702667D01*
X110114274Y-118741456D01*
X110056447Y-118850021D01*
X109985064Y-119016659D01*
X109904853Y-119229666D01*
X109820544Y-119477341D01*
X109751847Y-119697500D01*
X109586363Y-120213221D01*
X109421158Y-120650365D01*
X109252438Y-121014926D01*
X109076411Y-121312897D01*
X108889285Y-121550270D01*
X108687266Y-121733038D01*
X108466563Y-121867194D01*
X108346222Y-121918588D01*
X108073439Y-121986246D01*
X107749197Y-122010753D01*
X107393611Y-121994186D01*
X107026795Y-121938622D01*
X106668865Y-121846140D01*
X106339935Y-121718817D01*
X106319848Y-121709293D01*
X105962169Y-121497337D01*
X105675200Y-121238863D01*
X105458859Y-120933741D01*
X105313067Y-120581838D01*
X105237745Y-120183023D01*
X105226424Y-119909167D01*
X105240001Y-119634305D01*
X105278820Y-119367206D01*
X105347504Y-119092637D01*
X105450674Y-118795368D01*
X105592951Y-118460167D01*
X105778957Y-118071800D01*
X105791597Y-118046500D01*
X105964346Y-117694579D01*
X106096130Y-117408502D01*
X106188780Y-117181061D01*
X106244129Y-117005048D01*
X106264012Y-116873255D01*
X106250260Y-116778474D01*
X106204707Y-116713496D01*
X106140250Y-116675442D01*
X105963668Y-116620501D01*
X105727858Y-116571962D01*
X105458216Y-116533536D01*
X105180137Y-116508934D01*
X104951193Y-116501664D01*
X104451452Y-116539409D01*
X103960130Y-116653331D01*
X103470460Y-116845689D01*
X102975672Y-117118742D01*
X102842297Y-117205274D01*
X102613873Y-117364213D01*
X102386462Y-117536232D01*
X102151105Y-117729303D01*
X101898842Y-117951401D01*
X101620713Y-118210499D01*
X101307757Y-118514571D01*
X100951017Y-118871590D01*
X100816834Y-119007804D01*
X100384434Y-119441126D01*
X100000080Y-119811107D01*
X99659670Y-120121115D01*
X99359108Y-120374513D01*
X99094295Y-120574668D01*
X98861131Y-120724944D01*
X98655519Y-120828706D01*
X98552000Y-120867391D01*
X98283989Y-120910256D01*
X97992249Y-120877689D01*
X97683054Y-120773429D01*
X97362679Y-120601215D01*
X97037398Y-120364787D01*
X96713485Y-120067884D01*
X96397216Y-119714246D01*
X96210447Y-119471884D01*
X95940528Y-119051047D01*
X95754076Y-118643137D01*
X95650993Y-118247470D01*
X95631180Y-117863359D01*
X95694540Y-117490118D01*
X95840975Y-117127063D01*
X95867879Y-117077403D01*
X96024115Y-116841997D01*
X96236998Y-116584919D01*
X96488821Y-116324987D01*
X96761872Y-116081020D01*
X96929171Y-115949652D01*
X97117335Y-115809775D01*
X97305559Y-115669478D01*
X97469650Y-115546812D01*
X97568732Y-115472419D01*
X97780849Y-115293552D01*
X98017726Y-115062154D01*
X98260802Y-114798442D01*
X98491521Y-114522630D01*
X98691323Y-114254936D01*
X98706138Y-114233421D01*
X99025010Y-113717535D01*
X99282522Y-113195767D01*
X99475027Y-112678200D01*
X99598880Y-112174914D01*
X99650438Y-111695992D01*
X99651751Y-111617888D01*
X99650389Y-111451912D01*
X99642746Y-111355242D01*
X99625183Y-111312557D01*
X99594063Y-111308538D01*
X99579447Y-111313372D01*
X99520128Y-111342830D01*
X99400849Y-111407175D01*
X99234995Y-111499007D01*
X99035954Y-111610922D01*
X98849197Y-111717158D01*
X98448775Y-111939938D01*
X98103908Y-112117496D01*
X97802283Y-112255226D01*
X97531587Y-112358523D01*
X97279507Y-112432783D01*
X97148419Y-112462379D01*
X96740617Y-112508186D01*
X96361171Y-112474490D01*
X96009874Y-112361173D01*
X95686523Y-112168117D01*
X95390910Y-111895204D01*
X95122829Y-111542315D01*
X94915863Y-111178209D01*
X94752137Y-110770886D01*
X94668938Y-110368892D01*
X94664965Y-109978511D01*
X94738922Y-109606028D01*
X94889508Y-109257727D01*
X95115426Y-108939891D01*
X95415377Y-108658806D01*
X95440480Y-108639638D01*
X95617730Y-108514221D01*
X95801737Y-108402560D01*
X96005860Y-108298770D01*
X96243460Y-108196964D01*
X96527899Y-108091260D01*
X96872538Y-107975772D01*
X97139444Y-107891339D01*
X97411334Y-107805827D01*
X97666602Y-107723809D01*
X97890328Y-107650214D01*
X98067591Y-107589971D01*
X98183468Y-107548009D01*
X98204727Y-107539427D01*
X98383878Y-107463167D01*
X98270471Y-107293834D01*
X97992731Y-106925809D01*
X97656717Y-106556534D01*
X97285338Y-106208795D01*
X96901504Y-105905383D01*
X96811984Y-105842985D01*
X96603694Y-105715360D01*
X96343392Y-105576021D01*
X96059765Y-105438867D01*
X95781499Y-105317800D01*
X95546334Y-105229711D01*
X95242071Y-105133416D01*
X94977214Y-105063059D01*
X94727110Y-105014896D01*
X94467106Y-104985185D01*
X94172552Y-104970182D01*
X93818796Y-104966144D01*
X93810667Y-104966149D01*
X93537119Y-104967184D01*
X93326861Y-104971366D01*
X93158521Y-104981134D01*
X93010724Y-104998927D01*
X92862098Y-105027182D01*
X92691268Y-105068340D01*
X92519500Y-105113461D01*
X92055139Y-105214950D01*
X91640444Y-105254859D01*
X91264202Y-105230449D01*
X90915203Y-105138981D01*
X90582231Y-104977716D01*
X90254077Y-104743916D01*
X89976828Y-104492312D01*
X89620127Y-104104225D01*
X89346340Y-103724864D01*
X89154579Y-103350891D01*
X89043955Y-102978972D01*
X89016414Y-102640603D01*
X90551000Y-102640603D01*
X90582482Y-102766072D01*
X90669825Y-102928885D01*
X90802376Y-103114003D01*
X90969482Y-103306382D01*
X91141087Y-103473725D01*
X91257824Y-103574714D01*
X91359965Y-103647012D01*
X91462035Y-103691797D01*
X91578561Y-103710249D01*
X91724068Y-103703546D01*
X91913082Y-103672867D01*
X92160129Y-103619390D01*
X92360068Y-103572643D01*
X93051715Y-103451623D01*
X93763333Y-103408472D01*
X94484637Y-103441982D01*
X95205343Y-103550945D01*
X95915166Y-103734153D01*
X96603822Y-103990397D01*
X96842040Y-104099074D01*
X97419769Y-104415388D01*
X97977627Y-104796940D01*
X98500908Y-105231106D01*
X98974904Y-105705263D01*
X99384905Y-106206787D01*
X99515425Y-106393729D01*
X99736571Y-106757619D01*
X99887474Y-107084198D01*
X99969346Y-107381573D01*
X99983397Y-107657853D01*
X99930840Y-107921144D01*
X99812885Y-108179554D01*
X99788326Y-108220500D01*
X99737267Y-108309281D01*
X99710820Y-108385546D01*
X99705922Y-108476443D01*
X99719511Y-108609119D01*
X99733405Y-108707334D01*
X99763871Y-108901233D01*
X99798075Y-109096190D01*
X99827672Y-109245481D01*
X99875000Y-109461461D01*
X100066468Y-109420625D01*
X100182943Y-109402115D01*
X100280913Y-109409005D01*
X100394243Y-109447259D01*
X100504940Y-109497847D01*
X100698844Y-109619986D01*
X100857193Y-109787445D01*
X100982081Y-110006308D01*
X101075603Y-110282661D01*
X101139853Y-110622588D01*
X101176927Y-111032174D01*
X101188863Y-111484834D01*
X101160350Y-112090972D01*
X101068699Y-112679045D01*
X100910418Y-113261456D01*
X100682014Y-113850603D01*
X100379993Y-114458889D01*
X100321432Y-114564463D01*
X99933976Y-115181190D01*
X99491524Y-115748404D01*
X98986448Y-116274393D01*
X98411124Y-116767444D01*
X98041136Y-117042368D01*
X97838266Y-117196578D01*
X97641156Y-117365617D01*
X97462837Y-117536360D01*
X97316338Y-117695684D01*
X97214689Y-117830464D01*
X97173083Y-117916716D01*
X97180989Y-118040356D01*
X97252803Y-118219064D01*
X97388382Y-118452538D01*
X97519448Y-118645993D01*
X97631871Y-118790057D01*
X97765217Y-118939053D01*
X97904322Y-119078509D01*
X98034025Y-119193955D01*
X98139164Y-119270922D01*
X98199825Y-119295334D01*
X98257625Y-119272975D01*
X98356633Y-119204401D01*
X98499321Y-119087367D01*
X98688165Y-118919627D01*
X98925639Y-118698935D01*
X99214215Y-118423046D01*
X99556368Y-118089713D01*
X99885500Y-117765155D01*
X100154562Y-117500591D01*
X100420584Y-117242574D01*
X100673784Y-117000335D01*
X100904382Y-116783103D01*
X101102596Y-116600110D01*
X101258644Y-116460585D01*
X101346000Y-116386906D01*
X101930998Y-115955329D01*
X102509825Y-115604175D01*
X103089790Y-115330281D01*
X103678202Y-115130483D01*
X104282370Y-115001619D01*
X104648000Y-114957683D01*
X104961863Y-114947565D01*
X105315712Y-114965083D01*
X105687442Y-115006734D01*
X106054950Y-115069013D01*
X106396132Y-115148416D01*
X106688884Y-115241439D01*
X106836917Y-115304682D01*
X107068338Y-115442373D01*
X107288084Y-115616678D01*
X107471474Y-115805883D01*
X107576557Y-115955396D01*
X107664077Y-116074589D01*
X107790219Y-116204894D01*
X107885582Y-116285259D01*
X108010291Y-116383309D01*
X108173444Y-116516982D01*
X108350158Y-116665701D01*
X108459852Y-116760120D01*
X108627088Y-116904222D01*
X108791627Y-117043657D01*
X108930793Y-117159322D01*
X108999668Y-117214890D01*
X109179979Y-117356946D01*
X109498082Y-117199768D01*
X109663715Y-117121219D01*
X109787487Y-117075736D01*
X109901922Y-117055944D01*
X110039541Y-117054470D01*
X110122987Y-117058083D01*
X110421995Y-117104161D01*
X110712040Y-117214230D01*
X110998819Y-117392303D01*
X111288030Y-117642397D01*
X111585372Y-117968525D01*
X111796031Y-118237000D01*
X111992052Y-118513508D01*
X112185747Y-118811474D01*
X112364440Y-119109674D01*
X112515458Y-119386885D01*
X112626126Y-119621883D01*
X112632972Y-119638507D01*
X112731006Y-119909795D01*
X112810842Y-120200916D01*
X112873365Y-120520893D01*
X112919463Y-120878753D01*
X112950019Y-121283521D01*
X112965920Y-121744221D01*
X112968052Y-122269880D01*
X112957300Y-122869522D01*
X112955725Y-122927611D01*
X112943952Y-123415375D01*
X112938511Y-123826236D01*
X112940156Y-124167771D01*
X112949639Y-124447559D01*
X112967713Y-124673179D01*
X112995132Y-124852209D01*
X113032648Y-124992228D01*
X113081013Y-125100815D01*
X113140982Y-125185548D01*
X113184416Y-125229514D01*
X113311459Y-125327360D01*
X113470415Y-125426478D01*
X113636737Y-125514014D01*
X113785876Y-125577112D01*
X113893286Y-125602918D01*
X113897638Y-125603000D01*
X114011720Y-125579689D01*
X114151193Y-125520244D01*
X114217629Y-125481787D01*
X114380315Y-125361304D01*
X114554504Y-125206926D01*
X114720640Y-125038636D01*
X114859167Y-124876412D01*
X114950528Y-124740238D01*
X114957992Y-124725342D01*
X114987415Y-124658711D01*
X115003525Y-124597404D01*
X115004874Y-124524252D01*
X114990015Y-124422086D01*
X114957502Y-124273737D01*
X114905887Y-124062037D01*
X114900124Y-124038760D01*
X114804610Y-123621958D01*
X114738327Y-123249542D01*
X114697209Y-122888052D01*
X114677192Y-122504027D01*
X114673596Y-122174000D01*
X114715731Y-121359806D01*
X114838350Y-120571693D01*
X115041333Y-119810058D01*
X115324563Y-119075296D01*
X115687920Y-118367802D01*
X115934276Y-117971702D01*
X116169376Y-117651162D01*
X116452722Y-117319751D01*
X116769099Y-116991655D01*
X117103291Y-116681060D01*
X117440084Y-116402151D01*
X117764263Y-116169115D01*
X118044459Y-116004275D01*
X118258975Y-115921862D01*
X118512099Y-115879418D01*
X118566424Y-115875237D01*
X118737249Y-115867863D01*
X118861564Y-115877855D01*
X118976953Y-115912752D01*
X119121000Y-115980091D01*
X119141841Y-115990630D01*
X119409001Y-116126233D01*
X119913084Y-115916361D01*
X120119833Y-115831506D01*
X120313078Y-115754384D01*
X120471546Y-115693349D01*
X120573962Y-115656751D01*
X120575917Y-115656128D01*
X120693972Y-115600529D01*
X120734548Y-115530958D01*
X120734667Y-115526376D01*
X120770038Y-115362284D01*
X120866219Y-115180388D01*
X121008314Y-115000788D01*
X121181426Y-114843584D01*
X121298218Y-114765943D01*
X121603327Y-114636592D01*
X121952449Y-114573254D01*
X122350347Y-114575216D01*
X122482789Y-114588781D01*
X123015640Y-114685200D01*
X123580896Y-114843862D01*
X124166896Y-115057920D01*
X124761979Y-115320526D01*
X125354482Y-115624832D01*
X125932745Y-115963990D01*
X126485107Y-116331153D01*
X126999905Y-116719474D01*
X127465479Y-117122103D01*
X127870167Y-117532194D01*
X128202308Y-117942899D01*
X128207765Y-117950558D01*
X128410106Y-118229132D01*
X128578033Y-118445386D01*
X128720619Y-118609644D01*
X128846939Y-118732229D01*
X128966065Y-118823467D01*
X128986857Y-118836985D01*
X129191338Y-118932523D01*
X129391648Y-118949866D01*
X129606365Y-118889887D01*
X129653401Y-118868337D01*
X129793919Y-118780223D01*
X129964469Y-118643673D01*
X130144432Y-118478090D01*
X130313185Y-118302881D01*
X130450107Y-118137451D01*
X130488904Y-118082100D01*
X130556078Y-117974596D01*
X130580547Y-117904120D01*
X130566771Y-117837388D01*
X130531427Y-117764746D01*
X130447344Y-117642395D01*
X130297254Y-117471602D01*
X130083179Y-117254334D01*
X129807139Y-116992555D01*
X129471156Y-116688230D01*
X129077249Y-116343326D01*
X129012428Y-116287469D01*
X128440529Y-115771585D01*
X127943797Y-115269005D01*
X127516063Y-114769514D01*
X127151158Y-114262902D01*
X126842913Y-113738957D01*
X126585160Y-113187464D01*
X126371729Y-112598214D01*
X126196452Y-111960992D01*
X126085757Y-111442500D01*
X126001829Y-110936801D01*
X125957239Y-110496017D01*
X125952421Y-110109867D01*
X125987805Y-109768068D01*
X126063824Y-109460337D01*
X126180912Y-109176392D01*
X126181058Y-109176099D01*
X126360825Y-108894125D01*
X126587614Y-108662010D01*
X126847394Y-108491503D01*
X127110964Y-108397500D01*
X127210552Y-108356222D01*
X127284422Y-108268403D01*
X127322480Y-108192957D01*
X127372866Y-108097354D01*
X127460312Y-107947972D01*
X127574745Y-107761365D01*
X127706090Y-107554089D01*
X127788325Y-107427451D01*
X128174785Y-106837990D01*
X128042476Y-106625149D01*
X127976866Y-106512176D01*
X127937395Y-106414415D01*
X127917525Y-106303381D01*
X127910716Y-106150587D01*
X127910167Y-106048738D01*
X127913498Y-105859305D01*
X127927830Y-105723889D01*
X127959667Y-105611960D01*
X128015516Y-105492989D01*
X128037167Y-105452748D01*
X128179241Y-105241689D01*
X128383235Y-105006058D01*
X128634891Y-104758234D01*
X128919951Y-104510595D01*
X129224156Y-104275519D01*
X129533249Y-104065385D01*
X129832970Y-103892569D01*
X129836334Y-103890833D01*
X130028707Y-103796055D01*
X130219497Y-103712571D01*
X130415757Y-103639389D01*
X130624542Y-103575515D01*
X130852906Y-103519955D01*
X131107902Y-103471717D01*
X131396585Y-103429806D01*
X131726008Y-103393230D01*
X132103225Y-103360994D01*
X132535291Y-103332106D01*
X133029260Y-103305572D01*
X133592184Y-103280399D01*
X134231119Y-103255593D01*
X134387167Y-103249921D01*
X134892449Y-103228334D01*
X135318550Y-103202485D01*
X135670875Y-103171746D01*
X135954831Y-103135487D01*
X136175825Y-103093079D01*
X136339263Y-103043891D01*
X136403954Y-103015088D01*
X136495090Y-102941403D01*
X136604780Y-102815324D01*
X136715842Y-102661210D01*
X136811089Y-102503421D01*
X136873337Y-102366316D01*
X136881844Y-102337672D01*
X136876797Y-102191695D01*
X136799812Y-102009898D01*
X136653435Y-101796712D01*
X136440216Y-101556566D01*
X136421923Y-101537918D01*
X136241802Y-101362803D01*
X136094508Y-101246042D01*
X135958341Y-101181218D01*
X135811598Y-101161916D01*
X135632580Y-101181719D01*
X135399585Y-101234212D01*
X135396945Y-101234871D01*
X135065517Y-101312223D01*
X134769994Y-101367164D01*
X134482132Y-101402980D01*
X134173687Y-101422958D01*
X133816416Y-101430386D01*
X133714476Y-101430667D01*
X132957939Y-101399092D01*
X132198834Y-101306780D01*
X131448377Y-101157355D01*
X130717783Y-100954438D01*
X130018269Y-100701650D01*
X129361050Y-100402614D01*
X128757344Y-100060952D01*
X128218365Y-99680285D01*
X128167470Y-99639409D01*
X127967193Y-99460499D01*
X127757821Y-99246266D01*
X127558587Y-99018638D01*
X127388724Y-98799547D01*
X127270826Y-98617039D01*
X127124427Y-98272003D01*
X127060763Y-97921098D01*
X127078951Y-97571728D01*
X127178106Y-97231299D01*
X127357346Y-96907216D01*
X127495868Y-96731667D01*
X127664444Y-96541167D01*
X127608372Y-96268369D01*
X127564906Y-96077561D01*
X127509049Y-95859439D01*
X127463281Y-95696869D01*
X127374261Y-95398167D01*
X127091881Y-95392560D01*
X126782091Y-95354454D01*
X126521641Y-95251070D01*
X126301767Y-95078712D01*
X126271819Y-95046764D01*
X126128380Y-94869516D01*
X126028666Y-94693726D01*
X125956621Y-94486642D01*
X125918260Y-94325600D01*
X125864636Y-93891711D01*
X125880966Y-93423341D01*
X125967704Y-92918460D01*
X126125306Y-92375036D01*
X126354223Y-91791038D01*
X126600696Y-91270128D01*
X126979502Y-90579852D01*
X127393465Y-89931794D01*
X127835886Y-89334298D01*
X128300061Y-88795706D01*
X128779289Y-88324361D01*
X129266868Y-87928607D01*
X129309538Y-87897971D01*
X129545795Y-87719382D01*
X129765364Y-87533326D01*
X129956800Y-87351211D01*
X130108661Y-87184449D01*
X130209501Y-87044449D01*
X130244246Y-86966014D01*
X130238743Y-86845264D01*
X130181376Y-86681106D01*
X130081697Y-86488404D01*
X129949260Y-86282027D01*
X129793620Y-86076841D01*
X129624329Y-85887714D01*
X129450942Y-85729512D01*
X129448308Y-85727410D01*
X129234006Y-85556781D01*
X129119243Y-85638499D01*
X129023736Y-85714662D01*
X128878579Y-85840924D01*
X128694079Y-86007604D01*
X128480540Y-86205017D01*
X128248265Y-86423480D01*
X128007561Y-86653310D01*
X127768732Y-86884825D01*
X127542081Y-87108340D01*
X127359834Y-87291800D01*
X126848344Y-87796126D01*
X126365867Y-88235095D01*
X125900630Y-88617546D01*
X125440860Y-88952316D01*
X124974786Y-89248246D01*
X124490635Y-89514173D01*
X124227167Y-89643845D01*
X123574158Y-89919370D01*
X122944696Y-90114656D01*
X122336686Y-90230154D01*
X121748031Y-90266314D01*
X121406938Y-90250442D01*
X121150185Y-90223639D01*
X120954551Y-90191038D01*
X120796490Y-90146491D01*
X120652455Y-90083852D01*
X120547642Y-90026108D01*
X120288927Y-89829780D01*
X120073197Y-89567777D01*
X119898269Y-89236656D01*
X119761958Y-88832970D01*
X119742103Y-88755386D01*
X119648413Y-88373444D01*
X118368627Y-87710270D01*
X118188087Y-87885478D01*
X117918452Y-88098150D01*
X117635565Y-88228007D01*
X117342815Y-88275250D01*
X117043589Y-88240079D01*
X116741276Y-88122695D01*
X116439263Y-87923298D01*
X116267230Y-87771752D01*
X115980158Y-87469550D01*
X115701247Y-87128567D01*
X115443520Y-86767849D01*
X115219998Y-86406443D01*
X115043704Y-86063398D01*
X114961536Y-85861892D01*
X114884103Y-85627325D01*
X114817387Y-85383183D01*
X114760339Y-85120542D01*
X114711907Y-84830480D01*
X114671043Y-84504071D01*
X114636695Y-84132395D01*
X114607813Y-83706526D01*
X114583346Y-83217542D01*
X114562245Y-82656518D01*
X114554270Y-82401834D01*
X114536764Y-81855442D01*
X114518303Y-81386782D01*
X114497437Y-80988918D01*
X114472715Y-80654918D01*
X114442687Y-80377845D01*
X114405902Y-80150767D01*
X114360910Y-79966750D01*
X114306261Y-79818858D01*
X114240503Y-79700158D01*
X114162187Y-79603716D01*
X114069861Y-79522597D01*
X113962076Y-79449867D01*
X113933151Y-79432540D01*
X113746430Y-79333839D01*
X113599234Y-79287486D01*
X113467711Y-79289681D01*
X113328720Y-79336313D01*
X113200575Y-79413267D01*
X113040379Y-79537191D01*
X112868968Y-79688937D01*
X112707181Y-79849357D01*
X112575854Y-79999305D01*
X112516122Y-80083012D01*
X112475100Y-80162339D01*
X112452101Y-80248972D01*
X112447824Y-80357624D01*
X112462969Y-80503004D01*
X112498236Y-80699824D01*
X112554324Y-80962795D01*
X112558960Y-80983667D01*
X112646446Y-81489948D01*
X112699698Y-82052931D01*
X112719415Y-82652196D01*
X112706299Y-83267320D01*
X112661047Y-83877881D01*
X112584361Y-84463460D01*
X112476939Y-85003633D01*
X112412889Y-85246961D01*
X112260194Y-85667744D01*
X112040832Y-86114037D01*
X111763465Y-86572691D01*
X111436751Y-87030557D01*
X111069352Y-87474487D01*
X110673611Y-87887765D01*
X110397398Y-88142602D01*
X110147356Y-88343365D01*
X109901797Y-88505826D01*
X109639038Y-88645756D01*
X109616774Y-88656379D01*
X109463224Y-88724793D01*
X109336531Y-88766018D01*
X109203989Y-88786763D01*
X109032891Y-88793733D01*
X108944834Y-88794167D01*
X108747866Y-88790783D01*
X108605742Y-88776809D01*
X108488779Y-88746516D01*
X108367292Y-88694169D01*
X108329587Y-88675371D01*
X108160316Y-88573598D01*
X107987300Y-88445200D01*
X107906253Y-88373642D01*
X107717167Y-88190708D01*
X107360502Y-88316334D01*
X107164320Y-88387875D01*
X106966772Y-88463921D01*
X106804739Y-88530196D01*
X106778418Y-88541650D01*
X106553000Y-88641341D01*
X106552967Y-88929421D01*
X106542680Y-89129651D01*
X106504419Y-89296707D01*
X106431284Y-89471500D01*
X106299718Y-89701446D01*
X106145084Y-89871501D01*
X105942206Y-90006415D01*
X105832065Y-90060612D01*
X105542005Y-90155506D01*
X105198008Y-90198518D01*
X104796866Y-90189580D01*
X104335371Y-90128625D01*
X103822500Y-90018616D01*
X103225391Y-89851672D01*
X102670866Y-89654934D01*
X102150476Y-89422484D01*
X101655774Y-89148407D01*
X101178313Y-88826784D01*
X100709643Y-88451697D01*
X100241318Y-88017230D01*
X99764889Y-87517465D01*
X99271910Y-86946484D01*
X99052661Y-86677500D01*
X98859721Y-86443044D01*
X98702311Y-86268985D01*
X98567780Y-86146099D01*
X98443473Y-86065165D01*
X98316738Y-86016960D01*
X98174922Y-85992263D01*
X98104589Y-85986473D01*
X97921461Y-85983844D01*
X97779366Y-86008115D01*
X97647393Y-86060976D01*
X97428888Y-86206360D01*
X97223666Y-86417324D01*
X97048656Y-86674857D01*
X96979907Y-86810419D01*
X96855909Y-87083890D01*
X96938803Y-87198195D01*
X97033697Y-87310584D01*
X97188572Y-87470442D01*
X97397490Y-87672109D01*
X97654508Y-87909925D01*
X97953688Y-88178229D01*
X98128667Y-88332036D01*
X98734229Y-88884525D01*
X99262392Y-89418171D01*
X99716862Y-89938424D01*
X100101347Y-90450731D01*
X100419555Y-90960541D01*
X100675192Y-91473300D01*
X100871967Y-91994458D01*
X101013588Y-92529461D01*
X101025972Y-92589463D01*
X101096067Y-93077090D01*
X101119910Y-93592391D01*
X101099300Y-94115471D01*
X101036041Y-94626435D01*
X100931932Y-95105389D01*
X100788774Y-95532438D01*
X100751776Y-95618428D01*
X100646680Y-95809946D01*
X100510091Y-96000469D01*
X100359760Y-96169406D01*
X100213438Y-96296163D01*
X100121769Y-96349244D01*
X100043614Y-96395338D01*
X100000341Y-96468888D01*
X99975154Y-96597128D01*
X99907456Y-96860760D01*
X99774809Y-97152828D01*
X99585458Y-97459217D01*
X99347652Y-97765813D01*
X99192831Y-97936035D01*
X98976376Y-98160776D01*
X99051645Y-98388138D01*
X99103562Y-98661063D01*
X99096008Y-98960150D01*
X99031747Y-99254160D01*
X98959403Y-99430668D01*
X98802985Y-99675700D01*
X98578402Y-99938010D01*
X98297927Y-100208452D01*
X97973832Y-100477880D01*
X97618390Y-100737146D01*
X97243873Y-100977105D01*
X96862553Y-101188609D01*
X96486704Y-101362514D01*
X96246304Y-101452686D01*
X96075028Y-101507102D01*
X95907104Y-101552645D01*
X95733425Y-101589997D01*
X95544882Y-101619836D01*
X95332367Y-101642842D01*
X95086773Y-101659693D01*
X94798990Y-101671069D01*
X94459912Y-101677649D01*
X94060430Y-101680112D01*
X93591435Y-101679138D01*
X93239167Y-101676941D01*
X92766765Y-101673797D01*
X92371265Y-101672422D01*
X92044909Y-101673525D01*
X91779940Y-101677817D01*
X91568599Y-101686006D01*
X91403128Y-101698804D01*
X91275770Y-101716919D01*
X91178766Y-101741061D01*
X91104359Y-101771942D01*
X91044791Y-101810270D01*
X90992303Y-101856755D01*
X90964576Y-101885075D01*
X90848923Y-102026064D01*
X90736889Y-102195795D01*
X90641326Y-102370791D01*
X90575084Y-102527575D01*
X90551000Y-102640603D01*
X89016414Y-102640603D01*
X89013578Y-102605772D01*
X89062560Y-102227954D01*
X89190013Y-101842184D01*
X89240718Y-101730032D01*
X89472178Y-101300551D01*
X89721423Y-100948323D01*
X89995535Y-100666617D01*
X90301597Y-100448698D01*
X90646694Y-100287834D01*
X90816188Y-100232387D01*
X90890033Y-100211960D01*
X90963819Y-100194901D01*
X91045676Y-100180893D01*
X91143733Y-100169616D01*
X91266121Y-100160754D01*
X91420969Y-100153989D01*
X91616407Y-100149001D01*
X91860565Y-100145474D01*
X92161572Y-100143090D01*
X92527558Y-100141530D01*
X92966654Y-100140477D01*
X93175667Y-100140108D01*
X93680714Y-100138966D01*
X94109332Y-100136858D01*
X94469755Y-100133033D01*
X94770220Y-100126741D01*
X95018963Y-100117230D01*
X95224220Y-100103750D01*
X95394227Y-100085550D01*
X95537221Y-100061880D01*
X95661437Y-100031988D01*
X95775112Y-99995123D01*
X95886481Y-99950535D01*
X96003782Y-99897473D01*
X96043763Y-99878653D01*
X96206899Y-99791570D01*
X96415137Y-99666107D01*
X96647225Y-99516476D01*
X96881914Y-99356887D01*
X97097952Y-99201551D01*
X97274088Y-99064679D01*
X97323118Y-99023117D01*
X97512402Y-98857298D01*
X97344284Y-98786219D01*
X97243021Y-98749560D01*
X97079689Y-98697410D01*
X96874103Y-98635813D01*
X96646076Y-98570812D01*
X96562334Y-98547748D01*
X96138392Y-98427825D01*
X95786599Y-98317672D01*
X95495729Y-98212318D01*
X95254560Y-98106788D01*
X95051865Y-97996110D01*
X94876422Y-97875312D01*
X94717004Y-97739420D01*
X94698602Y-97722039D01*
X94463010Y-97447635D01*
X94296278Y-97137626D01*
X94197850Y-96788604D01*
X94167172Y-96397166D01*
X94203686Y-95959905D01*
X94306837Y-95473417D01*
X94322251Y-95416666D01*
X94464152Y-95022683D01*
X94655969Y-94693810D01*
X94903447Y-94422927D01*
X95212333Y-94202913D01*
X95367462Y-94121211D01*
X95525092Y-94048629D01*
X95653735Y-94001365D01*
X95782263Y-93972886D01*
X95939544Y-93956663D01*
X96138568Y-93946786D01*
X96568248Y-93956106D01*
X96967874Y-94023177D01*
X97354911Y-94153378D01*
X97746825Y-94352090D01*
X98021674Y-94526805D01*
X98200430Y-94640543D01*
X98391170Y-94749180D01*
X98556791Y-94831765D01*
X98578242Y-94841061D01*
X98754665Y-94906335D01*
X98937712Y-94959377D01*
X99105753Y-94995495D01*
X99237157Y-95010001D01*
X99308469Y-94999419D01*
X99369551Y-94921263D01*
X99427077Y-94773799D01*
X99478788Y-94572372D01*
X99522427Y-94332332D01*
X99555734Y-94069025D01*
X99576453Y-93797799D01*
X99582325Y-93534001D01*
X99571092Y-93292979D01*
X99566346Y-93246672D01*
X99512125Y-92881079D01*
X99433495Y-92560247D01*
X99319320Y-92245313D01*
X99209708Y-92002178D01*
X99038298Y-91670927D01*
X98846361Y-91353813D01*
X98626426Y-91042064D01*
X98371018Y-90726907D01*
X98072664Y-90399573D01*
X97723891Y-90051287D01*
X97317226Y-89673278D01*
X96943334Y-89341959D01*
X96563402Y-89004043D01*
X96247995Y-88707784D01*
X95991606Y-88447255D01*
X95788726Y-88216533D01*
X95633850Y-88009692D01*
X95521468Y-87820807D01*
X95512189Y-87802341D01*
X95438289Y-87647035D01*
X95392331Y-87525612D01*
X95367791Y-87407819D01*
X95358149Y-87263401D01*
X95356828Y-87081616D01*
X95361194Y-86870501D01*
X95376903Y-86711146D01*
X95409700Y-86570829D01*
X95465333Y-86416828D01*
X95479846Y-86381167D01*
X95683327Y-85956669D01*
X95925018Y-85571352D01*
X96194362Y-85239839D01*
X96480799Y-84976751D01*
X96509518Y-84955107D01*
X96906728Y-84709199D01*
X97323144Y-84539711D01*
X97750069Y-84446399D01*
X98178802Y-84429018D01*
X98600645Y-84487324D01*
X99006900Y-84621071D01*
X99388866Y-84830016D01*
X99662906Y-85043745D01*
X99765133Y-85145270D01*
X99903840Y-85296435D01*
X100063723Y-85479900D01*
X100229474Y-85678326D01*
X100299998Y-85765503D01*
X100476556Y-85977390D01*
X100693847Y-86224728D01*
X100931166Y-86484712D01*
X101167811Y-86734536D01*
X101321209Y-86890394D01*
X101702233Y-87253636D01*
X102057369Y-87554328D01*
X102403559Y-87802954D01*
X102757751Y-88009996D01*
X103136887Y-88185938D01*
X103557913Y-88341263D01*
X103780167Y-88411667D01*
X104026451Y-88481633D01*
X104269700Y-88542398D01*
X104495249Y-88591163D01*
X104688436Y-88625130D01*
X104834598Y-88641502D01*
X104919071Y-88637480D01*
X104930865Y-88631247D01*
X104927104Y-88578429D01*
X104882543Y-88459582D01*
X104800347Y-88281036D01*
X104683683Y-88049118D01*
X104535715Y-87770155D01*
X104359611Y-87450477D01*
X104193128Y-87156634D01*
X104007308Y-86828083D01*
X103861942Y-86558810D01*
X103752261Y-86336516D01*
X103673494Y-86148904D01*
X103620869Y-85983674D01*
X103589616Y-85828530D01*
X103574964Y-85671174D01*
X103572044Y-85555667D01*
X103574149Y-85369267D01*
X103587607Y-85235579D01*
X103619486Y-85122755D01*
X103676855Y-84998948D01*
X103709107Y-84938132D01*
X103848799Y-84725107D01*
X104047206Y-84485486D01*
X104288875Y-84233510D01*
X104558353Y-83983419D01*
X104840189Y-83749454D01*
X105118928Y-83545857D01*
X105379120Y-83386867D01*
X105410000Y-83370617D01*
X105556469Y-83303503D01*
X105691332Y-83266556D01*
X105852358Y-83251502D01*
X105962544Y-83249567D01*
X106143271Y-83253889D01*
X106281370Y-83274553D01*
X106415918Y-83320949D01*
X106574565Y-83396667D01*
X106789282Y-83528595D01*
X107029140Y-83713836D01*
X107274356Y-83933936D01*
X107505147Y-84170442D01*
X107701730Y-84404902D01*
X107791980Y-84532222D01*
X107970469Y-84832846D01*
X108093227Y-85109120D01*
X108171002Y-85389130D01*
X108205718Y-85613538D01*
X108288279Y-86047500D01*
X108431188Y-86463288D01*
X108625945Y-86840128D01*
X108813759Y-87100055D01*
X108899711Y-87197126D01*
X108957456Y-87238783D01*
X109011847Y-87235588D01*
X109068646Y-87208373D01*
X109293486Y-87059410D01*
X109540411Y-86846891D01*
X109798210Y-86585103D01*
X110055674Y-86288335D01*
X110301591Y-85970876D01*
X110524753Y-85647013D01*
X110713947Y-85331036D01*
X110857966Y-85037232D01*
X110931239Y-84834344D01*
X111003136Y-84555894D01*
X111058826Y-84269098D01*
X111100407Y-83956714D01*
X111129981Y-83601504D01*
X111149646Y-83186228D01*
X111155337Y-82994398D01*
X111162085Y-82546880D01*
X111156530Y-82167333D01*
X111137322Y-81839771D01*
X111103110Y-81548209D01*
X111052546Y-81276662D01*
X110989074Y-81026000D01*
X110905433Y-80593518D01*
X110903623Y-80175562D01*
X110984018Y-79771290D01*
X111146990Y-79379862D01*
X111392913Y-79000437D01*
X111722157Y-78632173D01*
X112135098Y-78274231D01*
X112245603Y-78190576D01*
X112476052Y-78020334D01*
X114600157Y-78020334D01*
X114910550Y-78229784D01*
G37*
X114910550Y-78229784D02*
X115210754Y-78460171D01*
X115443618Y-78705458D01*
X115626386Y-78984362D01*
X115653648Y-79036334D01*
X115723500Y-79183910D01*
X115784874Y-79338678D01*
X115838608Y-79507586D01*
X115885536Y-79697581D01*
X115926496Y-79915608D01*
X115962322Y-80168615D01*
X115993850Y-80463548D01*
X116021918Y-80807356D01*
X116047360Y-81206983D01*
X116071012Y-81669378D01*
X116093711Y-82201486D01*
X116116292Y-82810256D01*
X116119763Y-82909834D01*
X116141305Y-83447493D01*
X116167546Y-83910275D01*
X116200964Y-84307942D01*
X116244034Y-84650254D01*
X116299232Y-84946972D01*
X116369036Y-85207858D01*
X116455923Y-85442671D01*
X116562367Y-85661173D01*
X116690847Y-85873125D01*
X116843837Y-86088288D01*
X116965925Y-86244895D01*
X117072188Y-86373369D01*
X117159782Y-86471653D01*
X117214772Y-86524410D01*
X117224366Y-86529334D01*
X117246172Y-86490983D01*
X117288483Y-86384308D01*
X117346790Y-86221868D01*
X117416588Y-86016227D01*
X117493366Y-85779945D01*
X117494012Y-85777917D01*
X117615511Y-85398124D01*
X117716358Y-85088136D01*
X117800568Y-84836765D01*
X117872158Y-84632823D01*
X117935146Y-84465121D01*
X117993546Y-84322472D01*
X118051376Y-84193688D01*
X118095983Y-84101103D01*
X118312897Y-83715958D01*
X118547720Y-83407317D01*
X118807229Y-83167752D01*
X119098199Y-82989837D01*
X119118586Y-82980124D01*
X119229635Y-82931456D01*
X119329988Y-82899306D01*
X119441718Y-82880411D01*
X119586898Y-82871508D01*
X119787601Y-82869336D01*
X119866834Y-82869528D01*
X120095117Y-82872454D01*
X120269323Y-82882435D01*
X120420014Y-82904457D01*
X120577753Y-82943507D01*
X120773105Y-83004570D01*
X120849190Y-83029786D01*
X121218484Y-83175141D01*
X121514476Y-83344212D01*
X121747261Y-83546110D01*
X121926935Y-83789945D01*
X122063593Y-84084826D01*
X122084610Y-84144646D01*
X122185644Y-84569443D01*
X122207755Y-85011544D01*
X122150598Y-85472639D01*
X122013824Y-85954420D01*
X121797087Y-86458575D01*
X121501383Y-86984639D01*
X121328134Y-87340663D01*
X121228650Y-87726992D01*
X121207587Y-88125025D01*
X121209158Y-88152672D01*
X121227518Y-88325060D01*
X121256611Y-88480824D01*
X121289015Y-88583332D01*
X121324587Y-88647963D01*
X121368907Y-88686692D01*
X121443424Y-88707423D01*
X121569587Y-88718055D01*
X121666415Y-88722366D01*
X122122558Y-88702434D01*
X122609331Y-88608787D01*
X123120785Y-88444068D01*
X123650970Y-88210917D01*
X124193936Y-87911976D01*
X124743733Y-87549887D01*
X125294411Y-87127291D01*
X125335143Y-87093595D01*
X125485807Y-86962524D01*
X125680711Y-86784208D01*
X125905370Y-86572394D01*
X126145303Y-86340830D01*
X126386027Y-86103263D01*
X126513167Y-85975377D01*
X126949899Y-85538421D01*
X127337195Y-85163475D01*
X127679275Y-84847054D01*
X127980358Y-84585674D01*
X128244666Y-84375852D01*
X128476419Y-84214102D01*
X128679836Y-84096941D01*
X128859138Y-84020884D01*
X128893970Y-84009854D01*
X129158345Y-83974028D01*
X129448715Y-84011273D01*
X129757225Y-84117057D01*
X130076014Y-84286850D01*
X130397226Y-84516117D01*
X130713002Y-84800328D01*
X131015486Y-85134949D01*
X131154946Y-85313891D01*
X131435077Y-85731278D01*
X131638586Y-86128381D01*
X131764692Y-86508736D01*
X131812616Y-86875879D01*
X131781575Y-87233348D01*
X131670791Y-87584677D01*
X131479483Y-87933404D01*
X131206870Y-88283066D01*
X130852172Y-88637197D01*
X130414609Y-88999335D01*
X130327043Y-89065601D01*
X129888121Y-89415081D01*
X129507247Y-89768037D01*
X129160332Y-90148488D01*
X128866227Y-90522111D01*
X128472651Y-91088996D01*
X128133000Y-91653762D01*
X127851258Y-92207936D01*
X127631410Y-92743045D01*
X127477438Y-93250614D01*
X127404307Y-93631603D01*
X127379727Y-93812372D01*
X127687280Y-93657682D01*
X127836259Y-93579919D01*
X128035819Y-93471769D01*
X128263473Y-93345615D01*
X128496731Y-93213838D01*
X128579395Y-93166458D01*
X129040885Y-92910472D01*
X129447372Y-92707315D01*
X129807899Y-92554443D01*
X130131510Y-92449312D01*
X130427249Y-92389375D01*
X130704160Y-92372088D01*
X130971286Y-92394906D01*
X131171523Y-92437035D01*
X131492036Y-92555410D01*
X131781843Y-92738489D01*
X132048920Y-92992656D01*
X132301250Y-93324295D01*
X132324304Y-93359386D01*
X132556736Y-93780170D01*
X132706170Y-94194553D01*
X132773919Y-94597967D01*
X132761298Y-94985842D01*
X132669620Y-95353612D01*
X132500200Y-95696707D01*
X132254351Y-96010559D01*
X131933387Y-96290601D01*
X131538623Y-96532263D01*
X131391274Y-96603311D01*
X131248927Y-96661798D01*
X131049178Y-96735763D01*
X130815841Y-96816760D01*
X130572728Y-96896340D01*
X130508543Y-96916475D01*
X130125006Y-97038065D01*
X129810360Y-97143804D01*
X129551403Y-97238550D01*
X129334931Y-97327162D01*
X129147740Y-97414499D01*
X129127313Y-97424772D01*
X128960507Y-97520769D01*
X128809181Y-97628177D01*
X128690132Y-97732962D01*
X128620157Y-97821087D01*
X128608667Y-97858163D01*
X128639312Y-97921071D01*
X128722165Y-98023923D01*
X128843602Y-98153420D01*
X128989997Y-98296266D01*
X129147727Y-98439162D01*
X129303166Y-98568811D01*
X129441858Y-98671355D01*
X129923845Y-98957815D01*
X130470132Y-99215761D01*
X131063700Y-99440253D01*
X131687530Y-99626351D01*
X132324603Y-99769114D01*
X132957900Y-99863602D01*
X133570402Y-99904874D01*
X133696187Y-99906319D01*
X134137089Y-99887296D01*
X134599004Y-99827302D01*
X135105512Y-99723196D01*
X135149167Y-99712747D01*
X135518182Y-99639968D01*
X135837025Y-99615052D01*
X136125163Y-99637708D01*
X136361791Y-99694560D01*
X136659520Y-99808963D01*
X136935125Y-99963402D01*
X137210648Y-100171628D01*
X137400360Y-100342548D01*
X137769308Y-100727170D01*
X138055367Y-101103420D01*
X138259471Y-101474857D01*
X138382553Y-101845040D01*
X138425545Y-102217529D01*
X138389381Y-102595881D01*
X138274994Y-102983658D01*
X138160165Y-103240413D01*
X137928878Y-103639845D01*
X137671225Y-103963951D01*
X137377274Y-104220460D01*
X137037090Y-104417104D01*
X136640740Y-104561613D01*
X136381666Y-104624491D01*
X136194316Y-104659839D01*
X135993800Y-104690351D01*
X135770411Y-104716749D01*
X135514440Y-104739754D01*
X135216179Y-104760088D01*
X134865920Y-104778475D01*
X134453954Y-104795635D01*
X133970573Y-104812291D01*
X133774509Y-104818384D01*
X133192897Y-104837770D01*
X132687688Y-104859382D01*
X132250615Y-104885092D01*
X131873415Y-104916772D01*
X131547824Y-104956293D01*
X131265577Y-105005528D01*
X131018409Y-105066347D01*
X130798056Y-105140623D01*
X130596255Y-105230226D01*
X130404739Y-105337030D01*
X130215246Y-105462904D01*
X130019511Y-105609722D01*
X129915866Y-105692259D01*
X129786215Y-105798848D01*
X129686264Y-105884516D01*
X129630983Y-105936269D01*
X129624667Y-105944983D01*
X129635535Y-105958597D01*
X129673372Y-105978689D01*
X129746025Y-106007981D01*
X129861342Y-106049192D01*
X130027173Y-106105042D01*
X130251364Y-106178253D01*
X130541764Y-106271543D01*
X130852334Y-106370507D01*
X131285486Y-106511454D01*
X131646452Y-106636937D01*
X131945277Y-106751653D01*
X132192006Y-106860299D01*
X132396684Y-106967572D01*
X132569356Y-107078168D01*
X132720067Y-107196785D01*
X132822620Y-107291756D01*
X132992506Y-107474356D01*
X133115739Y-107650253D01*
X133198881Y-107838237D01*
X133248494Y-108057098D01*
X133271140Y-108325625D01*
X133274280Y-108585000D01*
X133250891Y-109048779D01*
X133185960Y-109446632D01*
X133076025Y-109788253D01*
X132917626Y-110083337D01*
X132707301Y-110341577D01*
X132615507Y-110429837D01*
X132331552Y-110636943D01*
X132010141Y-110776088D01*
X131646620Y-110848277D01*
X131236332Y-110854516D01*
X130855011Y-110810007D01*
X130631207Y-110769382D01*
X130415966Y-110722508D01*
X130194832Y-110665050D01*
X129953347Y-110592673D01*
X129677055Y-110501042D01*
X129351499Y-110385822D01*
X128962221Y-110242680D01*
X128959543Y-110241683D01*
X128535043Y-110089348D01*
X128184622Y-109975955D01*
X127908493Y-109901555D01*
X127706869Y-109866202D01*
X127579963Y-109869948D01*
X127540697Y-109890037D01*
X127510297Y-109967838D01*
X127496097Y-110114031D01*
X127497337Y-110314057D01*
X127513255Y-110553355D01*
X127543093Y-110817368D01*
X127586091Y-111091537D01*
X127609931Y-111216323D01*
X127729010Y-111739586D01*
X127867220Y-112214465D01*
X128031051Y-112651079D01*
X128226995Y-113059552D01*
X128461541Y-113450005D01*
X128741182Y-113832560D01*
X129072407Y-114217339D01*
X129461708Y-114614463D01*
X129915577Y-115034055D01*
X130238500Y-115315270D01*
X130678542Y-115699844D01*
X131051068Y-116045334D01*
X131360230Y-116357732D01*
X131610184Y-116643030D01*
X131805081Y-116907220D01*
X131949075Y-117156294D01*
X132046321Y-117396244D01*
X132100970Y-117633063D01*
X132117177Y-117872743D01*
X132110547Y-118016058D01*
X132064823Y-118305882D01*
X131973487Y-118580171D01*
X131829325Y-118852349D01*
X131625122Y-119135841D01*
X131353664Y-119444071D01*
X131329277Y-119469729D01*
X130928936Y-119846221D01*
X130527537Y-120138596D01*
X130125390Y-120346766D01*
X129722803Y-120470645D01*
X129320088Y-120510146D01*
X128917554Y-120465180D01*
X128515511Y-120335662D01*
X128414548Y-120289789D01*
X128153155Y-120134430D01*
X127874030Y-119915937D01*
X127592987Y-119648916D01*
X127325839Y-119347971D01*
X127160135Y-119131332D01*
X126976301Y-118877939D01*
X126824462Y-118678543D01*
X126690038Y-118516432D01*
X126558451Y-118374897D01*
X126415124Y-118237227D01*
X126259167Y-118098581D01*
X125816479Y-117745724D01*
X125316083Y-117401705D01*
X124776651Y-117076512D01*
X124216856Y-116780132D01*
X123655371Y-116522552D01*
X123110866Y-116313760D01*
X122676981Y-116182533D01*
X122540142Y-116150606D01*
X122439441Y-116133721D01*
X122399433Y-116134789D01*
X122408058Y-116184073D01*
X122460031Y-116304951D01*
X122554911Y-116496556D01*
X122692257Y-116758019D01*
X122871626Y-117088471D01*
X123036076Y-117385753D01*
X123265385Y-117814721D01*
X123444425Y-118190599D01*
X123577278Y-118525216D01*
X123668026Y-118830400D01*
X123720754Y-119117978D01*
X123739544Y-119399778D01*
X123739708Y-119424023D01*
X123703704Y-119832712D01*
X123592726Y-120203238D01*
X123405230Y-120539579D01*
X123220039Y-120764874D01*
X122907279Y-121038932D01*
X122539886Y-121255083D01*
X122215927Y-121384795D01*
X121784790Y-121494313D01*
X121382345Y-121524394D01*
X121007109Y-121474710D01*
X120657598Y-121344930D01*
X120332329Y-121134726D01*
X120093000Y-120913141D01*
X119912028Y-120700743D01*
X119751592Y-120464838D01*
X119604703Y-120191776D01*
X119464371Y-119867910D01*
X119323608Y-119479592D01*
X119260668Y-119287712D01*
X119159312Y-118983483D01*
X119050119Y-118677753D01*
X118938660Y-118384313D01*
X118830508Y-118116953D01*
X118731233Y-117889461D01*
X118646409Y-117715627D01*
X118583431Y-117611617D01*
X118510344Y-117515400D01*
X118124817Y-117831743D01*
X117681801Y-118248872D01*
X117289601Y-118727971D01*
X116951906Y-119260675D01*
X116672404Y-119838615D01*
X116454784Y-120453425D01*
X116302733Y-121096737D01*
X116219940Y-121760186D01*
X116205000Y-122186953D01*
X116216482Y-122585380D01*
X116253875Y-122962565D01*
X116321597Y-123350985D01*
X116420150Y-123768069D01*
X116506260Y-124166126D01*
X116540762Y-124514801D01*
X116522116Y-124832989D01*
X116448779Y-125139583D01*
X116319211Y-125453479D01*
X116275662Y-125539500D01*
X116171523Y-125701229D01*
X116015424Y-125897100D01*
X115823319Y-126110693D01*
X115611159Y-126325587D01*
X115394897Y-126525364D01*
X115190485Y-126693603D01*
X115073270Y-126777126D01*
X114713408Y-126969858D01*
X114332643Y-127094111D01*
X113947423Y-127146076D01*
X113580334Y-127123006D01*
X113377444Y-127069625D01*
X113134963Y-126977342D01*
X112880670Y-126858534D01*
X112642343Y-126725581D01*
X112540978Y-126659827D01*
X112431898Y-126582266D01*
X112381663Y-126530729D01*
X112379222Y-126483454D01*
X112413524Y-126418684D01*
X112416242Y-126414206D01*
X112484692Y-126301500D01*
X112398441Y-126400294D01*
X112312190Y-126499087D01*
X112190834Y-126412674D01*
X112032852Y-126271132D01*
X111870809Y-126077030D01*
X111726401Y-125858460D01*
X111650861Y-125713507D01*
X111596963Y-125591773D01*
X111551491Y-125475962D01*
X111513725Y-125357803D01*
X111482945Y-125229020D01*
X111458431Y-125081342D01*
X111439463Y-124906494D01*
X111425322Y-124696204D01*
X111415288Y-124442198D01*
X111408640Y-124136203D01*
X111404660Y-123769945D01*
X111402628Y-123335151D01*
X111401845Y-122851334D01*
X111401349Y-122367046D01*
X111400200Y-121958872D01*
X111397594Y-121618261D01*
X111392726Y-121336660D01*
X111384791Y-121105518D01*
X111372984Y-120916282D01*
X111356499Y-120760400D01*
X111334533Y-120629320D01*
X111306279Y-120514490D01*
X111270934Y-120407359D01*
X111227692Y-120299373D01*
X111175748Y-120181981D01*
X111144027Y-120112175D01*
X111060010Y-119946184D01*
X110948733Y-119753098D01*
X110819061Y-119545535D01*
X110679861Y-119336117D01*
X110539998Y-119137462D01*
X110408337Y-118962190D01*
X110293744Y-118822920D01*
X110205084Y-118732273D01*
X110153816Y-118702667D01*
X110114274Y-118741456D01*
X110056447Y-118850021D01*
X109985064Y-119016659D01*
X109904853Y-119229666D01*
X109820544Y-119477341D01*
X109751847Y-119697500D01*
X109586363Y-120213221D01*
X109421158Y-120650365D01*
X109252438Y-121014926D01*
X109076411Y-121312897D01*
X108889285Y-121550270D01*
X108687266Y-121733038D01*
X108466563Y-121867194D01*
X108346222Y-121918588D01*
X108073439Y-121986246D01*
X107749197Y-122010753D01*
X107393611Y-121994186D01*
X107026795Y-121938622D01*
X106668865Y-121846140D01*
X106339935Y-121718817D01*
X106319848Y-121709293D01*
X105962169Y-121497337D01*
X105675200Y-121238863D01*
X105458859Y-120933741D01*
X105313067Y-120581838D01*
X105237745Y-120183023D01*
X105226424Y-119909167D01*
X105240001Y-119634305D01*
X105278820Y-119367206D01*
X105347504Y-119092637D01*
X105450674Y-118795368D01*
X105592951Y-118460167D01*
X105778957Y-118071800D01*
X105791597Y-118046500D01*
X105964346Y-117694579D01*
X106096130Y-117408502D01*
X106188780Y-117181061D01*
X106244129Y-117005048D01*
X106264012Y-116873255D01*
X106250260Y-116778474D01*
X106204707Y-116713496D01*
X106140250Y-116675442D01*
X105963668Y-116620501D01*
X105727858Y-116571962D01*
X105458216Y-116533536D01*
X105180137Y-116508934D01*
X104951193Y-116501664D01*
X104451452Y-116539409D01*
X103960130Y-116653331D01*
X103470460Y-116845689D01*
X102975672Y-117118742D01*
X102842297Y-117205274D01*
X102613873Y-117364213D01*
X102386462Y-117536232D01*
X102151105Y-117729303D01*
X101898842Y-117951401D01*
X101620713Y-118210499D01*
X101307757Y-118514571D01*
X100951017Y-118871590D01*
X100816834Y-119007804D01*
X100384434Y-119441126D01*
X100000080Y-119811107D01*
X99659670Y-120121115D01*
X99359108Y-120374513D01*
X99094295Y-120574668D01*
X98861131Y-120724944D01*
X98655519Y-120828706D01*
X98552000Y-120867391D01*
X98283989Y-120910256D01*
X97992249Y-120877689D01*
X97683054Y-120773429D01*
X97362679Y-120601215D01*
X97037398Y-120364787D01*
X96713485Y-120067884D01*
X96397216Y-119714246D01*
X96210447Y-119471884D01*
X95940528Y-119051047D01*
X95754076Y-118643137D01*
X95650993Y-118247470D01*
X95631180Y-117863359D01*
X95694540Y-117490118D01*
X95840975Y-117127063D01*
X95867879Y-117077403D01*
X96024115Y-116841997D01*
X96236998Y-116584919D01*
X96488821Y-116324987D01*
X96761872Y-116081020D01*
X96929171Y-115949652D01*
X97117335Y-115809775D01*
X97305559Y-115669478D01*
X97469650Y-115546812D01*
X97568732Y-115472419D01*
X97780849Y-115293552D01*
X98017726Y-115062154D01*
X98260802Y-114798442D01*
X98491521Y-114522630D01*
X98691323Y-114254936D01*
X98706138Y-114233421D01*
X99025010Y-113717535D01*
X99282522Y-113195767D01*
X99475027Y-112678200D01*
X99598880Y-112174914D01*
X99650438Y-111695992D01*
X99651751Y-111617888D01*
X99650389Y-111451912D01*
X99642746Y-111355242D01*
X99625183Y-111312557D01*
X99594063Y-111308538D01*
X99579447Y-111313372D01*
X99520128Y-111342830D01*
X99400849Y-111407175D01*
X99234995Y-111499007D01*
X99035954Y-111610922D01*
X98849197Y-111717158D01*
X98448775Y-111939938D01*
X98103908Y-112117496D01*
X97802283Y-112255226D01*
X97531587Y-112358523D01*
X97279507Y-112432783D01*
X97148419Y-112462379D01*
X96740617Y-112508186D01*
X96361171Y-112474490D01*
X96009874Y-112361173D01*
X95686523Y-112168117D01*
X95390910Y-111895204D01*
X95122829Y-111542315D01*
X94915863Y-111178209D01*
X94752137Y-110770886D01*
X94668938Y-110368892D01*
X94664965Y-109978511D01*
X94738922Y-109606028D01*
X94889508Y-109257727D01*
X95115426Y-108939891D01*
X95415377Y-108658806D01*
X95440480Y-108639638D01*
X95617730Y-108514221D01*
X95801737Y-108402560D01*
X96005860Y-108298770D01*
X96243460Y-108196964D01*
X96527899Y-108091260D01*
X96872538Y-107975772D01*
X97139444Y-107891339D01*
X97411334Y-107805827D01*
X97666602Y-107723809D01*
X97890328Y-107650214D01*
X98067591Y-107589971D01*
X98183468Y-107548009D01*
X98204727Y-107539427D01*
X98383878Y-107463167D01*
X98270471Y-107293834D01*
X97992731Y-106925809D01*
X97656717Y-106556534D01*
X97285338Y-106208795D01*
X96901504Y-105905383D01*
X96811984Y-105842985D01*
X96603694Y-105715360D01*
X96343392Y-105576021D01*
X96059765Y-105438867D01*
X95781499Y-105317800D01*
X95546334Y-105229711D01*
X95242071Y-105133416D01*
X94977214Y-105063059D01*
X94727110Y-105014896D01*
X94467106Y-104985185D01*
X94172552Y-104970182D01*
X93818796Y-104966144D01*
X93810667Y-104966149D01*
X93537119Y-104967184D01*
X93326861Y-104971366D01*
X93158521Y-104981134D01*
X93010724Y-104998927D01*
X92862098Y-105027182D01*
X92691268Y-105068340D01*
X92519500Y-105113461D01*
X92055139Y-105214950D01*
X91640444Y-105254859D01*
X91264202Y-105230449D01*
X90915203Y-105138981D01*
X90582231Y-104977716D01*
X90254077Y-104743916D01*
X89976828Y-104492312D01*
X89620127Y-104104225D01*
X89346340Y-103724864D01*
X89154579Y-103350891D01*
X89043955Y-102978972D01*
X89016414Y-102640603D01*
X90551000Y-102640603D01*
X90582482Y-102766072D01*
X90669825Y-102928885D01*
X90802376Y-103114003D01*
X90969482Y-103306382D01*
X91141087Y-103473725D01*
X91257824Y-103574714D01*
X91359965Y-103647012D01*
X91462035Y-103691797D01*
X91578561Y-103710249D01*
X91724068Y-103703546D01*
X91913082Y-103672867D01*
X92160129Y-103619390D01*
X92360068Y-103572643D01*
X93051715Y-103451623D01*
X93763333Y-103408472D01*
X94484637Y-103441982D01*
X95205343Y-103550945D01*
X95915166Y-103734153D01*
X96603822Y-103990397D01*
X96842040Y-104099074D01*
X97419769Y-104415388D01*
X97977627Y-104796940D01*
X98500908Y-105231106D01*
X98974904Y-105705263D01*
X99384905Y-106206787D01*
X99515425Y-106393729D01*
X99736571Y-106757619D01*
X99887474Y-107084198D01*
X99969346Y-107381573D01*
X99983397Y-107657853D01*
X99930840Y-107921144D01*
X99812885Y-108179554D01*
X99788326Y-108220500D01*
X99737267Y-108309281D01*
X99710820Y-108385546D01*
X99705922Y-108476443D01*
X99719511Y-108609119D01*
X99733405Y-108707334D01*
X99763871Y-108901233D01*
X99798075Y-109096190D01*
X99827672Y-109245481D01*
X99875000Y-109461461D01*
X100066468Y-109420625D01*
X100182943Y-109402115D01*
X100280913Y-109409005D01*
X100394243Y-109447259D01*
X100504940Y-109497847D01*
X100698844Y-109619986D01*
X100857193Y-109787445D01*
X100982081Y-110006308D01*
X101075603Y-110282661D01*
X101139853Y-110622588D01*
X101176927Y-111032174D01*
X101188863Y-111484834D01*
X101160350Y-112090972D01*
X101068699Y-112679045D01*
X100910418Y-113261456D01*
X100682014Y-113850603D01*
X100379993Y-114458889D01*
X100321432Y-114564463D01*
X99933976Y-115181190D01*
X99491524Y-115748404D01*
X98986448Y-116274393D01*
X98411124Y-116767444D01*
X98041136Y-117042368D01*
X97838266Y-117196578D01*
X97641156Y-117365617D01*
X97462837Y-117536360D01*
X97316338Y-117695684D01*
X97214689Y-117830464D01*
X97173083Y-117916716D01*
X97180989Y-118040356D01*
X97252803Y-118219064D01*
X97388382Y-118452538D01*
X97519448Y-118645993D01*
X97631871Y-118790057D01*
X97765217Y-118939053D01*
X97904322Y-119078509D01*
X98034025Y-119193955D01*
X98139164Y-119270922D01*
X98199825Y-119295334D01*
X98257625Y-119272975D01*
X98356633Y-119204401D01*
X98499321Y-119087367D01*
X98688165Y-118919627D01*
X98925639Y-118698935D01*
X99214215Y-118423046D01*
X99556368Y-118089713D01*
X99885500Y-117765155D01*
X100154562Y-117500591D01*
X100420584Y-117242574D01*
X100673784Y-117000335D01*
X100904382Y-116783103D01*
X101102596Y-116600110D01*
X101258644Y-116460585D01*
X101346000Y-116386906D01*
X101930998Y-115955329D01*
X102509825Y-115604175D01*
X103089790Y-115330281D01*
X103678202Y-115130483D01*
X104282370Y-115001619D01*
X104648000Y-114957683D01*
X104961863Y-114947565D01*
X105315712Y-114965083D01*
X105687442Y-115006734D01*
X106054950Y-115069013D01*
X106396132Y-115148416D01*
X106688884Y-115241439D01*
X106836917Y-115304682D01*
X107068338Y-115442373D01*
X107288084Y-115616678D01*
X107471474Y-115805883D01*
X107576557Y-115955396D01*
X107664077Y-116074589D01*
X107790219Y-116204894D01*
X107885582Y-116285259D01*
X108010291Y-116383309D01*
X108173444Y-116516982D01*
X108350158Y-116665701D01*
X108459852Y-116760120D01*
X108627088Y-116904222D01*
X108791627Y-117043657D01*
X108930793Y-117159322D01*
X108999668Y-117214890D01*
X109179979Y-117356946D01*
X109498082Y-117199768D01*
X109663715Y-117121219D01*
X109787487Y-117075736D01*
X109901922Y-117055944D01*
X110039541Y-117054470D01*
X110122987Y-117058083D01*
X110421995Y-117104161D01*
X110712040Y-117214230D01*
X110998819Y-117392303D01*
X111288030Y-117642397D01*
X111585372Y-117968525D01*
X111796031Y-118237000D01*
X111992052Y-118513508D01*
X112185747Y-118811474D01*
X112364440Y-119109674D01*
X112515458Y-119386885D01*
X112626126Y-119621883D01*
X112632972Y-119638507D01*
X112731006Y-119909795D01*
X112810842Y-120200916D01*
X112873365Y-120520893D01*
X112919463Y-120878753D01*
X112950019Y-121283521D01*
X112965920Y-121744221D01*
X112968052Y-122269880D01*
X112957300Y-122869522D01*
X112955725Y-122927611D01*
X112943952Y-123415375D01*
X112938511Y-123826236D01*
X112940156Y-124167771D01*
X112949639Y-124447559D01*
X112967713Y-124673179D01*
X112995132Y-124852209D01*
X113032648Y-124992228D01*
X113081013Y-125100815D01*
X113140982Y-125185548D01*
X113184416Y-125229514D01*
X113311459Y-125327360D01*
X113470415Y-125426478D01*
X113636737Y-125514014D01*
X113785876Y-125577112D01*
X113893286Y-125602918D01*
X113897638Y-125603000D01*
X114011720Y-125579689D01*
X114151193Y-125520244D01*
X114217629Y-125481787D01*
X114380315Y-125361304D01*
X114554504Y-125206926D01*
X114720640Y-125038636D01*
X114859167Y-124876412D01*
X114950528Y-124740238D01*
X114957992Y-124725342D01*
X114987415Y-124658711D01*
X115003525Y-124597404D01*
X115004874Y-124524252D01*
X114990015Y-124422086D01*
X114957502Y-124273737D01*
X114905887Y-124062037D01*
X114900124Y-124038760D01*
X114804610Y-123621958D01*
X114738327Y-123249542D01*
X114697209Y-122888052D01*
X114677192Y-122504027D01*
X114673596Y-122174000D01*
X114715731Y-121359806D01*
X114838350Y-120571693D01*
X115041333Y-119810058D01*
X115324563Y-119075296D01*
X115687920Y-118367802D01*
X115934276Y-117971702D01*
X116169376Y-117651162D01*
X116452722Y-117319751D01*
X116769099Y-116991655D01*
X117103291Y-116681060D01*
X117440084Y-116402151D01*
X117764263Y-116169115D01*
X118044459Y-116004275D01*
X118258975Y-115921862D01*
X118512099Y-115879418D01*
X118566424Y-115875237D01*
X118737249Y-115867863D01*
X118861564Y-115877855D01*
X118976953Y-115912752D01*
X119121000Y-115980091D01*
X119141841Y-115990630D01*
X119409001Y-116126233D01*
X119913084Y-115916361D01*
X120119833Y-115831506D01*
X120313078Y-115754384D01*
X120471546Y-115693349D01*
X120573962Y-115656751D01*
X120575917Y-115656128D01*
X120693972Y-115600529D01*
X120734548Y-115530958D01*
X120734667Y-115526376D01*
X120770038Y-115362284D01*
X120866219Y-115180388D01*
X121008314Y-115000788D01*
X121181426Y-114843584D01*
X121298218Y-114765943D01*
X121603327Y-114636592D01*
X121952449Y-114573254D01*
X122350347Y-114575216D01*
X122482789Y-114588781D01*
X123015640Y-114685200D01*
X123580896Y-114843862D01*
X124166896Y-115057920D01*
X124761979Y-115320526D01*
X125354482Y-115624832D01*
X125932745Y-115963990D01*
X126485107Y-116331153D01*
X126999905Y-116719474D01*
X127465479Y-117122103D01*
X127870167Y-117532194D01*
X128202308Y-117942899D01*
X128207765Y-117950558D01*
X128410106Y-118229132D01*
X128578033Y-118445386D01*
X128720619Y-118609644D01*
X128846939Y-118732229D01*
X128966065Y-118823467D01*
X128986857Y-118836985D01*
X129191338Y-118932523D01*
X129391648Y-118949866D01*
X129606365Y-118889887D01*
X129653401Y-118868337D01*
X129793919Y-118780223D01*
X129964469Y-118643673D01*
X130144432Y-118478090D01*
X130313185Y-118302881D01*
X130450107Y-118137451D01*
X130488904Y-118082100D01*
X130556078Y-117974596D01*
X130580547Y-117904120D01*
X130566771Y-117837388D01*
X130531427Y-117764746D01*
X130447344Y-117642395D01*
X130297254Y-117471602D01*
X130083179Y-117254334D01*
X129807139Y-116992555D01*
X129471156Y-116688230D01*
X129077249Y-116343326D01*
X129012428Y-116287469D01*
X128440529Y-115771585D01*
X127943797Y-115269005D01*
X127516063Y-114769514D01*
X127151158Y-114262902D01*
X126842913Y-113738957D01*
X126585160Y-113187464D01*
X126371729Y-112598214D01*
X126196452Y-111960992D01*
X126085757Y-111442500D01*
X126001829Y-110936801D01*
X125957239Y-110496017D01*
X125952421Y-110109867D01*
X125987805Y-109768068D01*
X126063824Y-109460337D01*
X126180912Y-109176392D01*
X126181058Y-109176099D01*
X126360825Y-108894125D01*
X126587614Y-108662010D01*
X126847394Y-108491503D01*
X127110964Y-108397500D01*
X127210552Y-108356222D01*
X127284422Y-108268403D01*
X127322480Y-108192957D01*
X127372866Y-108097354D01*
X127460312Y-107947972D01*
X127574745Y-107761365D01*
X127706090Y-107554089D01*
X127788325Y-107427451D01*
X128174785Y-106837990D01*
X128042476Y-106625149D01*
X127976866Y-106512176D01*
X127937395Y-106414415D01*
X127917525Y-106303381D01*
X127910716Y-106150587D01*
X127910167Y-106048738D01*
X127913498Y-105859305D01*
X127927830Y-105723889D01*
X127959667Y-105611960D01*
X128015516Y-105492989D01*
X128037167Y-105452748D01*
X128179241Y-105241689D01*
X128383235Y-105006058D01*
X128634891Y-104758234D01*
X128919951Y-104510595D01*
X129224156Y-104275519D01*
X129533249Y-104065385D01*
X129832970Y-103892569D01*
X129836334Y-103890833D01*
X130028707Y-103796055D01*
X130219497Y-103712571D01*
X130415757Y-103639389D01*
X130624542Y-103575515D01*
X130852906Y-103519955D01*
X131107902Y-103471717D01*
X131396585Y-103429806D01*
X131726008Y-103393230D01*
X132103225Y-103360994D01*
X132535291Y-103332106D01*
X133029260Y-103305572D01*
X133592184Y-103280399D01*
X134231119Y-103255593D01*
X134387167Y-103249921D01*
X134892449Y-103228334D01*
X135318550Y-103202485D01*
X135670875Y-103171746D01*
X135954831Y-103135487D01*
X136175825Y-103093079D01*
X136339263Y-103043891D01*
X136403954Y-103015088D01*
X136495090Y-102941403D01*
X136604780Y-102815324D01*
X136715842Y-102661210D01*
X136811089Y-102503421D01*
X136873337Y-102366316D01*
X136881844Y-102337672D01*
X136876797Y-102191695D01*
X136799812Y-102009898D01*
X136653435Y-101796712D01*
X136440216Y-101556566D01*
X136421923Y-101537918D01*
X136241802Y-101362803D01*
X136094508Y-101246042D01*
X135958341Y-101181218D01*
X135811598Y-101161916D01*
X135632580Y-101181719D01*
X135399585Y-101234212D01*
X135396945Y-101234871D01*
X135065517Y-101312223D01*
X134769994Y-101367164D01*
X134482132Y-101402980D01*
X134173687Y-101422958D01*
X133816416Y-101430386D01*
X133714476Y-101430667D01*
X132957939Y-101399092D01*
X132198834Y-101306780D01*
X131448377Y-101157355D01*
X130717783Y-100954438D01*
X130018269Y-100701650D01*
X129361050Y-100402614D01*
X128757344Y-100060952D01*
X128218365Y-99680285D01*
X128167470Y-99639409D01*
X127967193Y-99460499D01*
X127757821Y-99246266D01*
X127558587Y-99018638D01*
X127388724Y-98799547D01*
X127270826Y-98617039D01*
X127124427Y-98272003D01*
X127060763Y-97921098D01*
X127078951Y-97571728D01*
X127178106Y-97231299D01*
X127357346Y-96907216D01*
X127495868Y-96731667D01*
X127664444Y-96541167D01*
X127608372Y-96268369D01*
X127564906Y-96077561D01*
X127509049Y-95859439D01*
X127463281Y-95696869D01*
X127374261Y-95398167D01*
X127091881Y-95392560D01*
X126782091Y-95354454D01*
X126521641Y-95251070D01*
X126301767Y-95078712D01*
X126271819Y-95046764D01*
X126128380Y-94869516D01*
X126028666Y-94693726D01*
X125956621Y-94486642D01*
X125918260Y-94325600D01*
X125864636Y-93891711D01*
X125880966Y-93423341D01*
X125967704Y-92918460D01*
X126125306Y-92375036D01*
X126354223Y-91791038D01*
X126600696Y-91270128D01*
X126979502Y-90579852D01*
X127393465Y-89931794D01*
X127835886Y-89334298D01*
X128300061Y-88795706D01*
X128779289Y-88324361D01*
X129266868Y-87928607D01*
X129309538Y-87897971D01*
X129545795Y-87719382D01*
X129765364Y-87533326D01*
X129956800Y-87351211D01*
X130108661Y-87184449D01*
X130209501Y-87044449D01*
X130244246Y-86966014D01*
X130238743Y-86845264D01*
X130181376Y-86681106D01*
X130081697Y-86488404D01*
X129949260Y-86282027D01*
X129793620Y-86076841D01*
X129624329Y-85887714D01*
X129450942Y-85729512D01*
X129448308Y-85727410D01*
X129234006Y-85556781D01*
X129119243Y-85638499D01*
X129023736Y-85714662D01*
X128878579Y-85840924D01*
X128694079Y-86007604D01*
X128480540Y-86205017D01*
X128248265Y-86423480D01*
X128007561Y-86653310D01*
X127768732Y-86884825D01*
X127542081Y-87108340D01*
X127359834Y-87291800D01*
X126848344Y-87796126D01*
X126365867Y-88235095D01*
X125900630Y-88617546D01*
X125440860Y-88952316D01*
X124974786Y-89248246D01*
X124490635Y-89514173D01*
X124227167Y-89643845D01*
X123574158Y-89919370D01*
X122944696Y-90114656D01*
X122336686Y-90230154D01*
X121748031Y-90266314D01*
X121406938Y-90250442D01*
X121150185Y-90223639D01*
X120954551Y-90191038D01*
X120796490Y-90146491D01*
X120652455Y-90083852D01*
X120547642Y-90026108D01*
X120288927Y-89829780D01*
X120073197Y-89567777D01*
X119898269Y-89236656D01*
X119761958Y-88832970D01*
X119742103Y-88755386D01*
X119648413Y-88373444D01*
X118368627Y-87710270D01*
X118188087Y-87885478D01*
X117918452Y-88098150D01*
X117635565Y-88228007D01*
X117342815Y-88275250D01*
X117043589Y-88240079D01*
X116741276Y-88122695D01*
X116439263Y-87923298D01*
X116267230Y-87771752D01*
X115980158Y-87469550D01*
X115701247Y-87128567D01*
X115443520Y-86767849D01*
X115219998Y-86406443D01*
X115043704Y-86063398D01*
X114961536Y-85861892D01*
X114884103Y-85627325D01*
X114817387Y-85383183D01*
X114760339Y-85120542D01*
X114711907Y-84830480D01*
X114671043Y-84504071D01*
X114636695Y-84132395D01*
X114607813Y-83706526D01*
X114583346Y-83217542D01*
X114562245Y-82656518D01*
X114554270Y-82401834D01*
X114536764Y-81855442D01*
X114518303Y-81386782D01*
X114497437Y-80988918D01*
X114472715Y-80654918D01*
X114442687Y-80377845D01*
X114405902Y-80150767D01*
X114360910Y-79966750D01*
X114306261Y-79818858D01*
X114240503Y-79700158D01*
X114162187Y-79603716D01*
X114069861Y-79522597D01*
X113962076Y-79449867D01*
X113933151Y-79432540D01*
X113746430Y-79333839D01*
X113599234Y-79287486D01*
X113467711Y-79289681D01*
X113328720Y-79336313D01*
X113200575Y-79413267D01*
X113040379Y-79537191D01*
X112868968Y-79688937D01*
X112707181Y-79849357D01*
X112575854Y-79999305D01*
X112516122Y-80083012D01*
X112475100Y-80162339D01*
X112452101Y-80248972D01*
X112447824Y-80357624D01*
X112462969Y-80503004D01*
X112498236Y-80699824D01*
X112554324Y-80962795D01*
X112558960Y-80983667D01*
X112646446Y-81489948D01*
X112699698Y-82052931D01*
X112719415Y-82652196D01*
X112706299Y-83267320D01*
X112661047Y-83877881D01*
X112584361Y-84463460D01*
X112476939Y-85003633D01*
X112412889Y-85246961D01*
X112260194Y-85667744D01*
X112040832Y-86114037D01*
X111763465Y-86572691D01*
X111436751Y-87030557D01*
X111069352Y-87474487D01*
X110673611Y-87887765D01*
X110397398Y-88142602D01*
X110147356Y-88343365D01*
X109901797Y-88505826D01*
X109639038Y-88645756D01*
X109616774Y-88656379D01*
X109463224Y-88724793D01*
X109336531Y-88766018D01*
X109203989Y-88786763D01*
X109032891Y-88793733D01*
X108944834Y-88794167D01*
X108747866Y-88790783D01*
X108605742Y-88776809D01*
X108488779Y-88746516D01*
X108367292Y-88694169D01*
X108329587Y-88675371D01*
X108160316Y-88573598D01*
X107987300Y-88445200D01*
X107906253Y-88373642D01*
X107717167Y-88190708D01*
X107360502Y-88316334D01*
X107164320Y-88387875D01*
X106966772Y-88463921D01*
X106804739Y-88530196D01*
X106778418Y-88541650D01*
X106553000Y-88641341D01*
X106552967Y-88929421D01*
X106542680Y-89129651D01*
X106504419Y-89296707D01*
X106431284Y-89471500D01*
X106299718Y-89701446D01*
X106145084Y-89871501D01*
X105942206Y-90006415D01*
X105832065Y-90060612D01*
X105542005Y-90155506D01*
X105198008Y-90198518D01*
X104796866Y-90189580D01*
X104335371Y-90128625D01*
X103822500Y-90018616D01*
X103225391Y-89851672D01*
X102670866Y-89654934D01*
X102150476Y-89422484D01*
X101655774Y-89148407D01*
X101178313Y-88826784D01*
X100709643Y-88451697D01*
X100241318Y-88017230D01*
X99764889Y-87517465D01*
X99271910Y-86946484D01*
X99052661Y-86677500D01*
X98859721Y-86443044D01*
X98702311Y-86268985D01*
X98567780Y-86146099D01*
X98443473Y-86065165D01*
X98316738Y-86016960D01*
X98174922Y-85992263D01*
X98104589Y-85986473D01*
X97921461Y-85983844D01*
X97779366Y-86008115D01*
X97647393Y-86060976D01*
X97428888Y-86206360D01*
X97223666Y-86417324D01*
X97048656Y-86674857D01*
X96979907Y-86810419D01*
X96855909Y-87083890D01*
X96938803Y-87198195D01*
X97033697Y-87310584D01*
X97188572Y-87470442D01*
X97397490Y-87672109D01*
X97654508Y-87909925D01*
X97953688Y-88178229D01*
X98128667Y-88332036D01*
X98734229Y-88884525D01*
X99262392Y-89418171D01*
X99716862Y-89938424D01*
X100101347Y-90450731D01*
X100419555Y-90960541D01*
X100675192Y-91473300D01*
X100871967Y-91994458D01*
X101013588Y-92529461D01*
X101025972Y-92589463D01*
X101096067Y-93077090D01*
X101119910Y-93592391D01*
X101099300Y-94115471D01*
X101036041Y-94626435D01*
X100931932Y-95105389D01*
X100788774Y-95532438D01*
X100751776Y-95618428D01*
X100646680Y-95809946D01*
X100510091Y-96000469D01*
X100359760Y-96169406D01*
X100213438Y-96296163D01*
X100121769Y-96349244D01*
X100043614Y-96395338D01*
X100000341Y-96468888D01*
X99975154Y-96597128D01*
X99907456Y-96860760D01*
X99774809Y-97152828D01*
X99585458Y-97459217D01*
X99347652Y-97765813D01*
X99192831Y-97936035D01*
X98976376Y-98160776D01*
X99051645Y-98388138D01*
X99103562Y-98661063D01*
X99096008Y-98960150D01*
X99031747Y-99254160D01*
X98959403Y-99430668D01*
X98802985Y-99675700D01*
X98578402Y-99938010D01*
X98297927Y-100208452D01*
X97973832Y-100477880D01*
X97618390Y-100737146D01*
X97243873Y-100977105D01*
X96862553Y-101188609D01*
X96486704Y-101362514D01*
X96246304Y-101452686D01*
X96075028Y-101507102D01*
X95907104Y-101552645D01*
X95733425Y-101589997D01*
X95544882Y-101619836D01*
X95332367Y-101642842D01*
X95086773Y-101659693D01*
X94798990Y-101671069D01*
X94459912Y-101677649D01*
X94060430Y-101680112D01*
X93591435Y-101679138D01*
X93239167Y-101676941D01*
X92766765Y-101673797D01*
X92371265Y-101672422D01*
X92044909Y-101673525D01*
X91779940Y-101677817D01*
X91568599Y-101686006D01*
X91403128Y-101698804D01*
X91275770Y-101716919D01*
X91178766Y-101741061D01*
X91104359Y-101771942D01*
X91044791Y-101810270D01*
X90992303Y-101856755D01*
X90964576Y-101885075D01*
X90848923Y-102026064D01*
X90736889Y-102195795D01*
X90641326Y-102370791D01*
X90575084Y-102527575D01*
X90551000Y-102640603D01*
X89016414Y-102640603D01*
X89013578Y-102605772D01*
X89062560Y-102227954D01*
X89190013Y-101842184D01*
X89240718Y-101730032D01*
X89472178Y-101300551D01*
X89721423Y-100948323D01*
X89995535Y-100666617D01*
X90301597Y-100448698D01*
X90646694Y-100287834D01*
X90816188Y-100232387D01*
X90890033Y-100211960D01*
X90963819Y-100194901D01*
X91045676Y-100180893D01*
X91143733Y-100169616D01*
X91266121Y-100160754D01*
X91420969Y-100153989D01*
X91616407Y-100149001D01*
X91860565Y-100145474D01*
X92161572Y-100143090D01*
X92527558Y-100141530D01*
X92966654Y-100140477D01*
X93175667Y-100140108D01*
X93680714Y-100138966D01*
X94109332Y-100136858D01*
X94469755Y-100133033D01*
X94770220Y-100126741D01*
X95018963Y-100117230D01*
X95224220Y-100103750D01*
X95394227Y-100085550D01*
X95537221Y-100061880D01*
X95661437Y-100031988D01*
X95775112Y-99995123D01*
X95886481Y-99950535D01*
X96003782Y-99897473D01*
X96043763Y-99878653D01*
X96206899Y-99791570D01*
X96415137Y-99666107D01*
X96647225Y-99516476D01*
X96881914Y-99356887D01*
X97097952Y-99201551D01*
X97274088Y-99064679D01*
X97323118Y-99023117D01*
X97512402Y-98857298D01*
X97344284Y-98786219D01*
X97243021Y-98749560D01*
X97079689Y-98697410D01*
X96874103Y-98635813D01*
X96646076Y-98570812D01*
X96562334Y-98547748D01*
X96138392Y-98427825D01*
X95786599Y-98317672D01*
X95495729Y-98212318D01*
X95254560Y-98106788D01*
X95051865Y-97996110D01*
X94876422Y-97875312D01*
X94717004Y-97739420D01*
X94698602Y-97722039D01*
X94463010Y-97447635D01*
X94296278Y-97137626D01*
X94197850Y-96788604D01*
X94167172Y-96397166D01*
X94203686Y-95959905D01*
X94306837Y-95473417D01*
X94322251Y-95416666D01*
X94464152Y-95022683D01*
X94655969Y-94693810D01*
X94903447Y-94422927D01*
X95212333Y-94202913D01*
X95367462Y-94121211D01*
X95525092Y-94048629D01*
X95653735Y-94001365D01*
X95782263Y-93972886D01*
X95939544Y-93956663D01*
X96138568Y-93946786D01*
X96568248Y-93956106D01*
X96967874Y-94023177D01*
X97354911Y-94153378D01*
X97746825Y-94352090D01*
X98021674Y-94526805D01*
X98200430Y-94640543D01*
X98391170Y-94749180D01*
X98556791Y-94831765D01*
X98578242Y-94841061D01*
X98754665Y-94906335D01*
X98937712Y-94959377D01*
X99105753Y-94995495D01*
X99237157Y-95010001D01*
X99308469Y-94999419D01*
X99369551Y-94921263D01*
X99427077Y-94773799D01*
X99478788Y-94572372D01*
X99522427Y-94332332D01*
X99555734Y-94069025D01*
X99576453Y-93797799D01*
X99582325Y-93534001D01*
X99571092Y-93292979D01*
X99566346Y-93246672D01*
X99512125Y-92881079D01*
X99433495Y-92560247D01*
X99319320Y-92245313D01*
X99209708Y-92002178D01*
X99038298Y-91670927D01*
X98846361Y-91353813D01*
X98626426Y-91042064D01*
X98371018Y-90726907D01*
X98072664Y-90399573D01*
X97723891Y-90051287D01*
X97317226Y-89673278D01*
X96943334Y-89341959D01*
X96563402Y-89004043D01*
X96247995Y-88707784D01*
X95991606Y-88447255D01*
X95788726Y-88216533D01*
X95633850Y-88009692D01*
X95521468Y-87820807D01*
X95512189Y-87802341D01*
X95438289Y-87647035D01*
X95392331Y-87525612D01*
X95367791Y-87407819D01*
X95358149Y-87263401D01*
X95356828Y-87081616D01*
X95361194Y-86870501D01*
X95376903Y-86711146D01*
X95409700Y-86570829D01*
X95465333Y-86416828D01*
X95479846Y-86381167D01*
X95683327Y-85956669D01*
X95925018Y-85571352D01*
X96194362Y-85239839D01*
X96480799Y-84976751D01*
X96509518Y-84955107D01*
X96906728Y-84709199D01*
X97323144Y-84539711D01*
X97750069Y-84446399D01*
X98178802Y-84429018D01*
X98600645Y-84487324D01*
X99006900Y-84621071D01*
X99388866Y-84830016D01*
X99662906Y-85043745D01*
X99765133Y-85145270D01*
X99903840Y-85296435D01*
X100063723Y-85479900D01*
X100229474Y-85678326D01*
X100299998Y-85765503D01*
X100476556Y-85977390D01*
X100693847Y-86224728D01*
X100931166Y-86484712D01*
X101167811Y-86734536D01*
X101321209Y-86890394D01*
X101702233Y-87253636D01*
X102057369Y-87554328D01*
X102403559Y-87802954D01*
X102757751Y-88009996D01*
X103136887Y-88185938D01*
X103557913Y-88341263D01*
X103780167Y-88411667D01*
X104026451Y-88481633D01*
X104269700Y-88542398D01*
X104495249Y-88591163D01*
X104688436Y-88625130D01*
X104834598Y-88641502D01*
X104919071Y-88637480D01*
X104930865Y-88631247D01*
X104927104Y-88578429D01*
X104882543Y-88459582D01*
X104800347Y-88281036D01*
X104683683Y-88049118D01*
X104535715Y-87770155D01*
X104359611Y-87450477D01*
X104193128Y-87156634D01*
X104007308Y-86828083D01*
X103861942Y-86558810D01*
X103752261Y-86336516D01*
X103673494Y-86148904D01*
X103620869Y-85983674D01*
X103589616Y-85828530D01*
X103574964Y-85671174D01*
X103572044Y-85555667D01*
X103574149Y-85369267D01*
X103587607Y-85235579D01*
X103619486Y-85122755D01*
X103676855Y-84998948D01*
X103709107Y-84938132D01*
X103848799Y-84725107D01*
X104047206Y-84485486D01*
X104288875Y-84233510D01*
X104558353Y-83983419D01*
X104840189Y-83749454D01*
X105118928Y-83545857D01*
X105379120Y-83386867D01*
X105410000Y-83370617D01*
X105556469Y-83303503D01*
X105691332Y-83266556D01*
X105852358Y-83251502D01*
X105962544Y-83249567D01*
X106143271Y-83253889D01*
X106281370Y-83274553D01*
X106415918Y-83320949D01*
X106574565Y-83396667D01*
X106789282Y-83528595D01*
X107029140Y-83713836D01*
X107274356Y-83933936D01*
X107505147Y-84170442D01*
X107701730Y-84404902D01*
X107791980Y-84532222D01*
X107970469Y-84832846D01*
X108093227Y-85109120D01*
X108171002Y-85389130D01*
X108205718Y-85613538D01*
X108288279Y-86047500D01*
X108431188Y-86463288D01*
X108625945Y-86840128D01*
X108813759Y-87100055D01*
X108899711Y-87197126D01*
X108957456Y-87238783D01*
X109011847Y-87235588D01*
X109068646Y-87208373D01*
X109293486Y-87059410D01*
X109540411Y-86846891D01*
X109798210Y-86585103D01*
X110055674Y-86288335D01*
X110301591Y-85970876D01*
X110524753Y-85647013D01*
X110713947Y-85331036D01*
X110857966Y-85037232D01*
X110931239Y-84834344D01*
X111003136Y-84555894D01*
X111058826Y-84269098D01*
X111100407Y-83956714D01*
X111129981Y-83601504D01*
X111149646Y-83186228D01*
X111155337Y-82994398D01*
X111162085Y-82546880D01*
X111156530Y-82167333D01*
X111137322Y-81839771D01*
X111103110Y-81548209D01*
X111052546Y-81276662D01*
X110989074Y-81026000D01*
X110905433Y-80593518D01*
X110903623Y-80175562D01*
X110984018Y-79771290D01*
X111146990Y-79379862D01*
X111392913Y-79000437D01*
X111722157Y-78632173D01*
X112135098Y-78274231D01*
X112245603Y-78190576D01*
X112476052Y-78020334D01*
X114600157Y-78020334D01*
X114910550Y-78229784D01*
G36*
X113259440Y-80448698D02*
G01*
X113333827Y-80533912D01*
X113381966Y-80598642D01*
X113416573Y-80668751D01*
X113441751Y-80761912D01*
X113461604Y-80895793D01*
X113480237Y-81088065D01*
X113489934Y-81206050D01*
X113519380Y-81501391D01*
X113558697Y-81744334D01*
X113614009Y-81967066D01*
X113665196Y-82127236D01*
X113717497Y-82282332D01*
X113753055Y-82404242D01*
X113774141Y-82514629D01*
X113783022Y-82635151D01*
X113781967Y-82787470D01*
X113773246Y-82993245D01*
X113767626Y-83105092D01*
X113737575Y-83697101D01*
X113914057Y-84068467D01*
X114006700Y-84277784D01*
X114070417Y-84464743D01*
X114115796Y-84666268D01*
X114149637Y-84890066D01*
X114196867Y-85228043D01*
X114242507Y-85496581D01*
X114291209Y-85710679D01*
X114347629Y-85885334D01*
X114416419Y-86035544D01*
X114502234Y-86176307D01*
X114583644Y-86288748D01*
X114745290Y-86510083D01*
X114860393Y-86692918D01*
X114941013Y-86859863D01*
X114999206Y-87033525D01*
X115016639Y-87100617D01*
X115052585Y-87213628D01*
X115117019Y-87383777D01*
X115202147Y-87591704D01*
X115300178Y-87818046D01*
X115348875Y-87926117D01*
X115455745Y-88158214D01*
X115541004Y-88332728D01*
X115617991Y-88469195D01*
X115700045Y-88587151D01*
X115800505Y-88706128D01*
X115932709Y-88845663D01*
X116075905Y-88990887D01*
X116283508Y-89202644D01*
X116516998Y-89444378D01*
X116747535Y-89686048D01*
X116943181Y-89894278D01*
X117182969Y-90142366D01*
X117406655Y-90348478D01*
X117630646Y-90523104D01*
X117871349Y-90676734D01*
X118145171Y-90819857D01*
X118468521Y-90962964D01*
X118850834Y-91113897D01*
X119235262Y-91262347D01*
X119549970Y-91389561D01*
X119805816Y-91500292D01*
X120013658Y-91599296D01*
X120184354Y-91691325D01*
X120226667Y-91716308D01*
X120404695Y-91813165D01*
X120605367Y-91907439D01*
X120713500Y-91951487D01*
X121074740Y-92117704D01*
X121449606Y-92348100D01*
X121817038Y-92629617D01*
X121842863Y-92651700D01*
X122007258Y-92791850D01*
X122208651Y-92961364D01*
X122418355Y-93136185D01*
X122564094Y-93256530D01*
X122975355Y-93594326D01*
X122949336Y-92843867D01*
X122923317Y-92093409D01*
X123036940Y-91913419D01*
X123180565Y-91721302D01*
X123358393Y-91534831D01*
X123543294Y-91380527D01*
X123653977Y-91310277D01*
X123768614Y-91245139D01*
X123859148Y-91179802D01*
X123947969Y-91094438D01*
X124057471Y-90969214D01*
X124108827Y-90907458D01*
X124236180Y-90769372D01*
X124378025Y-90639117D01*
X124468491Y-90569660D01*
X124604977Y-90471959D01*
X124762878Y-90350926D01*
X124862167Y-90270631D01*
X125005361Y-90159036D01*
X125193731Y-90022830D01*
X125405535Y-89876661D01*
X125619035Y-89735180D01*
X125812491Y-89613038D01*
X125964163Y-89524885D01*
X125985136Y-89513867D01*
X126120316Y-89434651D01*
X126257647Y-89340020D01*
X126273313Y-89327978D01*
X126383641Y-89236507D01*
X126518376Y-89117290D01*
X126663839Y-88983412D01*
X126806353Y-88847963D01*
X126932238Y-88724031D01*
X127027815Y-88624704D01*
X127079405Y-88563069D01*
X127084667Y-88551670D01*
X127109028Y-88456523D01*
X127170145Y-88327933D01*
X127250064Y-88197078D01*
X127330833Y-88095132D01*
X127364500Y-88065712D01*
X127444235Y-88003145D01*
X127564470Y-87899956D01*
X127704553Y-87774080D01*
X127768720Y-87714667D01*
X127921635Y-87581193D01*
X128076750Y-87461595D01*
X128208247Y-87375275D01*
X128247525Y-87354834D01*
X128361182Y-87289052D01*
X128499392Y-87189761D01*
X128642812Y-87073419D01*
X128772097Y-86956489D01*
X128867900Y-86855432D01*
X128909557Y-86791506D01*
X128941629Y-86759917D01*
X129019647Y-86759777D01*
X129110183Y-86777164D01*
X129226191Y-86806944D01*
X129302846Y-86833514D01*
X129315547Y-86841103D01*
X129329535Y-86910242D01*
X129285493Y-87016203D01*
X129194488Y-87146880D01*
X129067587Y-87290169D01*
X128915859Y-87433964D01*
X128750370Y-87566159D01*
X128582189Y-87674650D01*
X128526870Y-87703735D01*
X128379112Y-87793368D01*
X128212197Y-87919965D01*
X128062096Y-88056227D01*
X128061203Y-88057136D01*
X127935859Y-88178823D01*
X127820497Y-88280288D01*
X127737222Y-88342270D01*
X127728216Y-88347306D01*
X127657327Y-88408924D01*
X127657051Y-88479454D01*
X127653104Y-88560068D01*
X127617904Y-88586796D01*
X127568005Y-88641849D01*
X127529370Y-88745051D01*
X127524956Y-88766504D01*
X127475625Y-88921231D01*
X127398258Y-89028254D01*
X127306184Y-89069310D01*
X127303951Y-89069334D01*
X127245197Y-89096774D01*
X127144797Y-89169805D01*
X127021319Y-89274496D01*
X126979598Y-89312750D01*
X126847650Y-89432475D01*
X126718018Y-89540676D01*
X126575853Y-89648004D01*
X126406305Y-89765116D01*
X126194522Y-89902664D01*
X125925655Y-90071302D01*
X125900520Y-90086898D01*
X125290723Y-90499616D01*
X124724571Y-90951843D01*
X124378557Y-91270667D01*
X124212935Y-91426693D01*
X124045844Y-91573250D01*
X123898567Y-91692242D01*
X123805985Y-91757500D01*
X123660809Y-91866374D01*
X123524918Y-91999076D01*
X123473322Y-92062989D01*
X123346271Y-92241478D01*
X123386271Y-93105779D01*
X123426272Y-93970080D01*
X123699719Y-94387290D01*
X123835443Y-94587316D01*
X123982675Y-94792942D01*
X124120309Y-94975177D01*
X124196665Y-95069780D01*
X124332586Y-95244077D01*
X124492428Y-95470266D01*
X124669072Y-95736254D01*
X124855399Y-96029945D01*
X125044291Y-96339245D01*
X125228630Y-96652057D01*
X125401296Y-96956288D01*
X125555172Y-97239841D01*
X125683139Y-97490623D01*
X125778077Y-97696538D01*
X125832870Y-97845490D01*
X125835026Y-97853500D01*
X125862374Y-97994818D01*
X125888740Y-98194778D01*
X125911215Y-98427379D01*
X125926887Y-98666618D01*
X125927504Y-98679678D01*
X125937033Y-98935386D01*
X125937274Y-99134836D01*
X125926345Y-99306111D01*
X125902362Y-99477297D01*
X125863442Y-99676476D01*
X125859368Y-99695678D01*
X125802179Y-99934895D01*
X125726844Y-100210137D01*
X125645482Y-100478359D01*
X125603293Y-100605167D01*
X125434337Y-101093416D01*
X125292138Y-101506855D01*
X125175050Y-101850434D01*
X125081428Y-102129101D01*
X125009625Y-102347807D01*
X124957994Y-102511502D01*
X124924891Y-102625134D01*
X124908668Y-102693654D01*
X124908651Y-102693750D01*
X124883984Y-102834999D01*
X125063575Y-102806673D01*
X125183438Y-102784342D01*
X125357165Y-102747744D01*
X125556435Y-102702964D01*
X125666500Y-102677092D01*
X125865371Y-102634882D01*
X126119872Y-102588717D01*
X126401420Y-102543381D01*
X126681432Y-102503662D01*
X126767167Y-102492782D01*
X127014027Y-102459739D01*
X127246230Y-102423624D01*
X127443989Y-102387875D01*
X127587516Y-102355935D01*
X127633726Y-102342124D01*
X127870725Y-102274382D01*
X128161344Y-102217110D01*
X128474736Y-102174980D01*
X128780052Y-102152665D01*
X128899962Y-102150325D01*
X129094433Y-102142848D01*
X129337883Y-102122616D01*
X129596158Y-102092916D01*
X129789593Y-102064696D01*
X129988944Y-102033534D01*
X130171112Y-102009000D01*
X130348399Y-101990738D01*
X130533111Y-101978386D01*
X130737553Y-101971587D01*
X130974029Y-101969980D01*
X131254844Y-101973207D01*
X131592302Y-101980909D01*
X131998708Y-101992725D01*
X132122334Y-101996589D01*
X132478005Y-102007223D01*
X132760685Y-102013943D01*
X132981970Y-102016492D01*
X133153456Y-102014610D01*
X133286741Y-102008041D01*
X133393419Y-101996523D01*
X133485088Y-101979801D01*
X133546611Y-101964839D01*
X133945309Y-101902338D01*
X134343087Y-101924206D01*
X134604958Y-101985460D01*
X134749251Y-102030981D01*
X134857804Y-102067498D01*
X134908922Y-102087686D01*
X134909969Y-102088457D01*
X134908153Y-102134123D01*
X134884324Y-102226339D01*
X134848739Y-102333380D01*
X134811658Y-102423519D01*
X134789779Y-102460157D01*
X134736891Y-102465321D01*
X134625988Y-102447307D01*
X134479297Y-102409953D01*
X134452179Y-102401888D01*
X134174796Y-102340264D01*
X133913152Y-102335636D01*
X133636041Y-102388958D01*
X133501179Y-102431023D01*
X133430445Y-102452569D01*
X133354620Y-102468220D01*
X133262050Y-102478168D01*
X133141077Y-102482605D01*
X132980044Y-102481724D01*
X132767295Y-102475717D01*
X132491174Y-102464776D01*
X132210740Y-102452325D01*
X131776035Y-102433247D01*
X131414277Y-102419374D01*
X131113900Y-102410891D01*
X130863332Y-102407984D01*
X130651006Y-102410837D01*
X130465351Y-102419637D01*
X130294799Y-102434568D01*
X130127780Y-102455815D01*
X129952726Y-102483565D01*
X129921000Y-102489000D01*
X129680806Y-102524718D01*
X129426198Y-102553144D01*
X129194050Y-102570565D01*
X129074334Y-102574225D01*
X128560227Y-102602068D01*
X128059741Y-102686310D01*
X127757433Y-102763882D01*
X127571084Y-102809128D01*
X127330957Y-102855912D01*
X127067650Y-102898797D01*
X126811764Y-102932347D01*
X126804933Y-102933107D01*
X126541562Y-102966485D01*
X126262001Y-103008952D01*
X126000027Y-103054997D01*
X125793500Y-103098140D01*
X125580790Y-103147658D01*
X125367155Y-103196196D01*
X125186239Y-103236155D01*
X125121544Y-103249923D01*
X124922910Y-103306657D01*
X124770653Y-103391821D01*
X124652429Y-103519113D01*
X124555895Y-103702232D01*
X124468708Y-103954876D01*
X124460223Y-103983818D01*
X124398065Y-104176418D01*
X124329952Y-104352650D01*
X124266345Y-104486764D01*
X124236980Y-104533364D01*
X124183274Y-104610948D01*
X124156242Y-104682237D01*
X124151736Y-104774763D01*
X124165609Y-104916057D01*
X124171885Y-104965500D01*
X124181652Y-105094747D01*
X124187799Y-105293455D01*
X124190248Y-105546493D01*
X124188920Y-105838731D01*
X124183737Y-106155038D01*
X124178998Y-106341334D01*
X124170972Y-106636387D01*
X124164622Y-106904009D01*
X124160152Y-107132389D01*
X124157767Y-107309719D01*
X124157672Y-107424190D01*
X124159522Y-107463167D01*
X124172499Y-107525092D01*
X124194259Y-107642539D01*
X124214797Y-107759500D01*
X124250956Y-107911382D01*
X124298928Y-108039061D01*
X124335198Y-108098167D01*
X124380534Y-108183331D01*
X124431191Y-108338472D01*
X124482850Y-108549449D01*
X124503257Y-108648500D01*
X124556385Y-108883170D01*
X124627441Y-109127572D01*
X124722825Y-109400968D01*
X124848937Y-109722616D01*
X124906427Y-109861933D01*
X125145716Y-110483323D01*
X125324141Y-111056653D01*
X125443765Y-111590508D01*
X125506654Y-112093470D01*
X125518084Y-112405129D01*
X125539222Y-112667523D01*
X125597167Y-112897831D01*
X125599343Y-112903626D01*
X125666279Y-113040546D01*
X125771506Y-113212812D01*
X125899350Y-113398764D01*
X126034138Y-113576738D01*
X126160196Y-113725072D01*
X126261852Y-113822104D01*
X126266302Y-113825433D01*
X126339207Y-113896071D01*
X126437368Y-114013144D01*
X126540137Y-114151943D01*
X126544895Y-114158820D01*
X126647743Y-114306896D01*
X126779642Y-114495249D01*
X126920486Y-114695223D01*
X127005721Y-114815629D01*
X127136219Y-115005029D01*
X127263576Y-115199341D01*
X127370172Y-115371225D01*
X127421361Y-115460521D01*
X127541394Y-115659848D01*
X127707043Y-115902622D01*
X127905336Y-116171165D01*
X128123299Y-116447803D01*
X128308957Y-116669857D01*
X128479699Y-116863006D01*
X128611703Y-116998550D01*
X128716785Y-117086800D01*
X128806760Y-117138068D01*
X128867934Y-117157670D01*
X129022763Y-117228175D01*
X129112074Y-117351095D01*
X129132525Y-117521377D01*
X129129176Y-117552739D01*
X129095223Y-117692813D01*
X129036615Y-117753562D01*
X128945364Y-117738672D01*
X128851651Y-117680778D01*
X128718761Y-117593065D01*
X128571706Y-117508297D01*
X128551346Y-117497712D01*
X128448028Y-117428317D01*
X128313230Y-117314944D01*
X128170509Y-117177955D01*
X128119550Y-117124432D01*
X127960091Y-116943651D01*
X127781797Y-116727472D01*
X127596899Y-116492174D01*
X127417629Y-116254038D01*
X127256217Y-116029343D01*
X127124896Y-115834369D01*
X127035894Y-115685397D01*
X127030248Y-115674548D01*
X126957495Y-115546964D01*
X126851372Y-115378813D01*
X126729328Y-115197245D01*
X126663778Y-115104334D01*
X126527152Y-114911905D01*
X126383163Y-114705036D01*
X126255556Y-114517976D01*
X126212903Y-114454076D01*
X126115134Y-114316480D01*
X126025901Y-114208833D01*
X125960974Y-114149675D01*
X125949532Y-114144387D01*
X125886550Y-114098569D01*
X125786800Y-113990124D01*
X125657917Y-113828517D01*
X125507536Y-113623210D01*
X125380405Y-113439084D01*
X125238717Y-113181967D01*
X125140313Y-112905796D01*
X125096052Y-112642666D01*
X125094653Y-112594495D01*
X125054089Y-111972977D01*
X124934216Y-111324680D01*
X124734892Y-110648990D01*
X124501060Y-110048403D01*
X124340256Y-109656678D01*
X124219419Y-109319140D01*
X124132695Y-109018782D01*
X124104123Y-108895373D01*
X124055140Y-108690862D01*
X124000447Y-108501715D01*
X123947779Y-108352976D01*
X123915790Y-108285527D01*
X123854070Y-108147113D01*
X123807612Y-107981395D01*
X123798178Y-107925694D01*
X123775362Y-107789218D01*
X123748590Y-107681074D01*
X123736549Y-107649755D01*
X123728157Y-107589082D01*
X123723969Y-107457135D01*
X123723933Y-107267198D01*
X123727997Y-107032556D01*
X123736109Y-106766495D01*
X123740448Y-106654922D01*
X123750942Y-106349765D01*
X123757767Y-106042342D01*
X123760730Y-105753563D01*
X123759637Y-105504341D01*
X123754292Y-105315589D01*
X123753100Y-105293584D01*
X123727467Y-104859667D01*
X123215317Y-104858094D01*
X122725821Y-104850886D01*
X122310536Y-104831820D01*
X121959697Y-104799847D01*
X121663541Y-104753919D01*
X121412306Y-104692990D01*
X121285000Y-104650979D01*
X121086917Y-104573686D01*
X120886305Y-104487540D01*
X120720446Y-104408708D01*
X120692334Y-104393957D01*
X120457474Y-104268550D01*
X120275656Y-104177102D01*
X120125531Y-104113138D01*
X119985751Y-104070185D01*
X119834970Y-104041770D01*
X119651839Y-104021420D01*
X119415010Y-104002660D01*
X119397688Y-104001374D01*
X118785481Y-103955957D01*
X118433126Y-104137108D01*
X118266451Y-104221019D01*
X118142627Y-104273692D01*
X118031671Y-104302069D01*
X117903599Y-104313092D01*
X117728426Y-104313702D01*
X117673232Y-104313034D01*
X117435959Y-104302858D01*
X117174512Y-104280600D01*
X116937907Y-104250638D01*
X116894096Y-104243454D01*
X116707067Y-104203018D01*
X116461336Y-104138277D01*
X116177095Y-104055648D01*
X115874536Y-103961553D01*
X115573852Y-103862410D01*
X115295236Y-103764640D01*
X115058879Y-103674660D01*
X114922768Y-103616735D01*
X114762335Y-103555309D01*
X114559301Y-103493956D01*
X114354840Y-103444981D01*
X114334555Y-103440978D01*
X114139797Y-103403399D01*
X113948253Y-103366262D01*
X113796985Y-103336755D01*
X113779333Y-103333288D01*
X113642828Y-103315103D01*
X113455003Y-103301250D01*
X113249180Y-103293939D01*
X113176890Y-103293334D01*
X112987229Y-103292993D01*
X112864427Y-103301994D01*
X112792113Y-103335369D01*
X112753919Y-103408152D01*
X112733477Y-103535377D01*
X112715958Y-103716667D01*
X112626356Y-104219583D01*
X112460912Y-104724320D01*
X112226912Y-105216628D01*
X111931642Y-105682258D01*
X111582386Y-106106961D01*
X111400401Y-106289564D01*
X110955601Y-106653511D01*
X110477248Y-106940235D01*
X109966841Y-107148949D01*
X109562113Y-107254176D01*
X109211314Y-107301225D01*
X108822660Y-107314327D01*
X108425857Y-107294890D01*
X108050611Y-107244319D01*
X107738334Y-107167820D01*
X107208459Y-106955663D01*
X106716148Y-106673466D01*
X106273075Y-106328512D01*
X106061643Y-106122139D01*
X105846380Y-105894530D01*
X105587916Y-106107348D01*
X105362586Y-106308365D01*
X105118120Y-106552324D01*
X104875519Y-106816270D01*
X104655780Y-107077250D01*
X104479905Y-107312308D01*
X104463757Y-107336167D01*
X104265769Y-107632500D01*
X104494798Y-107844395D01*
X104646810Y-108002292D01*
X104736257Y-108141051D01*
X104766041Y-108225395D01*
X104805088Y-108379408D01*
X104848819Y-108548625D01*
X104858348Y-108585000D01*
X104896381Y-108744468D01*
X104934918Y-108928549D01*
X104949449Y-109006085D01*
X105008046Y-109222760D01*
X105099341Y-109430467D01*
X105210297Y-109605137D01*
X105327881Y-109722704D01*
X105342873Y-109732478D01*
X105447317Y-109824501D01*
X105519362Y-109933758D01*
X105580781Y-110023407D01*
X105697292Y-110117876D01*
X105881672Y-110227514D01*
X105882802Y-110228126D01*
X106054366Y-110322941D01*
X106220837Y-110418064D01*
X106349590Y-110494809D01*
X106362500Y-110502867D01*
X106508018Y-110576754D01*
X106662260Y-110629708D01*
X106701167Y-110637965D01*
X106994439Y-110708625D01*
X107213497Y-110812567D01*
X107364187Y-110955526D01*
X107452354Y-111143234D01*
X107483843Y-111381424D01*
X107484097Y-111405889D01*
X107506603Y-111582086D01*
X107564938Y-111779719D01*
X107646151Y-111963352D01*
X107736625Y-112096838D01*
X107894766Y-112206472D01*
X108068232Y-112262165D01*
X108233115Y-112309643D01*
X108420098Y-112380886D01*
X108532643Y-112432744D01*
X108736021Y-112550273D01*
X108974363Y-112710618D01*
X109226053Y-112897064D01*
X109469473Y-113092896D01*
X109683005Y-113281399D01*
X109845033Y-113445858D01*
X109849531Y-113451002D01*
X110101584Y-113706770D01*
X110366855Y-113900543D01*
X110675503Y-114053282D01*
X110768176Y-114089456D01*
X110939549Y-114159442D01*
X111098963Y-114234816D01*
X111212951Y-114299708D01*
X111216138Y-114301893D01*
X111418216Y-114452234D01*
X111649704Y-114641013D01*
X111891773Y-114851310D01*
X112125596Y-115066206D01*
X112332343Y-115268780D01*
X112493187Y-115442113D01*
X112518797Y-115472518D01*
X112654242Y-115629529D01*
X112829621Y-115822057D01*
X113023596Y-116027188D01*
X113214827Y-116222007D01*
X113240347Y-116247334D01*
X113406336Y-116417063D01*
X113555282Y-116579757D01*
X113673951Y-116720201D01*
X113749110Y-116823183D01*
X113762997Y-116848218D01*
X113797420Y-116934351D01*
X113826521Y-117038241D01*
X113850735Y-117167172D01*
X113870495Y-117328427D01*
X113886235Y-117529289D01*
X113898389Y-117777040D01*
X113907390Y-118078964D01*
X113913671Y-118442344D01*
X113917667Y-118874463D01*
X113919810Y-119382603D01*
X113920039Y-119485834D01*
X113923035Y-120229378D01*
X113929054Y-120892614D01*
X113938264Y-121479854D01*
X113950834Y-121995409D01*
X113966930Y-122443588D01*
X113986721Y-122828705D01*
X114010375Y-123155068D01*
X114038058Y-123426990D01*
X114069940Y-123648780D01*
X114085272Y-123731251D01*
X114122738Y-123933382D01*
X114152226Y-124123248D01*
X114169804Y-124273824D01*
X114173000Y-124334501D01*
X114173000Y-124502334D01*
X113770834Y-124502014D01*
X113651748Y-123771924D01*
X113628333Y-123627243D01*
X113608115Y-123496257D01*
X113590765Y-123371482D01*
X113575953Y-123245433D01*
X113563349Y-123110625D01*
X113552623Y-122959573D01*
X113543446Y-122784792D01*
X113535489Y-122578797D01*
X113528420Y-122334104D01*
X113521912Y-122043228D01*
X113515634Y-121698684D01*
X113509257Y-121292987D01*
X113502450Y-120818652D01*
X113494885Y-120268194D01*
X113493743Y-120184334D01*
X113484239Y-119538011D01*
X113474355Y-118965552D01*
X113464134Y-118468462D01*
X113453618Y-118048245D01*
X113442850Y-117706405D01*
X113431873Y-117444447D01*
X113420731Y-117263875D01*
X113409465Y-117166193D01*
X113407420Y-117157500D01*
X113370418Y-117067940D01*
X113301482Y-116964105D01*
X113191277Y-116834491D01*
X113030467Y-116667596D01*
X112926385Y-116564834D01*
X112738445Y-116375982D01*
X112544045Y-116171552D01*
X112365673Y-115975709D01*
X112225818Y-115812620D01*
X112221627Y-115807470D01*
X112072732Y-115639263D01*
X111885361Y-115450491D01*
X111673890Y-115253421D01*
X111452694Y-115060319D01*
X111236147Y-114883453D01*
X111038625Y-114735090D01*
X110874503Y-114627496D01*
X110786334Y-114582661D01*
X110480520Y-114452428D01*
X110234283Y-114329317D01*
X110025286Y-114199037D01*
X109831191Y-114047298D01*
X109629661Y-113859811D01*
X109581987Y-113812225D01*
X109322279Y-113564004D01*
X109054844Y-113332756D01*
X108790410Y-113125933D01*
X108539706Y-112950988D01*
X108313461Y-112815374D01*
X108122405Y-112726542D01*
X107977266Y-112691946D01*
X107968895Y-112691747D01*
X107837246Y-112662885D01*
X107677138Y-112588733D01*
X107517338Y-112486400D01*
X107386609Y-112373000D01*
X107342101Y-112318897D01*
X107225289Y-112105973D01*
X107126435Y-111841281D01*
X107056663Y-111557446D01*
X107036668Y-111423104D01*
X107021348Y-111300715D01*
X106998125Y-111218212D01*
X106951460Y-111163819D01*
X106865817Y-111125764D01*
X106725657Y-111092272D01*
X106556846Y-111059516D01*
X106356178Y-111010473D01*
X106215895Y-110953434D01*
X106165937Y-110916578D01*
X106094364Y-110860188D01*
X105969054Y-110780282D01*
X105812260Y-110690681D01*
X105742609Y-110653608D01*
X105572329Y-110557397D01*
X105418292Y-110456944D01*
X105306042Y-110369358D01*
X105280713Y-110344197D01*
X105189579Y-110242658D01*
X105070424Y-110110222D01*
X104970912Y-109999810D01*
X104770658Y-109729074D01*
X104615159Y-109420455D01*
X104521496Y-109107908D01*
X104521032Y-109105426D01*
X104462258Y-108809893D01*
X104407484Y-108585115D01*
X104351691Y-108417660D01*
X104289865Y-108294097D01*
X104216989Y-108200997D01*
X104165720Y-108154044D01*
X104000939Y-108018561D01*
X103900277Y-108143031D01*
X103820863Y-108246326D01*
X103719334Y-108385062D01*
X103641724Y-108494794D01*
X103483834Y-108722088D01*
X103457654Y-110484461D01*
X103451299Y-110867413D01*
X103444042Y-111227799D01*
X103436172Y-111555971D01*
X103427975Y-111842283D01*
X103419741Y-112077087D01*
X103411755Y-112250738D01*
X103404307Y-112353587D01*
X103401296Y-112373834D01*
X103299346Y-112671261D01*
X103131095Y-112976046D01*
X102891727Y-113295824D01*
X102652426Y-113560700D01*
X102519043Y-113708075D01*
X102403062Y-113852553D01*
X102322034Y-113971565D01*
X102300763Y-114012888D01*
X102249529Y-114118222D01*
X102203448Y-114185663D01*
X102195048Y-114192695D01*
X102155908Y-114237053D01*
X102082954Y-114336575D01*
X101987803Y-114474979D01*
X101913627Y-114587173D01*
X101780180Y-114773405D01*
X101601447Y-114995643D01*
X101394892Y-115233052D01*
X101178589Y-115464167D01*
X100997803Y-115654673D01*
X100825154Y-115845468D01*
X100675368Y-116019648D01*
X100563169Y-116160308D01*
X100523540Y-116216154D01*
X100405659Y-116376893D01*
X100245719Y-116569024D01*
X100059085Y-116776551D01*
X99861122Y-116983476D01*
X99667196Y-117173802D01*
X99492671Y-117331532D01*
X99352912Y-117440669D01*
X99337916Y-117450570D01*
X99190790Y-117553977D01*
X99022690Y-117685368D01*
X98890667Y-117798095D01*
X98755952Y-117917280D01*
X98627870Y-118026687D01*
X98535439Y-118101613D01*
X98413045Y-118195090D01*
X98286096Y-118022467D01*
X98159148Y-117849844D01*
X98366157Y-117665416D01*
X98508698Y-117543765D01*
X98681991Y-117403361D01*
X98845486Y-117276911D01*
X99036159Y-117122842D01*
X99253504Y-116929091D01*
X99482132Y-116711184D01*
X99706655Y-116484650D01*
X99911682Y-116265014D01*
X100081824Y-116067803D01*
X100201611Y-115908667D01*
X100296018Y-115781264D01*
X100435265Y-115612448D01*
X100603821Y-115420167D01*
X100786159Y-115222373D01*
X100879121Y-115125500D01*
X101127674Y-114857027D01*
X101364864Y-114575830D01*
X101578791Y-114297666D01*
X101757556Y-114038295D01*
X101889261Y-113813474D01*
X101923739Y-113742075D01*
X101973498Y-113664329D01*
X102067525Y-113544640D01*
X102190770Y-113401475D01*
X102285996Y-113297575D01*
X102494152Y-113070902D01*
X102652192Y-112884661D01*
X102772876Y-112722587D01*
X102868968Y-112568416D01*
X102894519Y-112522000D01*
X102913914Y-112480594D01*
X102930106Y-112429892D01*
X102943512Y-112361842D01*
X102954549Y-112268396D01*
X102963634Y-112141503D01*
X102971184Y-111973113D01*
X102977616Y-111755177D01*
X102983348Y-111479643D01*
X102988797Y-111138463D01*
X102994379Y-110723586D01*
X102996515Y-110553500D01*
X103001887Y-110097210D01*
X103006826Y-109716401D01*
X103013074Y-109401914D01*
X103022376Y-109144592D01*
X103036475Y-108935278D01*
X103057116Y-108764812D01*
X103086043Y-108624037D01*
X103124999Y-108503796D01*
X103175728Y-108394929D01*
X103239973Y-108288280D01*
X103319480Y-108174691D01*
X103415992Y-108045003D01*
X103494104Y-107940410D01*
X103650038Y-107726216D01*
X103823803Y-107481451D01*
X103987592Y-107245493D01*
X104055346Y-107145667D01*
X104251962Y-106877271D01*
X104495898Y-106581646D01*
X104766308Y-106281783D01*
X105042348Y-106000672D01*
X105303171Y-105761303D01*
X105334925Y-105734407D01*
X105579365Y-105529646D01*
X105429515Y-105261689D01*
X105193726Y-104756648D01*
X105024684Y-104212208D01*
X104923494Y-103642441D01*
X104891257Y-103061418D01*
X104929078Y-102483214D01*
X105038059Y-101921900D01*
X105141618Y-101589178D01*
X105196503Y-101424034D01*
X105217554Y-101321934D01*
X105207068Y-101269351D01*
X105197396Y-101260754D01*
X105133110Y-101242363D01*
X105008458Y-101221930D01*
X104847540Y-101203230D01*
X104805414Y-101199351D01*
X104498232Y-101160379D01*
X104202447Y-101100417D01*
X103933660Y-101024373D01*
X103707470Y-100937157D01*
X103539477Y-100843677D01*
X103465235Y-100777594D01*
X103373807Y-100727303D01*
X103227650Y-100713387D01*
X103048535Y-100735947D01*
X102910867Y-100775017D01*
X102760275Y-100820049D01*
X102533642Y-100876342D01*
X102238591Y-100942155D01*
X101882745Y-101015750D01*
X101685197Y-101054768D01*
X101548233Y-101091913D01*
X101387513Y-101156808D01*
X101192909Y-101254690D01*
X100954290Y-101390799D01*
X100661528Y-101570373D01*
X100541667Y-101646199D01*
X100383847Y-101736396D01*
X100171179Y-101843605D01*
X99928427Y-101956028D01*
X99680355Y-102061865D01*
X99611162Y-102089559D01*
X98998157Y-102330792D01*
X98150662Y-102309085D01*
X97718330Y-102303026D01*
X97350991Y-102310258D01*
X97029740Y-102332691D01*
X96735672Y-102372238D01*
X96449881Y-102430812D01*
X96153463Y-102510323D01*
X96149665Y-102511441D01*
X95739057Y-102619826D01*
X95334971Y-102698441D01*
X94914328Y-102750236D01*
X94454051Y-102778161D01*
X94006768Y-102785334D01*
X93716416Y-102786150D01*
X93493835Y-102789629D01*
X93322134Y-102797312D01*
X93184425Y-102810743D01*
X93063819Y-102831464D01*
X92943427Y-102861019D01*
X92834826Y-102892385D01*
X92628928Y-102945836D01*
X92407851Y-102989827D01*
X92192494Y-103021624D01*
X92003758Y-103038496D01*
X91862541Y-103037710D01*
X91806962Y-103026760D01*
X91771223Y-102999482D01*
X91765315Y-102941507D01*
X91787842Y-102829776D01*
X91793637Y-102806757D01*
X91843569Y-102611027D01*
X92096868Y-102595373D01*
X92260350Y-102574192D01*
X92464443Y-102532240D01*
X92670219Y-102477761D01*
X92710000Y-102465501D01*
X92825474Y-102430284D01*
X92932398Y-102402537D01*
X93043874Y-102380927D01*
X93173003Y-102364123D01*
X93332887Y-102350792D01*
X93536627Y-102339602D01*
X93797325Y-102329221D01*
X94128082Y-102318317D01*
X94170500Y-102316991D01*
X94528003Y-102305293D01*
X94815626Y-102293753D01*
X95048132Y-102280558D01*
X95240287Y-102263895D01*
X95406853Y-102241952D01*
X95562595Y-102212915D01*
X95722277Y-102174973D01*
X95900662Y-102126312D01*
X96032663Y-102088358D01*
X96351617Y-102002301D01*
X96644645Y-101939485D01*
X96933071Y-101897691D01*
X97238221Y-101874699D01*
X97581419Y-101868291D01*
X97983990Y-101876248D01*
X98049565Y-101878498D01*
X98882833Y-101908331D01*
X99447667Y-101682597D01*
X99667315Y-101591669D01*
X99873334Y-101500714D01*
X100045520Y-101419038D01*
X100163666Y-101355942D01*
X100181834Y-101344533D01*
X100505599Y-101137497D01*
X100810082Y-100957721D01*
X101084345Y-100810944D01*
X101317451Y-100702903D01*
X101498462Y-100639337D01*
X101545670Y-100628966D01*
X101793014Y-100583591D01*
X102058636Y-100529966D01*
X102319083Y-100473262D01*
X102550901Y-100418649D01*
X102730638Y-100371298D01*
X102775522Y-100357833D01*
X103073586Y-100283006D01*
X103321171Y-100265677D01*
X103530928Y-100306924D01*
X103715512Y-100407830D01*
X103758350Y-100441783D01*
X103872111Y-100515226D01*
X104027657Y-100588711D01*
X104140748Y-100629831D01*
X104274553Y-100664195D01*
X104452542Y-100699814D01*
X104657470Y-100734426D01*
X104872094Y-100765765D01*
X105079171Y-100791569D01*
X105261458Y-100809572D01*
X105401710Y-100817510D01*
X105482684Y-100813120D01*
X105494469Y-100807583D01*
X105530644Y-100759164D01*
X105601470Y-100660575D01*
X105693140Y-100531076D01*
X105715448Y-100499334D01*
X106060672Y-100079177D01*
X106469506Y-99706598D01*
X106930573Y-99389860D01*
X107432497Y-99137224D01*
X107755481Y-99017607D01*
X107920796Y-98964434D01*
X107818981Y-98882255D01*
X107671332Y-98772413D01*
X107474292Y-98638469D01*
X107253048Y-98496406D01*
X107032785Y-98362205D01*
X106838690Y-98251848D01*
X106764667Y-98213260D01*
X106594567Y-98121840D01*
X106396244Y-98005123D01*
X106187031Y-97874466D01*
X105984261Y-97741225D01*
X105805266Y-97616755D01*
X105667381Y-97512414D01*
X105593553Y-97445978D01*
X105497369Y-97317034D01*
X105391623Y-97139512D01*
X105293277Y-96945241D01*
X105219289Y-96766048D01*
X105201640Y-96710500D01*
X105182877Y-96610518D01*
X105162114Y-96444767D01*
X105141278Y-96232052D01*
X105122297Y-95991181D01*
X105112701Y-95842667D01*
X105095260Y-95571280D01*
X105078062Y-95368770D01*
X105058640Y-95219387D01*
X105034527Y-95107385D01*
X105003258Y-95017015D01*
X104973475Y-94953667D01*
X104910203Y-94830496D01*
X104822884Y-94660365D01*
X104726085Y-94471663D01*
X104680194Y-94382167D01*
X104589187Y-94190459D01*
X104509667Y-93997335D01*
X104453704Y-93833206D01*
X104438844Y-93774102D01*
X104403403Y-93649439D01*
X104339453Y-93471135D01*
X104255615Y-93261641D01*
X104160512Y-93043406D01*
X104146176Y-93012102D01*
X104050984Y-92800910D01*
X103965281Y-92602064D01*
X103897473Y-92435674D01*
X103855968Y-92321847D01*
X103851752Y-92307834D01*
X103816066Y-92219566D01*
X103751899Y-92123919D01*
X103648386Y-92008036D01*
X103494660Y-91859063D01*
X103395434Y-91768027D01*
X103203186Y-91598202D01*
X102995547Y-91422132D01*
X102799632Y-91262445D01*
X102663860Y-91157451D01*
X102485198Y-91019337D01*
X102299346Y-90867088D01*
X102140172Y-90728638D01*
X102108000Y-90698972D01*
X101978826Y-90583651D01*
X101858864Y-90486477D01*
X101772915Y-90427473D01*
X101769334Y-90425559D01*
X101687185Y-90374878D01*
X101561298Y-90288226D01*
X101414739Y-90181645D01*
X101367167Y-90145892D01*
X101176708Y-90016448D01*
X100952176Y-89885568D01*
X100739408Y-89779801D01*
X100722066Y-89772277D01*
X100491719Y-89663138D01*
X100224295Y-89519656D01*
X99949820Y-89359119D01*
X99698320Y-89198815D01*
X99568000Y-89107789D01*
X99484722Y-89052737D01*
X99350481Y-88970312D01*
X99188219Y-88874454D01*
X99106770Y-88827565D01*
X98945347Y-88728491D01*
X98789518Y-88615895D01*
X98623809Y-88476856D01*
X98432747Y-88298454D01*
X98219856Y-88087016D01*
X97980588Y-87840065D01*
X97799399Y-87641070D01*
X97670462Y-87482452D01*
X97587947Y-87356633D01*
X97546026Y-87256035D01*
X97537775Y-87200169D01*
X97573131Y-87151225D01*
X97662935Y-87119858D01*
X97778440Y-87107912D01*
X97890901Y-87117226D01*
X97971574Y-87149642D01*
X97989378Y-87171240D01*
X98047540Y-87257009D01*
X98156010Y-87385310D01*
X98301411Y-87542881D01*
X98470367Y-87716461D01*
X98649502Y-87892789D01*
X98825441Y-88058601D01*
X98984807Y-88200638D01*
X99114224Y-88305638D01*
X99176156Y-88347866D01*
X99301146Y-88423165D01*
X99476962Y-88531416D01*
X99683131Y-88659907D01*
X99899185Y-88795927D01*
X99970167Y-88840936D01*
X100205639Y-88985250D01*
X100459621Y-89132126D01*
X100704236Y-89265952D01*
X100911609Y-89371115D01*
X100943834Y-89386259D01*
X101148341Y-89488012D01*
X101352081Y-89601619D01*
X101525114Y-89709861D01*
X101600000Y-89763704D01*
X101754313Y-89879379D01*
X101915922Y-89993099D01*
X102023334Y-90063453D01*
X102154559Y-90154874D01*
X102310734Y-90278138D01*
X102448468Y-90397957D01*
X102575957Y-90510729D01*
X102747751Y-90655985D01*
X102940980Y-90814672D01*
X103125801Y-90962262D01*
X103331128Y-91128353D01*
X103548862Y-91312400D01*
X103750901Y-91490247D01*
X103889227Y-91618429D01*
X104043791Y-91772263D01*
X104146663Y-91890512D01*
X104211298Y-91991671D01*
X104251151Y-92094233D01*
X104260451Y-92128703D01*
X104297239Y-92243024D01*
X104362015Y-92412402D01*
X104446200Y-92615531D01*
X104541214Y-92831108D01*
X104558780Y-92869536D01*
X104655600Y-93088644D01*
X104743344Y-93302838D01*
X104813191Y-93489524D01*
X104856323Y-93626106D01*
X104860048Y-93641334D01*
X104899084Y-93763535D01*
X104969651Y-93939506D01*
X105062831Y-94148637D01*
X105169709Y-94370315D01*
X105207988Y-94445667D01*
X105502491Y-95017167D01*
X105539146Y-95715667D01*
X105553856Y-95960180D01*
X105570772Y-96183651D01*
X105588307Y-96368547D01*
X105604869Y-96497339D01*
X105614022Y-96541557D01*
X105676925Y-96708027D01*
X105764543Y-96886620D01*
X105860967Y-97048504D01*
X105950290Y-97164846D01*
X105966726Y-97180855D01*
X106077369Y-97267639D01*
X106244945Y-97383483D01*
X106451839Y-97517319D01*
X106680431Y-97658079D01*
X106913105Y-97794694D01*
X107132241Y-97916096D01*
X107162713Y-97932235D01*
X107728701Y-98270153D01*
X108228331Y-98652750D01*
X108257964Y-98678724D01*
X108460095Y-98857373D01*
X108914131Y-98871453D01*
X109480201Y-98929667D01*
X110019003Y-99066370D01*
X110525808Y-99278442D01*
X110995889Y-99562762D01*
X111424517Y-99916207D01*
X111806965Y-100335657D01*
X112138506Y-100817991D01*
X112294519Y-101103128D01*
X112464370Y-101491473D01*
X112601406Y-101906621D01*
X112695080Y-102313942D01*
X112723047Y-102510167D01*
X112754834Y-102806500D01*
X113220500Y-102831297D01*
X113436806Y-102846161D01*
X113645844Y-102866308D01*
X113818479Y-102888655D01*
X113897834Y-102903001D01*
X114044809Y-102934279D01*
X114236465Y-102973338D01*
X114434267Y-103012341D01*
X114457343Y-103016792D01*
X114677893Y-103069795D01*
X114921413Y-103144395D01*
X115134677Y-103224239D01*
X115365661Y-103316712D01*
X115645221Y-103419303D01*
X115949090Y-103523949D01*
X116253001Y-103622590D01*
X116532686Y-103707163D01*
X116763880Y-103769609D01*
X116807831Y-103780037D01*
X116982572Y-103811743D01*
X117203804Y-103840272D01*
X117433359Y-103861002D01*
X117517416Y-103866000D01*
X117941670Y-103886678D01*
X118245111Y-103727589D01*
X118389815Y-103654597D01*
X118506727Y-103607245D01*
X118623338Y-103579105D01*
X118767141Y-103563744D01*
X118965625Y-103554735D01*
X118987259Y-103554011D01*
X119413964Y-103557382D01*
X119810087Y-103594764D01*
X120163235Y-103663677D01*
X120461012Y-103761643D01*
X120691026Y-103886181D01*
X120707343Y-103898129D01*
X120824199Y-103968853D01*
X120998800Y-104054114D01*
X121207730Y-104144344D01*
X121427572Y-104229975D01*
X121634910Y-104301440D01*
X121806324Y-104349173D01*
X121817115Y-104351537D01*
X121929542Y-104365557D01*
X122111589Y-104376293D01*
X122348256Y-104383292D01*
X122624544Y-104386102D01*
X122910306Y-104384478D01*
X123794779Y-104372834D01*
X123873399Y-104267000D01*
X123923407Y-104174070D01*
X123981143Y-104028944D01*
X124034706Y-103861787D01*
X124038251Y-103849102D01*
X124123614Y-103575028D01*
X124210999Y-103369706D01*
X124307414Y-103217368D01*
X124332184Y-103187500D01*
X124376972Y-103100361D01*
X124421224Y-102952546D01*
X124457860Y-102767791D01*
X124458422Y-102764167D01*
X124499431Y-102545272D01*
X124560251Y-102298358D01*
X124644080Y-102013042D01*
X124754118Y-101678939D01*
X124893565Y-101285668D01*
X125015573Y-100955772D01*
X125162986Y-100549522D01*
X125276877Y-100201835D01*
X125361017Y-99895264D01*
X125419177Y-99612359D01*
X125455127Y-99335673D01*
X125472638Y-99047758D01*
X125475945Y-98825478D01*
X125469021Y-98475136D01*
X125448467Y-98196708D01*
X125414718Y-97995965D01*
X125412999Y-97989243D01*
X125363205Y-97851929D01*
X125273081Y-97657034D01*
X125149943Y-97416963D01*
X125001110Y-97144120D01*
X124833897Y-96850911D01*
X124655621Y-96549742D01*
X124473601Y-96253017D01*
X124295153Y-95973142D01*
X124127594Y-95722522D01*
X123978241Y-95513563D01*
X123876701Y-95384628D01*
X123757320Y-95234348D01*
X123613681Y-95040998D01*
X123466641Y-94833154D01*
X123372515Y-94693824D01*
X123251238Y-94515604D01*
X123141334Y-94371370D01*
X123025233Y-94242480D01*
X122885363Y-94110293D01*
X122704151Y-93956169D01*
X122587169Y-93860697D01*
X122376283Y-93687726D01*
X122156566Y-93503726D01*
X121951466Y-93328561D01*
X121784433Y-93182097D01*
X121757047Y-93157442D01*
X121438907Y-92890788D01*
X121116492Y-92660406D01*
X120808066Y-92478453D01*
X120581469Y-92375083D01*
X120429824Y-92313456D01*
X120295604Y-92252775D01*
X120226667Y-92216802D01*
X120069481Y-92131011D01*
X119854513Y-92024414D01*
X119602998Y-91906623D01*
X119336168Y-91787247D01*
X119075256Y-91675896D01*
X118841497Y-91582179D01*
X118745000Y-91546220D01*
X118371082Y-91399758D01*
X118003793Y-91234058D01*
X117664486Y-91059772D01*
X117374510Y-90887552D01*
X117242167Y-90796378D01*
X117112801Y-90690052D01*
X116949288Y-90539730D01*
X116772750Y-90365554D01*
X116607167Y-90190809D01*
X116421661Y-89990490D01*
X116203754Y-89760324D01*
X115981518Y-89529719D01*
X115795495Y-89340570D01*
X115629575Y-89169665D01*
X115476369Y-89003714D01*
X115350699Y-88859328D01*
X115267385Y-88753124D01*
X115255058Y-88734719D01*
X115178986Y-88598910D01*
X115082532Y-88404422D01*
X114974540Y-88171585D01*
X114863853Y-87920729D01*
X114759317Y-87672186D01*
X114669775Y-87446285D01*
X114604072Y-87263357D01*
X114579576Y-87181939D01*
X114519097Y-87010306D01*
X114435095Y-86841753D01*
X114384704Y-86765094D01*
X114215583Y-86535891D01*
X114083568Y-86335822D01*
X113981835Y-86146888D01*
X113903559Y-85951090D01*
X113841918Y-85730427D01*
X113790087Y-85466899D01*
X113741242Y-85142507D01*
X113725604Y-85026500D01*
X113685734Y-84769738D01*
X113638404Y-84566823D01*
X113575241Y-84386940D01*
X113516501Y-84256941D01*
X113411016Y-84021365D01*
X113343394Y-83815345D01*
X113309123Y-83611277D01*
X113303689Y-83381558D01*
X113322581Y-83098585D01*
X113324235Y-83080932D01*
X113342572Y-82876684D01*
X113349860Y-82729475D01*
X113343260Y-82612078D01*
X113319935Y-82497262D01*
X113277045Y-82357801D01*
X113236393Y-82238306D01*
X113178711Y-82057001D01*
X113136261Y-81885396D01*
X113104772Y-81698993D01*
X113079973Y-81473294D01*
X113060925Y-81231700D01*
X113044503Y-80985300D01*
X113036004Y-80808227D01*
X113035983Y-80685460D01*
X113044992Y-80601979D01*
X113063586Y-80542766D01*
X113087913Y-80499420D01*
X113146731Y-80421517D01*
X113196955Y-80403635D01*
X113259440Y-80448698D01*
G37*
X113259440Y-80448698D02*
X113333827Y-80533912D01*
X113381966Y-80598642D01*
X113416573Y-80668751D01*
X113441751Y-80761912D01*
X113461604Y-80895793D01*
X113480237Y-81088065D01*
X113489934Y-81206050D01*
X113519380Y-81501391D01*
X113558697Y-81744334D01*
X113614009Y-81967066D01*
X113665196Y-82127236D01*
X113717497Y-82282332D01*
X113753055Y-82404242D01*
X113774141Y-82514629D01*
X113783022Y-82635151D01*
X113781967Y-82787470D01*
X113773246Y-82993245D01*
X113767626Y-83105092D01*
X113737575Y-83697101D01*
X113914057Y-84068467D01*
X114006700Y-84277784D01*
X114070417Y-84464743D01*
X114115796Y-84666268D01*
X114149637Y-84890066D01*
X114196867Y-85228043D01*
X114242507Y-85496581D01*
X114291209Y-85710679D01*
X114347629Y-85885334D01*
X114416419Y-86035544D01*
X114502234Y-86176307D01*
X114583644Y-86288748D01*
X114745290Y-86510083D01*
X114860393Y-86692918D01*
X114941013Y-86859863D01*
X114999206Y-87033525D01*
X115016639Y-87100617D01*
X115052585Y-87213628D01*
X115117019Y-87383777D01*
X115202147Y-87591704D01*
X115300178Y-87818046D01*
X115348875Y-87926117D01*
X115455745Y-88158214D01*
X115541004Y-88332728D01*
X115617991Y-88469195D01*
X115700045Y-88587151D01*
X115800505Y-88706128D01*
X115932709Y-88845663D01*
X116075905Y-88990887D01*
X116283508Y-89202644D01*
X116516998Y-89444378D01*
X116747535Y-89686048D01*
X116943181Y-89894278D01*
X117182969Y-90142366D01*
X117406655Y-90348478D01*
X117630646Y-90523104D01*
X117871349Y-90676734D01*
X118145171Y-90819857D01*
X118468521Y-90962964D01*
X118850834Y-91113897D01*
X119235262Y-91262347D01*
X119549970Y-91389561D01*
X119805816Y-91500292D01*
X120013658Y-91599296D01*
X120184354Y-91691325D01*
X120226667Y-91716308D01*
X120404695Y-91813165D01*
X120605367Y-91907439D01*
X120713500Y-91951487D01*
X121074740Y-92117704D01*
X121449606Y-92348100D01*
X121817038Y-92629617D01*
X121842863Y-92651700D01*
X122007258Y-92791850D01*
X122208651Y-92961364D01*
X122418355Y-93136185D01*
X122564094Y-93256530D01*
X122975355Y-93594326D01*
X122949336Y-92843867D01*
X122923317Y-92093409D01*
X123036940Y-91913419D01*
X123180565Y-91721302D01*
X123358393Y-91534831D01*
X123543294Y-91380527D01*
X123653977Y-91310277D01*
X123768614Y-91245139D01*
X123859148Y-91179802D01*
X123947969Y-91094438D01*
X124057471Y-90969214D01*
X124108827Y-90907458D01*
X124236180Y-90769372D01*
X124378025Y-90639117D01*
X124468491Y-90569660D01*
X124604977Y-90471959D01*
X124762878Y-90350926D01*
X124862167Y-90270631D01*
X125005361Y-90159036D01*
X125193731Y-90022830D01*
X125405535Y-89876661D01*
X125619035Y-89735180D01*
X125812491Y-89613038D01*
X125964163Y-89524885D01*
X125985136Y-89513867D01*
X126120316Y-89434651D01*
X126257647Y-89340020D01*
X126273313Y-89327978D01*
X126383641Y-89236507D01*
X126518376Y-89117290D01*
X126663839Y-88983412D01*
X126806353Y-88847963D01*
X126932238Y-88724031D01*
X127027815Y-88624704D01*
X127079405Y-88563069D01*
X127084667Y-88551670D01*
X127109028Y-88456523D01*
X127170145Y-88327933D01*
X127250064Y-88197078D01*
X127330833Y-88095132D01*
X127364500Y-88065712D01*
X127444235Y-88003145D01*
X127564470Y-87899956D01*
X127704553Y-87774080D01*
X127768720Y-87714667D01*
X127921635Y-87581193D01*
X128076750Y-87461595D01*
X128208247Y-87375275D01*
X128247525Y-87354834D01*
X128361182Y-87289052D01*
X128499392Y-87189761D01*
X128642812Y-87073419D01*
X128772097Y-86956489D01*
X128867900Y-86855432D01*
X128909557Y-86791506D01*
X128941629Y-86759917D01*
X129019647Y-86759777D01*
X129110183Y-86777164D01*
X129226191Y-86806944D01*
X129302846Y-86833514D01*
X129315547Y-86841103D01*
X129329535Y-86910242D01*
X129285493Y-87016203D01*
X129194488Y-87146880D01*
X129067587Y-87290169D01*
X128915859Y-87433964D01*
X128750370Y-87566159D01*
X128582189Y-87674650D01*
X128526870Y-87703735D01*
X128379112Y-87793368D01*
X128212197Y-87919965D01*
X128062096Y-88056227D01*
X128061203Y-88057136D01*
X127935859Y-88178823D01*
X127820497Y-88280288D01*
X127737222Y-88342270D01*
X127728216Y-88347306D01*
X127657327Y-88408924D01*
X127657051Y-88479454D01*
X127653104Y-88560068D01*
X127617904Y-88586796D01*
X127568005Y-88641849D01*
X127529370Y-88745051D01*
X127524956Y-88766504D01*
X127475625Y-88921231D01*
X127398258Y-89028254D01*
X127306184Y-89069310D01*
X127303951Y-89069334D01*
X127245197Y-89096774D01*
X127144797Y-89169805D01*
X127021319Y-89274496D01*
X126979598Y-89312750D01*
X126847650Y-89432475D01*
X126718018Y-89540676D01*
X126575853Y-89648004D01*
X126406305Y-89765116D01*
X126194522Y-89902664D01*
X125925655Y-90071302D01*
X125900520Y-90086898D01*
X125290723Y-90499616D01*
X124724571Y-90951843D01*
X124378557Y-91270667D01*
X124212935Y-91426693D01*
X124045844Y-91573250D01*
X123898567Y-91692242D01*
X123805985Y-91757500D01*
X123660809Y-91866374D01*
X123524918Y-91999076D01*
X123473322Y-92062989D01*
X123346271Y-92241478D01*
X123386271Y-93105779D01*
X123426272Y-93970080D01*
X123699719Y-94387290D01*
X123835443Y-94587316D01*
X123982675Y-94792942D01*
X124120309Y-94975177D01*
X124196665Y-95069780D01*
X124332586Y-95244077D01*
X124492428Y-95470266D01*
X124669072Y-95736254D01*
X124855399Y-96029945D01*
X125044291Y-96339245D01*
X125228630Y-96652057D01*
X125401296Y-96956288D01*
X125555172Y-97239841D01*
X125683139Y-97490623D01*
X125778077Y-97696538D01*
X125832870Y-97845490D01*
X125835026Y-97853500D01*
X125862374Y-97994818D01*
X125888740Y-98194778D01*
X125911215Y-98427379D01*
X125926887Y-98666618D01*
X125927504Y-98679678D01*
X125937033Y-98935386D01*
X125937274Y-99134836D01*
X125926345Y-99306111D01*
X125902362Y-99477297D01*
X125863442Y-99676476D01*
X125859368Y-99695678D01*
X125802179Y-99934895D01*
X125726844Y-100210137D01*
X125645482Y-100478359D01*
X125603293Y-100605167D01*
X125434337Y-101093416D01*
X125292138Y-101506855D01*
X125175050Y-101850434D01*
X125081428Y-102129101D01*
X125009625Y-102347807D01*
X124957994Y-102511502D01*
X124924891Y-102625134D01*
X124908668Y-102693654D01*
X124908651Y-102693750D01*
X124883984Y-102834999D01*
X125063575Y-102806673D01*
X125183438Y-102784342D01*
X125357165Y-102747744D01*
X125556435Y-102702964D01*
X125666500Y-102677092D01*
X125865371Y-102634882D01*
X126119872Y-102588717D01*
X126401420Y-102543381D01*
X126681432Y-102503662D01*
X126767167Y-102492782D01*
X127014027Y-102459739D01*
X127246230Y-102423624D01*
X127443989Y-102387875D01*
X127587516Y-102355935D01*
X127633726Y-102342124D01*
X127870725Y-102274382D01*
X128161344Y-102217110D01*
X128474736Y-102174980D01*
X128780052Y-102152665D01*
X128899962Y-102150325D01*
X129094433Y-102142848D01*
X129337883Y-102122616D01*
X129596158Y-102092916D01*
X129789593Y-102064696D01*
X129988944Y-102033534D01*
X130171112Y-102009000D01*
X130348399Y-101990738D01*
X130533111Y-101978386D01*
X130737553Y-101971587D01*
X130974029Y-101969980D01*
X131254844Y-101973207D01*
X131592302Y-101980909D01*
X131998708Y-101992725D01*
X132122334Y-101996589D01*
X132478005Y-102007223D01*
X132760685Y-102013943D01*
X132981970Y-102016492D01*
X133153456Y-102014610D01*
X133286741Y-102008041D01*
X133393419Y-101996523D01*
X133485088Y-101979801D01*
X133546611Y-101964839D01*
X133945309Y-101902338D01*
X134343087Y-101924206D01*
X134604958Y-101985460D01*
X134749251Y-102030981D01*
X134857804Y-102067498D01*
X134908922Y-102087686D01*
X134909969Y-102088457D01*
X134908153Y-102134123D01*
X134884324Y-102226339D01*
X134848739Y-102333380D01*
X134811658Y-102423519D01*
X134789779Y-102460157D01*
X134736891Y-102465321D01*
X134625988Y-102447307D01*
X134479297Y-102409953D01*
X134452179Y-102401888D01*
X134174796Y-102340264D01*
X133913152Y-102335636D01*
X133636041Y-102388958D01*
X133501179Y-102431023D01*
X133430445Y-102452569D01*
X133354620Y-102468220D01*
X133262050Y-102478168D01*
X133141077Y-102482605D01*
X132980044Y-102481724D01*
X132767295Y-102475717D01*
X132491174Y-102464776D01*
X132210740Y-102452325D01*
X131776035Y-102433247D01*
X131414277Y-102419374D01*
X131113900Y-102410891D01*
X130863332Y-102407984D01*
X130651006Y-102410837D01*
X130465351Y-102419637D01*
X130294799Y-102434568D01*
X130127780Y-102455815D01*
X129952726Y-102483565D01*
X129921000Y-102489000D01*
X129680806Y-102524718D01*
X129426198Y-102553144D01*
X129194050Y-102570565D01*
X129074334Y-102574225D01*
X128560227Y-102602068D01*
X128059741Y-102686310D01*
X127757433Y-102763882D01*
X127571084Y-102809128D01*
X127330957Y-102855912D01*
X127067650Y-102898797D01*
X126811764Y-102932347D01*
X126804933Y-102933107D01*
X126541562Y-102966485D01*
X126262001Y-103008952D01*
X126000027Y-103054997D01*
X125793500Y-103098140D01*
X125580790Y-103147658D01*
X125367155Y-103196196D01*
X125186239Y-103236155D01*
X125121544Y-103249923D01*
X124922910Y-103306657D01*
X124770653Y-103391821D01*
X124652429Y-103519113D01*
X124555895Y-103702232D01*
X124468708Y-103954876D01*
X124460223Y-103983818D01*
X124398065Y-104176418D01*
X124329952Y-104352650D01*
X124266345Y-104486764D01*
X124236980Y-104533364D01*
X124183274Y-104610948D01*
X124156242Y-104682237D01*
X124151736Y-104774763D01*
X124165609Y-104916057D01*
X124171885Y-104965500D01*
X124181652Y-105094747D01*
X124187799Y-105293455D01*
X124190248Y-105546493D01*
X124188920Y-105838731D01*
X124183737Y-106155038D01*
X124178998Y-106341334D01*
X124170972Y-106636387D01*
X124164622Y-106904009D01*
X124160152Y-107132389D01*
X124157767Y-107309719D01*
X124157672Y-107424190D01*
X124159522Y-107463167D01*
X124172499Y-107525092D01*
X124194259Y-107642539D01*
X124214797Y-107759500D01*
X124250956Y-107911382D01*
X124298928Y-108039061D01*
X124335198Y-108098167D01*
X124380534Y-108183331D01*
X124431191Y-108338472D01*
X124482850Y-108549449D01*
X124503257Y-108648500D01*
X124556385Y-108883170D01*
X124627441Y-109127572D01*
X124722825Y-109400968D01*
X124848937Y-109722616D01*
X124906427Y-109861933D01*
X125145716Y-110483323D01*
X125324141Y-111056653D01*
X125443765Y-111590508D01*
X125506654Y-112093470D01*
X125518084Y-112405129D01*
X125539222Y-112667523D01*
X125597167Y-112897831D01*
X125599343Y-112903626D01*
X125666279Y-113040546D01*
X125771506Y-113212812D01*
X125899350Y-113398764D01*
X126034138Y-113576738D01*
X126160196Y-113725072D01*
X126261852Y-113822104D01*
X126266302Y-113825433D01*
X126339207Y-113896071D01*
X126437368Y-114013144D01*
X126540137Y-114151943D01*
X126544895Y-114158820D01*
X126647743Y-114306896D01*
X126779642Y-114495249D01*
X126920486Y-114695223D01*
X127005721Y-114815629D01*
X127136219Y-115005029D01*
X127263576Y-115199341D01*
X127370172Y-115371225D01*
X127421361Y-115460521D01*
X127541394Y-115659848D01*
X127707043Y-115902622D01*
X127905336Y-116171165D01*
X128123299Y-116447803D01*
X128308957Y-116669857D01*
X128479699Y-116863006D01*
X128611703Y-116998550D01*
X128716785Y-117086800D01*
X128806760Y-117138068D01*
X128867934Y-117157670D01*
X129022763Y-117228175D01*
X129112074Y-117351095D01*
X129132525Y-117521377D01*
X129129176Y-117552739D01*
X129095223Y-117692813D01*
X129036615Y-117753562D01*
X128945364Y-117738672D01*
X128851651Y-117680778D01*
X128718761Y-117593065D01*
X128571706Y-117508297D01*
X128551346Y-117497712D01*
X128448028Y-117428317D01*
X128313230Y-117314944D01*
X128170509Y-117177955D01*
X128119550Y-117124432D01*
X127960091Y-116943651D01*
X127781797Y-116727472D01*
X127596899Y-116492174D01*
X127417629Y-116254038D01*
X127256217Y-116029343D01*
X127124896Y-115834369D01*
X127035894Y-115685397D01*
X127030248Y-115674548D01*
X126957495Y-115546964D01*
X126851372Y-115378813D01*
X126729328Y-115197245D01*
X126663778Y-115104334D01*
X126527152Y-114911905D01*
X126383163Y-114705036D01*
X126255556Y-114517976D01*
X126212903Y-114454076D01*
X126115134Y-114316480D01*
X126025901Y-114208833D01*
X125960974Y-114149675D01*
X125949532Y-114144387D01*
X125886550Y-114098569D01*
X125786800Y-113990124D01*
X125657917Y-113828517D01*
X125507536Y-113623210D01*
X125380405Y-113439084D01*
X125238717Y-113181967D01*
X125140313Y-112905796D01*
X125096052Y-112642666D01*
X125094653Y-112594495D01*
X125054089Y-111972977D01*
X124934216Y-111324680D01*
X124734892Y-110648990D01*
X124501060Y-110048403D01*
X124340256Y-109656678D01*
X124219419Y-109319140D01*
X124132695Y-109018782D01*
X124104123Y-108895373D01*
X124055140Y-108690862D01*
X124000447Y-108501715D01*
X123947779Y-108352976D01*
X123915790Y-108285527D01*
X123854070Y-108147113D01*
X123807612Y-107981395D01*
X123798178Y-107925694D01*
X123775362Y-107789218D01*
X123748590Y-107681074D01*
X123736549Y-107649755D01*
X123728157Y-107589082D01*
X123723969Y-107457135D01*
X123723933Y-107267198D01*
X123727997Y-107032556D01*
X123736109Y-106766495D01*
X123740448Y-106654922D01*
X123750942Y-106349765D01*
X123757767Y-106042342D01*
X123760730Y-105753563D01*
X123759637Y-105504341D01*
X123754292Y-105315589D01*
X123753100Y-105293584D01*
X123727467Y-104859667D01*
X123215317Y-104858094D01*
X122725821Y-104850886D01*
X122310536Y-104831820D01*
X121959697Y-104799847D01*
X121663541Y-104753919D01*
X121412306Y-104692990D01*
X121285000Y-104650979D01*
X121086917Y-104573686D01*
X120886305Y-104487540D01*
X120720446Y-104408708D01*
X120692334Y-104393957D01*
X120457474Y-104268550D01*
X120275656Y-104177102D01*
X120125531Y-104113138D01*
X119985751Y-104070185D01*
X119834970Y-104041770D01*
X119651839Y-104021420D01*
X119415010Y-104002660D01*
X119397688Y-104001374D01*
X118785481Y-103955957D01*
X118433126Y-104137108D01*
X118266451Y-104221019D01*
X118142627Y-104273692D01*
X118031671Y-104302069D01*
X117903599Y-104313092D01*
X117728426Y-104313702D01*
X117673232Y-104313034D01*
X117435959Y-104302858D01*
X117174512Y-104280600D01*
X116937907Y-104250638D01*
X116894096Y-104243454D01*
X116707067Y-104203018D01*
X116461336Y-104138277D01*
X116177095Y-104055648D01*
X115874536Y-103961553D01*
X115573852Y-103862410D01*
X115295236Y-103764640D01*
X115058879Y-103674660D01*
X114922768Y-103616735D01*
X114762335Y-103555309D01*
X114559301Y-103493956D01*
X114354840Y-103444981D01*
X114334555Y-103440978D01*
X114139797Y-103403399D01*
X113948253Y-103366262D01*
X113796985Y-103336755D01*
X113779333Y-103333288D01*
X113642828Y-103315103D01*
X113455003Y-103301250D01*
X113249180Y-103293939D01*
X113176890Y-103293334D01*
X112987229Y-103292993D01*
X112864427Y-103301994D01*
X112792113Y-103335369D01*
X112753919Y-103408152D01*
X112733477Y-103535377D01*
X112715958Y-103716667D01*
X112626356Y-104219583D01*
X112460912Y-104724320D01*
X112226912Y-105216628D01*
X111931642Y-105682258D01*
X111582386Y-106106961D01*
X111400401Y-106289564D01*
X110955601Y-106653511D01*
X110477248Y-106940235D01*
X109966841Y-107148949D01*
X109562113Y-107254176D01*
X109211314Y-107301225D01*
X108822660Y-107314327D01*
X108425857Y-107294890D01*
X108050611Y-107244319D01*
X107738334Y-107167820D01*
X107208459Y-106955663D01*
X106716148Y-106673466D01*
X106273075Y-106328512D01*
X106061643Y-106122139D01*
X105846380Y-105894530D01*
X105587916Y-106107348D01*
X105362586Y-106308365D01*
X105118120Y-106552324D01*
X104875519Y-106816270D01*
X104655780Y-107077250D01*
X104479905Y-107312308D01*
X104463757Y-107336167D01*
X104265769Y-107632500D01*
X104494798Y-107844395D01*
X104646810Y-108002292D01*
X104736257Y-108141051D01*
X104766041Y-108225395D01*
X104805088Y-108379408D01*
X104848819Y-108548625D01*
X104858348Y-108585000D01*
X104896381Y-108744468D01*
X104934918Y-108928549D01*
X104949449Y-109006085D01*
X105008046Y-109222760D01*
X105099341Y-109430467D01*
X105210297Y-109605137D01*
X105327881Y-109722704D01*
X105342873Y-109732478D01*
X105447317Y-109824501D01*
X105519362Y-109933758D01*
X105580781Y-110023407D01*
X105697292Y-110117876D01*
X105881672Y-110227514D01*
X105882802Y-110228126D01*
X106054366Y-110322941D01*
X106220837Y-110418064D01*
X106349590Y-110494809D01*
X106362500Y-110502867D01*
X106508018Y-110576754D01*
X106662260Y-110629708D01*
X106701167Y-110637965D01*
X106994439Y-110708625D01*
X107213497Y-110812567D01*
X107364187Y-110955526D01*
X107452354Y-111143234D01*
X107483843Y-111381424D01*
X107484097Y-111405889D01*
X107506603Y-111582086D01*
X107564938Y-111779719D01*
X107646151Y-111963352D01*
X107736625Y-112096838D01*
X107894766Y-112206472D01*
X108068232Y-112262165D01*
X108233115Y-112309643D01*
X108420098Y-112380886D01*
X108532643Y-112432744D01*
X108736021Y-112550273D01*
X108974363Y-112710618D01*
X109226053Y-112897064D01*
X109469473Y-113092896D01*
X109683005Y-113281399D01*
X109845033Y-113445858D01*
X109849531Y-113451002D01*
X110101584Y-113706770D01*
X110366855Y-113900543D01*
X110675503Y-114053282D01*
X110768176Y-114089456D01*
X110939549Y-114159442D01*
X111098963Y-114234816D01*
X111212951Y-114299708D01*
X111216138Y-114301893D01*
X111418216Y-114452234D01*
X111649704Y-114641013D01*
X111891773Y-114851310D01*
X112125596Y-115066206D01*
X112332343Y-115268780D01*
X112493187Y-115442113D01*
X112518797Y-115472518D01*
X112654242Y-115629529D01*
X112829621Y-115822057D01*
X113023596Y-116027188D01*
X113214827Y-116222007D01*
X113240347Y-116247334D01*
X113406336Y-116417063D01*
X113555282Y-116579757D01*
X113673951Y-116720201D01*
X113749110Y-116823183D01*
X113762997Y-116848218D01*
X113797420Y-116934351D01*
X113826521Y-117038241D01*
X113850735Y-117167172D01*
X113870495Y-117328427D01*
X113886235Y-117529289D01*
X113898389Y-117777040D01*
X113907390Y-118078964D01*
X113913671Y-118442344D01*
X113917667Y-118874463D01*
X113919810Y-119382603D01*
X113920039Y-119485834D01*
X113923035Y-120229378D01*
X113929054Y-120892614D01*
X113938264Y-121479854D01*
X113950834Y-121995409D01*
X113966930Y-122443588D01*
X113986721Y-122828705D01*
X114010375Y-123155068D01*
X114038058Y-123426990D01*
X114069940Y-123648780D01*
X114085272Y-123731251D01*
X114122738Y-123933382D01*
X114152226Y-124123248D01*
X114169804Y-124273824D01*
X114173000Y-124334501D01*
X114173000Y-124502334D01*
X113770834Y-124502014D01*
X113651748Y-123771924D01*
X113628333Y-123627243D01*
X113608115Y-123496257D01*
X113590765Y-123371482D01*
X113575953Y-123245433D01*
X113563349Y-123110625D01*
X113552623Y-122959573D01*
X113543446Y-122784792D01*
X113535489Y-122578797D01*
X113528420Y-122334104D01*
X113521912Y-122043228D01*
X113515634Y-121698684D01*
X113509257Y-121292987D01*
X113502450Y-120818652D01*
X113494885Y-120268194D01*
X113493743Y-120184334D01*
X113484239Y-119538011D01*
X113474355Y-118965552D01*
X113464134Y-118468462D01*
X113453618Y-118048245D01*
X113442850Y-117706405D01*
X113431873Y-117444447D01*
X113420731Y-117263875D01*
X113409465Y-117166193D01*
X113407420Y-117157500D01*
X113370418Y-117067940D01*
X113301482Y-116964105D01*
X113191277Y-116834491D01*
X113030467Y-116667596D01*
X112926385Y-116564834D01*
X112738445Y-116375982D01*
X112544045Y-116171552D01*
X112365673Y-115975709D01*
X112225818Y-115812620D01*
X112221627Y-115807470D01*
X112072732Y-115639263D01*
X111885361Y-115450491D01*
X111673890Y-115253421D01*
X111452694Y-115060319D01*
X111236147Y-114883453D01*
X111038625Y-114735090D01*
X110874503Y-114627496D01*
X110786334Y-114582661D01*
X110480520Y-114452428D01*
X110234283Y-114329317D01*
X110025286Y-114199037D01*
X109831191Y-114047298D01*
X109629661Y-113859811D01*
X109581987Y-113812225D01*
X109322279Y-113564004D01*
X109054844Y-113332756D01*
X108790410Y-113125933D01*
X108539706Y-112950988D01*
X108313461Y-112815374D01*
X108122405Y-112726542D01*
X107977266Y-112691946D01*
X107968895Y-112691747D01*
X107837246Y-112662885D01*
X107677138Y-112588733D01*
X107517338Y-112486400D01*
X107386609Y-112373000D01*
X107342101Y-112318897D01*
X107225289Y-112105973D01*
X107126435Y-111841281D01*
X107056663Y-111557446D01*
X107036668Y-111423104D01*
X107021348Y-111300715D01*
X106998125Y-111218212D01*
X106951460Y-111163819D01*
X106865817Y-111125764D01*
X106725657Y-111092272D01*
X106556846Y-111059516D01*
X106356178Y-111010473D01*
X106215895Y-110953434D01*
X106165937Y-110916578D01*
X106094364Y-110860188D01*
X105969054Y-110780282D01*
X105812260Y-110690681D01*
X105742609Y-110653608D01*
X105572329Y-110557397D01*
X105418292Y-110456944D01*
X105306042Y-110369358D01*
X105280713Y-110344197D01*
X105189579Y-110242658D01*
X105070424Y-110110222D01*
X104970912Y-109999810D01*
X104770658Y-109729074D01*
X104615159Y-109420455D01*
X104521496Y-109107908D01*
X104521032Y-109105426D01*
X104462258Y-108809893D01*
X104407484Y-108585115D01*
X104351691Y-108417660D01*
X104289865Y-108294097D01*
X104216989Y-108200997D01*
X104165720Y-108154044D01*
X104000939Y-108018561D01*
X103900277Y-108143031D01*
X103820863Y-108246326D01*
X103719334Y-108385062D01*
X103641724Y-108494794D01*
X103483834Y-108722088D01*
X103457654Y-110484461D01*
X103451299Y-110867413D01*
X103444042Y-111227799D01*
X103436172Y-111555971D01*
X103427975Y-111842283D01*
X103419741Y-112077087D01*
X103411755Y-112250738D01*
X103404307Y-112353587D01*
X103401296Y-112373834D01*
X103299346Y-112671261D01*
X103131095Y-112976046D01*
X102891727Y-113295824D01*
X102652426Y-113560700D01*
X102519043Y-113708075D01*
X102403062Y-113852553D01*
X102322034Y-113971565D01*
X102300763Y-114012888D01*
X102249529Y-114118222D01*
X102203448Y-114185663D01*
X102195048Y-114192695D01*
X102155908Y-114237053D01*
X102082954Y-114336575D01*
X101987803Y-114474979D01*
X101913627Y-114587173D01*
X101780180Y-114773405D01*
X101601447Y-114995643D01*
X101394892Y-115233052D01*
X101178589Y-115464167D01*
X100997803Y-115654673D01*
X100825154Y-115845468D01*
X100675368Y-116019648D01*
X100563169Y-116160308D01*
X100523540Y-116216154D01*
X100405659Y-116376893D01*
X100245719Y-116569024D01*
X100059085Y-116776551D01*
X99861122Y-116983476D01*
X99667196Y-117173802D01*
X99492671Y-117331532D01*
X99352912Y-117440669D01*
X99337916Y-117450570D01*
X99190790Y-117553977D01*
X99022690Y-117685368D01*
X98890667Y-117798095D01*
X98755952Y-117917280D01*
X98627870Y-118026687D01*
X98535439Y-118101613D01*
X98413045Y-118195090D01*
X98286096Y-118022467D01*
X98159148Y-117849844D01*
X98366157Y-117665416D01*
X98508698Y-117543765D01*
X98681991Y-117403361D01*
X98845486Y-117276911D01*
X99036159Y-117122842D01*
X99253504Y-116929091D01*
X99482132Y-116711184D01*
X99706655Y-116484650D01*
X99911682Y-116265014D01*
X100081824Y-116067803D01*
X100201611Y-115908667D01*
X100296018Y-115781264D01*
X100435265Y-115612448D01*
X100603821Y-115420167D01*
X100786159Y-115222373D01*
X100879121Y-115125500D01*
X101127674Y-114857027D01*
X101364864Y-114575830D01*
X101578791Y-114297666D01*
X101757556Y-114038295D01*
X101889261Y-113813474D01*
X101923739Y-113742075D01*
X101973498Y-113664329D01*
X102067525Y-113544640D01*
X102190770Y-113401475D01*
X102285996Y-113297575D01*
X102494152Y-113070902D01*
X102652192Y-112884661D01*
X102772876Y-112722587D01*
X102868968Y-112568416D01*
X102894519Y-112522000D01*
X102913914Y-112480594D01*
X102930106Y-112429892D01*
X102943512Y-112361842D01*
X102954549Y-112268396D01*
X102963634Y-112141503D01*
X102971184Y-111973113D01*
X102977616Y-111755177D01*
X102983348Y-111479643D01*
X102988797Y-111138463D01*
X102994379Y-110723586D01*
X102996515Y-110553500D01*
X103001887Y-110097210D01*
X103006826Y-109716401D01*
X103013074Y-109401914D01*
X103022376Y-109144592D01*
X103036475Y-108935278D01*
X103057116Y-108764812D01*
X103086043Y-108624037D01*
X103124999Y-108503796D01*
X103175728Y-108394929D01*
X103239973Y-108288280D01*
X103319480Y-108174691D01*
X103415992Y-108045003D01*
X103494104Y-107940410D01*
X103650038Y-107726216D01*
X103823803Y-107481451D01*
X103987592Y-107245493D01*
X104055346Y-107145667D01*
X104251962Y-106877271D01*
X104495898Y-106581646D01*
X104766308Y-106281783D01*
X105042348Y-106000672D01*
X105303171Y-105761303D01*
X105334925Y-105734407D01*
X105579365Y-105529646D01*
X105429515Y-105261689D01*
X105193726Y-104756648D01*
X105024684Y-104212208D01*
X104923494Y-103642441D01*
X104891257Y-103061418D01*
X104929078Y-102483214D01*
X105038059Y-101921900D01*
X105141618Y-101589178D01*
X105196503Y-101424034D01*
X105217554Y-101321934D01*
X105207068Y-101269351D01*
X105197396Y-101260754D01*
X105133110Y-101242363D01*
X105008458Y-101221930D01*
X104847540Y-101203230D01*
X104805414Y-101199351D01*
X104498232Y-101160379D01*
X104202447Y-101100417D01*
X103933660Y-101024373D01*
X103707470Y-100937157D01*
X103539477Y-100843677D01*
X103465235Y-100777594D01*
X103373807Y-100727303D01*
X103227650Y-100713387D01*
X103048535Y-100735947D01*
X102910867Y-100775017D01*
X102760275Y-100820049D01*
X102533642Y-100876342D01*
X102238591Y-100942155D01*
X101882745Y-101015750D01*
X101685197Y-101054768D01*
X101548233Y-101091913D01*
X101387513Y-101156808D01*
X101192909Y-101254690D01*
X100954290Y-101390799D01*
X100661528Y-101570373D01*
X100541667Y-101646199D01*
X100383847Y-101736396D01*
X100171179Y-101843605D01*
X99928427Y-101956028D01*
X99680355Y-102061865D01*
X99611162Y-102089559D01*
X98998157Y-102330792D01*
X98150662Y-102309085D01*
X97718330Y-102303026D01*
X97350991Y-102310258D01*
X97029740Y-102332691D01*
X96735672Y-102372238D01*
X96449881Y-102430812D01*
X96153463Y-102510323D01*
X96149665Y-102511441D01*
X95739057Y-102619826D01*
X95334971Y-102698441D01*
X94914328Y-102750236D01*
X94454051Y-102778161D01*
X94006768Y-102785334D01*
X93716416Y-102786150D01*
X93493835Y-102789629D01*
X93322134Y-102797312D01*
X93184425Y-102810743D01*
X93063819Y-102831464D01*
X92943427Y-102861019D01*
X92834826Y-102892385D01*
X92628928Y-102945836D01*
X92407851Y-102989827D01*
X92192494Y-103021624D01*
X92003758Y-103038496D01*
X91862541Y-103037710D01*
X91806962Y-103026760D01*
X91771223Y-102999482D01*
X91765315Y-102941507D01*
X91787842Y-102829776D01*
X91793637Y-102806757D01*
X91843569Y-102611027D01*
X92096868Y-102595373D01*
X92260350Y-102574192D01*
X92464443Y-102532240D01*
X92670219Y-102477761D01*
X92710000Y-102465501D01*
X92825474Y-102430284D01*
X92932398Y-102402537D01*
X93043874Y-102380927D01*
X93173003Y-102364123D01*
X93332887Y-102350792D01*
X93536627Y-102339602D01*
X93797325Y-102329221D01*
X94128082Y-102318317D01*
X94170500Y-102316991D01*
X94528003Y-102305293D01*
X94815626Y-102293753D01*
X95048132Y-102280558D01*
X95240287Y-102263895D01*
X95406853Y-102241952D01*
X95562595Y-102212915D01*
X95722277Y-102174973D01*
X95900662Y-102126312D01*
X96032663Y-102088358D01*
X96351617Y-102002301D01*
X96644645Y-101939485D01*
X96933071Y-101897691D01*
X97238221Y-101874699D01*
X97581419Y-101868291D01*
X97983990Y-101876248D01*
X98049565Y-101878498D01*
X98882833Y-101908331D01*
X99447667Y-101682597D01*
X99667315Y-101591669D01*
X99873334Y-101500714D01*
X100045520Y-101419038D01*
X100163666Y-101355942D01*
X100181834Y-101344533D01*
X100505599Y-101137497D01*
X100810082Y-100957721D01*
X101084345Y-100810944D01*
X101317451Y-100702903D01*
X101498462Y-100639337D01*
X101545670Y-100628966D01*
X101793014Y-100583591D01*
X102058636Y-100529966D01*
X102319083Y-100473262D01*
X102550901Y-100418649D01*
X102730638Y-100371298D01*
X102775522Y-100357833D01*
X103073586Y-100283006D01*
X103321171Y-100265677D01*
X103530928Y-100306924D01*
X103715512Y-100407830D01*
X103758350Y-100441783D01*
X103872111Y-100515226D01*
X104027657Y-100588711D01*
X104140748Y-100629831D01*
X104274553Y-100664195D01*
X104452542Y-100699814D01*
X104657470Y-100734426D01*
X104872094Y-100765765D01*
X105079171Y-100791569D01*
X105261458Y-100809572D01*
X105401710Y-100817510D01*
X105482684Y-100813120D01*
X105494469Y-100807583D01*
X105530644Y-100759164D01*
X105601470Y-100660575D01*
X105693140Y-100531076D01*
X105715448Y-100499334D01*
X106060672Y-100079177D01*
X106469506Y-99706598D01*
X106930573Y-99389860D01*
X107432497Y-99137224D01*
X107755481Y-99017607D01*
X107920796Y-98964434D01*
X107818981Y-98882255D01*
X107671332Y-98772413D01*
X107474292Y-98638469D01*
X107253048Y-98496406D01*
X107032785Y-98362205D01*
X106838690Y-98251848D01*
X106764667Y-98213260D01*
X106594567Y-98121840D01*
X106396244Y-98005123D01*
X106187031Y-97874466D01*
X105984261Y-97741225D01*
X105805266Y-97616755D01*
X105667381Y-97512414D01*
X105593553Y-97445978D01*
X105497369Y-97317034D01*
X105391623Y-97139512D01*
X105293277Y-96945241D01*
X105219289Y-96766048D01*
X105201640Y-96710500D01*
X105182877Y-96610518D01*
X105162114Y-96444767D01*
X105141278Y-96232052D01*
X105122297Y-95991181D01*
X105112701Y-95842667D01*
X105095260Y-95571280D01*
X105078062Y-95368770D01*
X105058640Y-95219387D01*
X105034527Y-95107385D01*
X105003258Y-95017015D01*
X104973475Y-94953667D01*
X104910203Y-94830496D01*
X104822884Y-94660365D01*
X104726085Y-94471663D01*
X104680194Y-94382167D01*
X104589187Y-94190459D01*
X104509667Y-93997335D01*
X104453704Y-93833206D01*
X104438844Y-93774102D01*
X104403403Y-93649439D01*
X104339453Y-93471135D01*
X104255615Y-93261641D01*
X104160512Y-93043406D01*
X104146176Y-93012102D01*
X104050984Y-92800910D01*
X103965281Y-92602064D01*
X103897473Y-92435674D01*
X103855968Y-92321847D01*
X103851752Y-92307834D01*
X103816066Y-92219566D01*
X103751899Y-92123919D01*
X103648386Y-92008036D01*
X103494660Y-91859063D01*
X103395434Y-91768027D01*
X103203186Y-91598202D01*
X102995547Y-91422132D01*
X102799632Y-91262445D01*
X102663860Y-91157451D01*
X102485198Y-91019337D01*
X102299346Y-90867088D01*
X102140172Y-90728638D01*
X102108000Y-90698972D01*
X101978826Y-90583651D01*
X101858864Y-90486477D01*
X101772915Y-90427473D01*
X101769334Y-90425559D01*
X101687185Y-90374878D01*
X101561298Y-90288226D01*
X101414739Y-90181645D01*
X101367167Y-90145892D01*
X101176708Y-90016448D01*
X100952176Y-89885568D01*
X100739408Y-89779801D01*
X100722066Y-89772277D01*
X100491719Y-89663138D01*
X100224295Y-89519656D01*
X99949820Y-89359119D01*
X99698320Y-89198815D01*
X99568000Y-89107789D01*
X99484722Y-89052737D01*
X99350481Y-88970312D01*
X99188219Y-88874454D01*
X99106770Y-88827565D01*
X98945347Y-88728491D01*
X98789518Y-88615895D01*
X98623809Y-88476856D01*
X98432747Y-88298454D01*
X98219856Y-88087016D01*
X97980588Y-87840065D01*
X97799399Y-87641070D01*
X97670462Y-87482452D01*
X97587947Y-87356633D01*
X97546026Y-87256035D01*
X97537775Y-87200169D01*
X97573131Y-87151225D01*
X97662935Y-87119858D01*
X97778440Y-87107912D01*
X97890901Y-87117226D01*
X97971574Y-87149642D01*
X97989378Y-87171240D01*
X98047540Y-87257009D01*
X98156010Y-87385310D01*
X98301411Y-87542881D01*
X98470367Y-87716461D01*
X98649502Y-87892789D01*
X98825441Y-88058601D01*
X98984807Y-88200638D01*
X99114224Y-88305638D01*
X99176156Y-88347866D01*
X99301146Y-88423165D01*
X99476962Y-88531416D01*
X99683131Y-88659907D01*
X99899185Y-88795927D01*
X99970167Y-88840936D01*
X100205639Y-88985250D01*
X100459621Y-89132126D01*
X100704236Y-89265952D01*
X100911609Y-89371115D01*
X100943834Y-89386259D01*
X101148341Y-89488012D01*
X101352081Y-89601619D01*
X101525114Y-89709861D01*
X101600000Y-89763704D01*
X101754313Y-89879379D01*
X101915922Y-89993099D01*
X102023334Y-90063453D01*
X102154559Y-90154874D01*
X102310734Y-90278138D01*
X102448468Y-90397957D01*
X102575957Y-90510729D01*
X102747751Y-90655985D01*
X102940980Y-90814672D01*
X103125801Y-90962262D01*
X103331128Y-91128353D01*
X103548862Y-91312400D01*
X103750901Y-91490247D01*
X103889227Y-91618429D01*
X104043791Y-91772263D01*
X104146663Y-91890512D01*
X104211298Y-91991671D01*
X104251151Y-92094233D01*
X104260451Y-92128703D01*
X104297239Y-92243024D01*
X104362015Y-92412402D01*
X104446200Y-92615531D01*
X104541214Y-92831108D01*
X104558780Y-92869536D01*
X104655600Y-93088644D01*
X104743344Y-93302838D01*
X104813191Y-93489524D01*
X104856323Y-93626106D01*
X104860048Y-93641334D01*
X104899084Y-93763535D01*
X104969651Y-93939506D01*
X105062831Y-94148637D01*
X105169709Y-94370315D01*
X105207988Y-94445667D01*
X105502491Y-95017167D01*
X105539146Y-95715667D01*
X105553856Y-95960180D01*
X105570772Y-96183651D01*
X105588307Y-96368547D01*
X105604869Y-96497339D01*
X105614022Y-96541557D01*
X105676925Y-96708027D01*
X105764543Y-96886620D01*
X105860967Y-97048504D01*
X105950290Y-97164846D01*
X105966726Y-97180855D01*
X106077369Y-97267639D01*
X106244945Y-97383483D01*
X106451839Y-97517319D01*
X106680431Y-97658079D01*
X106913105Y-97794694D01*
X107132241Y-97916096D01*
X107162713Y-97932235D01*
X107728701Y-98270153D01*
X108228331Y-98652750D01*
X108257964Y-98678724D01*
X108460095Y-98857373D01*
X108914131Y-98871453D01*
X109480201Y-98929667D01*
X110019003Y-99066370D01*
X110525808Y-99278442D01*
X110995889Y-99562762D01*
X111424517Y-99916207D01*
X111806965Y-100335657D01*
X112138506Y-100817991D01*
X112294519Y-101103128D01*
X112464370Y-101491473D01*
X112601406Y-101906621D01*
X112695080Y-102313942D01*
X112723047Y-102510167D01*
X112754834Y-102806500D01*
X113220500Y-102831297D01*
X113436806Y-102846161D01*
X113645844Y-102866308D01*
X113818479Y-102888655D01*
X113897834Y-102903001D01*
X114044809Y-102934279D01*
X114236465Y-102973338D01*
X114434267Y-103012341D01*
X114457343Y-103016792D01*
X114677893Y-103069795D01*
X114921413Y-103144395D01*
X115134677Y-103224239D01*
X115365661Y-103316712D01*
X115645221Y-103419303D01*
X115949090Y-103523949D01*
X116253001Y-103622590D01*
X116532686Y-103707163D01*
X116763880Y-103769609D01*
X116807831Y-103780037D01*
X116982572Y-103811743D01*
X117203804Y-103840272D01*
X117433359Y-103861002D01*
X117517416Y-103866000D01*
X117941670Y-103886678D01*
X118245111Y-103727589D01*
X118389815Y-103654597D01*
X118506727Y-103607245D01*
X118623338Y-103579105D01*
X118767141Y-103563744D01*
X118965625Y-103554735D01*
X118987259Y-103554011D01*
X119413964Y-103557382D01*
X119810087Y-103594764D01*
X120163235Y-103663677D01*
X120461012Y-103761643D01*
X120691026Y-103886181D01*
X120707343Y-103898129D01*
X120824199Y-103968853D01*
X120998800Y-104054114D01*
X121207730Y-104144344D01*
X121427572Y-104229975D01*
X121634910Y-104301440D01*
X121806324Y-104349173D01*
X121817115Y-104351537D01*
X121929542Y-104365557D01*
X122111589Y-104376293D01*
X122348256Y-104383292D01*
X122624544Y-104386102D01*
X122910306Y-104384478D01*
X123794779Y-104372834D01*
X123873399Y-104267000D01*
X123923407Y-104174070D01*
X123981143Y-104028944D01*
X124034706Y-103861787D01*
X124038251Y-103849102D01*
X124123614Y-103575028D01*
X124210999Y-103369706D01*
X124307414Y-103217368D01*
X124332184Y-103187500D01*
X124376972Y-103100361D01*
X124421224Y-102952546D01*
X124457860Y-102767791D01*
X124458422Y-102764167D01*
X124499431Y-102545272D01*
X124560251Y-102298358D01*
X124644080Y-102013042D01*
X124754118Y-101678939D01*
X124893565Y-101285668D01*
X125015573Y-100955772D01*
X125162986Y-100549522D01*
X125276877Y-100201835D01*
X125361017Y-99895264D01*
X125419177Y-99612359D01*
X125455127Y-99335673D01*
X125472638Y-99047758D01*
X125475945Y-98825478D01*
X125469021Y-98475136D01*
X125448467Y-98196708D01*
X125414718Y-97995965D01*
X125412999Y-97989243D01*
X125363205Y-97851929D01*
X125273081Y-97657034D01*
X125149943Y-97416963D01*
X125001110Y-97144120D01*
X124833897Y-96850911D01*
X124655621Y-96549742D01*
X124473601Y-96253017D01*
X124295153Y-95973142D01*
X124127594Y-95722522D01*
X123978241Y-95513563D01*
X123876701Y-95384628D01*
X123757320Y-95234348D01*
X123613681Y-95040998D01*
X123466641Y-94833154D01*
X123372515Y-94693824D01*
X123251238Y-94515604D01*
X123141334Y-94371370D01*
X123025233Y-94242480D01*
X122885363Y-94110293D01*
X122704151Y-93956169D01*
X122587169Y-93860697D01*
X122376283Y-93687726D01*
X122156566Y-93503726D01*
X121951466Y-93328561D01*
X121784433Y-93182097D01*
X121757047Y-93157442D01*
X121438907Y-92890788D01*
X121116492Y-92660406D01*
X120808066Y-92478453D01*
X120581469Y-92375083D01*
X120429824Y-92313456D01*
X120295604Y-92252775D01*
X120226667Y-92216802D01*
X120069481Y-92131011D01*
X119854513Y-92024414D01*
X119602998Y-91906623D01*
X119336168Y-91787247D01*
X119075256Y-91675896D01*
X118841497Y-91582179D01*
X118745000Y-91546220D01*
X118371082Y-91399758D01*
X118003793Y-91234058D01*
X117664486Y-91059772D01*
X117374510Y-90887552D01*
X117242167Y-90796378D01*
X117112801Y-90690052D01*
X116949288Y-90539730D01*
X116772750Y-90365554D01*
X116607167Y-90190809D01*
X116421661Y-89990490D01*
X116203754Y-89760324D01*
X115981518Y-89529719D01*
X115795495Y-89340570D01*
X115629575Y-89169665D01*
X115476369Y-89003714D01*
X115350699Y-88859328D01*
X115267385Y-88753124D01*
X115255058Y-88734719D01*
X115178986Y-88598910D01*
X115082532Y-88404422D01*
X114974540Y-88171585D01*
X114863853Y-87920729D01*
X114759317Y-87672186D01*
X114669775Y-87446285D01*
X114604072Y-87263357D01*
X114579576Y-87181939D01*
X114519097Y-87010306D01*
X114435095Y-86841753D01*
X114384704Y-86765094D01*
X114215583Y-86535891D01*
X114083568Y-86335822D01*
X113981835Y-86146888D01*
X113903559Y-85951090D01*
X113841918Y-85730427D01*
X113790087Y-85466899D01*
X113741242Y-85142507D01*
X113725604Y-85026500D01*
X113685734Y-84769738D01*
X113638404Y-84566823D01*
X113575241Y-84386940D01*
X113516501Y-84256941D01*
X113411016Y-84021365D01*
X113343394Y-83815345D01*
X113309123Y-83611277D01*
X113303689Y-83381558D01*
X113322581Y-83098585D01*
X113324235Y-83080932D01*
X113342572Y-82876684D01*
X113349860Y-82729475D01*
X113343260Y-82612078D01*
X113319935Y-82497262D01*
X113277045Y-82357801D01*
X113236393Y-82238306D01*
X113178711Y-82057001D01*
X113136261Y-81885396D01*
X113104772Y-81698993D01*
X113079973Y-81473294D01*
X113060925Y-81231700D01*
X113044503Y-80985300D01*
X113036004Y-80808227D01*
X113035983Y-80685460D01*
X113044992Y-80601979D01*
X113063586Y-80542766D01*
X113087913Y-80499420D01*
X113146731Y-80421517D01*
X113196955Y-80403635D01*
X113259440Y-80448698D01*
G36*
X120769348Y-105623867D02*
G01*
X121241512Y-105721969D01*
X121700380Y-105886728D01*
X122138831Y-106118651D01*
X122549747Y-106418250D01*
X122926008Y-106786034D01*
X123255882Y-107215548D01*
X123511930Y-107676013D01*
X123698905Y-108174906D01*
X123815743Y-108700228D01*
X123861384Y-109239980D01*
X123834763Y-109782162D01*
X123734820Y-110314776D01*
X123572896Y-110796400D01*
X123328467Y-111277700D01*
X123017193Y-111716406D01*
X122647516Y-112105019D01*
X122227880Y-112436040D01*
X121766728Y-112701971D01*
X121272505Y-112895314D01*
X121179167Y-112922242D01*
X120966616Y-112964197D01*
X120698954Y-112993597D01*
X120403887Y-113009597D01*
X120109119Y-113011353D01*
X119842358Y-112998020D01*
X119634000Y-112969331D01*
X119112440Y-112817773D01*
X118633234Y-112597994D01*
X118199677Y-112316887D01*
X117815061Y-111981349D01*
X117482680Y-111598276D01*
X117205828Y-111174564D01*
X116987800Y-110717107D01*
X116831888Y-110232802D01*
X116741387Y-109728544D01*
X116719589Y-109211230D01*
X116769790Y-108687754D01*
X116895282Y-108165012D01*
X117096253Y-107656386D01*
X117367706Y-107177515D01*
X117689939Y-106760714D01*
X118055831Y-106406492D01*
X118458264Y-106115359D01*
X118890118Y-105887825D01*
X119344272Y-105724399D01*
X119813609Y-105625591D01*
X120291007Y-105591911D01*
X120769348Y-105623867D01*
G37*
X120769348Y-105623867D02*
X121241512Y-105721969D01*
X121700380Y-105886728D01*
X122138831Y-106118651D01*
X122549747Y-106418250D01*
X122926008Y-106786034D01*
X123255882Y-107215548D01*
X123511930Y-107676013D01*
X123698905Y-108174906D01*
X123815743Y-108700228D01*
X123861384Y-109239980D01*
X123834763Y-109782162D01*
X123734820Y-110314776D01*
X123572896Y-110796400D01*
X123328467Y-111277700D01*
X123017193Y-111716406D01*
X122647516Y-112105019D01*
X122227880Y-112436040D01*
X121766728Y-112701971D01*
X121272505Y-112895314D01*
X121179167Y-112922242D01*
X120966616Y-112964197D01*
X120698954Y-112993597D01*
X120403887Y-113009597D01*
X120109119Y-113011353D01*
X119842358Y-112998020D01*
X119634000Y-112969331D01*
X119112440Y-112817773D01*
X118633234Y-112597994D01*
X118199677Y-112316887D01*
X117815061Y-111981349D01*
X117482680Y-111598276D01*
X117205828Y-111174564D01*
X116987800Y-110717107D01*
X116831888Y-110232802D01*
X116741387Y-109728544D01*
X116719589Y-109211230D01*
X116769790Y-108687754D01*
X116895282Y-108165012D01*
X117096253Y-107656386D01*
X117367706Y-107177515D01*
X117689939Y-106760714D01*
X118055831Y-106406492D01*
X118458264Y-106115359D01*
X118890118Y-105887825D01*
X119344272Y-105724399D01*
X119813609Y-105625591D01*
X120291007Y-105591911D01*
X120769348Y-105623867D01*
G36*
X120879686Y-95221648D02*
G01*
X121460510Y-95295081D01*
X122007033Y-95440706D01*
X122513984Y-95655116D01*
X122976088Y-95934904D01*
X123388074Y-96276664D01*
X123744670Y-96676990D01*
X124040601Y-97132475D01*
X124140212Y-97328091D01*
X124266206Y-97619523D01*
X124352508Y-97886866D01*
X124405201Y-98158885D01*
X124430368Y-98464344D01*
X124434858Y-98721334D01*
X124425381Y-99063659D01*
X124393465Y-99352280D01*
X124332581Y-99616650D01*
X124236201Y-99886223D01*
X124118886Y-100146884D01*
X123855450Y-100600020D01*
X123527131Y-101005732D01*
X123141798Y-101359904D01*
X122707320Y-101658420D01*
X122231566Y-101897165D01*
X121722404Y-102072023D01*
X121187703Y-102178878D01*
X120635332Y-102213616D01*
X120213043Y-102189741D01*
X119662182Y-102092294D01*
X119145631Y-101926547D01*
X118668686Y-101698011D01*
X118236641Y-101412194D01*
X117854794Y-101074607D01*
X117528438Y-100690758D01*
X117262870Y-100266158D01*
X117063385Y-99806316D01*
X116935278Y-99316741D01*
X116883845Y-98802943D01*
X116883069Y-98725145D01*
X116901073Y-98313599D01*
X116957653Y-97951833D01*
X117058853Y-97611458D01*
X117181316Y-97324334D01*
X117452824Y-96852052D01*
X117787323Y-96431304D01*
X118177711Y-96066126D01*
X118616892Y-95760553D01*
X119097764Y-95518622D01*
X119613229Y-95344369D01*
X120156189Y-95241830D01*
X120719542Y-95215042D01*
X120879686Y-95221648D01*
G37*
X120879686Y-95221648D02*
X121460510Y-95295081D01*
X122007033Y-95440706D01*
X122513984Y-95655116D01*
X122976088Y-95934904D01*
X123388074Y-96276664D01*
X123744670Y-96676990D01*
X124040601Y-97132475D01*
X124140212Y-97328091D01*
X124266206Y-97619523D01*
X124352508Y-97886866D01*
X124405201Y-98158885D01*
X124430368Y-98464344D01*
X124434858Y-98721334D01*
X124425381Y-99063659D01*
X124393465Y-99352280D01*
X124332581Y-99616650D01*
X124236201Y-99886223D01*
X124118886Y-100146884D01*
X123855450Y-100600020D01*
X123527131Y-101005732D01*
X123141798Y-101359904D01*
X122707320Y-101658420D01*
X122231566Y-101897165D01*
X121722404Y-102072023D01*
X121187703Y-102178878D01*
X120635332Y-102213616D01*
X120213043Y-102189741D01*
X119662182Y-102092294D01*
X119145631Y-101926547D01*
X118668686Y-101698011D01*
X118236641Y-101412194D01*
X117854794Y-101074607D01*
X117528438Y-100690758D01*
X117262870Y-100266158D01*
X117063385Y-99806316D01*
X116935278Y-99316741D01*
X116883845Y-98802943D01*
X116883069Y-98725145D01*
X116901073Y-98313599D01*
X116957653Y-97951833D01*
X117058853Y-97611458D01*
X117181316Y-97324334D01*
X117452824Y-96852052D01*
X117787323Y-96431304D01*
X118177711Y-96066126D01*
X118616892Y-95760553D01*
X119097764Y-95518622D01*
X119613229Y-95344369D01*
X120156189Y-95241830D01*
X120719542Y-95215042D01*
X120879686Y-95221648D01*
D11*
X114354154Y-94633051D02*
X114354154Y-94633051D01*
X112558102Y-96429102D02*
X112558102Y-96429102D01*
X112558102Y-92837000D02*
X112558102Y-92837000D01*
X110762051Y-94633051D02*
X110762051Y-94633051D01*
X110762051Y-91040949D02*
X110762051Y-91040949D01*
G04 #@! TA.AperFunction,ComponentPad*
D12*
G36*
X108966000Y-94039082D02*
G01*
X107763918Y-92837000D01*
X108966000Y-91634918D01*
X110168082Y-92837000D01*
X108966000Y-94039082D01*
G37*
G04 #@! TD.AperFunction*
G04 #@! TA.AperFunction,SMDPad,CuDef*
G36*
X129892642Y-117867131D02*
G01*
X129915697Y-117870550D01*
X129938306Y-117876214D01*
X129960250Y-117884066D01*
X129981320Y-117894031D01*
X130001311Y-117906013D01*
X130020031Y-117919897D01*
X130037301Y-117935549D01*
X130443887Y-118342135D01*
X130459539Y-118359405D01*
X130473423Y-118378125D01*
X130485405Y-118398116D01*
X130495370Y-118419186D01*
X130503222Y-118441130D01*
X130508886Y-118463739D01*
X130512305Y-118486794D01*
X130513449Y-118510073D01*
X130512305Y-118533352D01*
X130508886Y-118556407D01*
X130503222Y-118579016D01*
X130495370Y-118600960D01*
X130485405Y-118622030D01*
X130473423Y-118642021D01*
X130459539Y-118660741D01*
X130443887Y-118678011D01*
X130108011Y-119013887D01*
X130090741Y-119029539D01*
X130072021Y-119043423D01*
X130052030Y-119055405D01*
X130030960Y-119065370D01*
X130009016Y-119073222D01*
X129986407Y-119078886D01*
X129963352Y-119082305D01*
X129940073Y-119083449D01*
X129916794Y-119082305D01*
X129893739Y-119078886D01*
X129871130Y-119073222D01*
X129849186Y-119065370D01*
X129828116Y-119055405D01*
X129808125Y-119043423D01*
X129789405Y-119029539D01*
X129772135Y-119013887D01*
X129365549Y-118607301D01*
X129349897Y-118590031D01*
X129336013Y-118571311D01*
X129324031Y-118551320D01*
X129314066Y-118530250D01*
X129306214Y-118508306D01*
X129300550Y-118485697D01*
X129297131Y-118462642D01*
X129295987Y-118439363D01*
X129297131Y-118416084D01*
X129300550Y-118393029D01*
X129306214Y-118370420D01*
X129314066Y-118348476D01*
X129324031Y-118327406D01*
X129336013Y-118307415D01*
X129349897Y-118288695D01*
X129365549Y-118271425D01*
X129701425Y-117935549D01*
X129718695Y-117919897D01*
X129737415Y-117906013D01*
X129757406Y-117894031D01*
X129778476Y-117884066D01*
X129800420Y-117876214D01*
X129823029Y-117870550D01*
X129846084Y-117867131D01*
X129869363Y-117865987D01*
X129892642Y-117867131D01*
G37*
G04 #@! TD.AperFunction*
G04 #@! TA.AperFunction,SMDPad,CuDef*
G36*
X128655206Y-116629695D02*
G01*
X128678261Y-116633114D01*
X128700870Y-116638778D01*
X128722814Y-116646630D01*
X128743884Y-116656595D01*
X128763875Y-116668577D01*
X128782595Y-116682461D01*
X128799865Y-116698113D01*
X129206451Y-117104699D01*
X129222103Y-117121969D01*
X129235987Y-117140689D01*
X129247969Y-117160680D01*
X129257934Y-117181750D01*
X129265786Y-117203694D01*
X129271450Y-117226303D01*
X129274869Y-117249358D01*
X129276013Y-117272637D01*
X129274869Y-117295916D01*
X129271450Y-117318971D01*
X129265786Y-117341580D01*
X129257934Y-117363524D01*
X129247969Y-117384594D01*
X129235987Y-117404585D01*
X129222103Y-117423305D01*
X129206451Y-117440575D01*
X128870575Y-117776451D01*
X128853305Y-117792103D01*
X128834585Y-117805987D01*
X128814594Y-117817969D01*
X128793524Y-117827934D01*
X128771580Y-117835786D01*
X128748971Y-117841450D01*
X128725916Y-117844869D01*
X128702637Y-117846013D01*
X128679358Y-117844869D01*
X128656303Y-117841450D01*
X128633694Y-117835786D01*
X128611750Y-117827934D01*
X128590680Y-117817969D01*
X128570689Y-117805987D01*
X128551969Y-117792103D01*
X128534699Y-117776451D01*
X128128113Y-117369865D01*
X128112461Y-117352595D01*
X128098577Y-117333875D01*
X128086595Y-117313884D01*
X128076630Y-117292814D01*
X128068778Y-117270870D01*
X128063114Y-117248261D01*
X128059695Y-117225206D01*
X128058551Y-117201927D01*
X128059695Y-117178648D01*
X128063114Y-117155593D01*
X128068778Y-117132984D01*
X128076630Y-117111040D01*
X128086595Y-117089970D01*
X128098577Y-117069979D01*
X128112461Y-117051259D01*
X128128113Y-117033989D01*
X128463989Y-116698113D01*
X128481259Y-116682461D01*
X128499979Y-116668577D01*
X128519970Y-116656595D01*
X128541040Y-116646630D01*
X128562984Y-116638778D01*
X128585593Y-116633114D01*
X128608648Y-116629695D01*
X128631927Y-116628551D01*
X128655206Y-116629695D01*
G37*
G04 #@! TD.AperFunction*
G04 #@! TA.AperFunction,SMDPad,CuDef*
G36*
X97032206Y-85514695D02*
G01*
X97055261Y-85518114D01*
X97077870Y-85523778D01*
X97099814Y-85531630D01*
X97120884Y-85541595D01*
X97140875Y-85553577D01*
X97159595Y-85567461D01*
X97176865Y-85583113D01*
X97583451Y-85989699D01*
X97599103Y-86006969D01*
X97612987Y-86025689D01*
X97624969Y-86045680D01*
X97634934Y-86066750D01*
X97642786Y-86088694D01*
X97648450Y-86111303D01*
X97651869Y-86134358D01*
X97653013Y-86157637D01*
X97651869Y-86180916D01*
X97648450Y-86203971D01*
X97642786Y-86226580D01*
X97634934Y-86248524D01*
X97624969Y-86269594D01*
X97612987Y-86289585D01*
X97599103Y-86308305D01*
X97583451Y-86325575D01*
X97247575Y-86661451D01*
X97230305Y-86677103D01*
X97211585Y-86690987D01*
X97191594Y-86702969D01*
X97170524Y-86712934D01*
X97148580Y-86720786D01*
X97125971Y-86726450D01*
X97102916Y-86729869D01*
X97079637Y-86731013D01*
X97056358Y-86729869D01*
X97033303Y-86726450D01*
X97010694Y-86720786D01*
X96988750Y-86712934D01*
X96967680Y-86702969D01*
X96947689Y-86690987D01*
X96928969Y-86677103D01*
X96911699Y-86661451D01*
X96505113Y-86254865D01*
X96489461Y-86237595D01*
X96475577Y-86218875D01*
X96463595Y-86198884D01*
X96453630Y-86177814D01*
X96445778Y-86155870D01*
X96440114Y-86133261D01*
X96436695Y-86110206D01*
X96435551Y-86086927D01*
X96436695Y-86063648D01*
X96440114Y-86040593D01*
X96445778Y-86017984D01*
X96453630Y-85996040D01*
X96463595Y-85974970D01*
X96475577Y-85954979D01*
X96489461Y-85936259D01*
X96505113Y-85918989D01*
X96840989Y-85583113D01*
X96858259Y-85567461D01*
X96876979Y-85553577D01*
X96896970Y-85541595D01*
X96918040Y-85531630D01*
X96939984Y-85523778D01*
X96962593Y-85518114D01*
X96985648Y-85514695D01*
X97008927Y-85513551D01*
X97032206Y-85514695D01*
G37*
G04 #@! TD.AperFunction*
G04 #@! TA.AperFunction,SMDPad,CuDef*
G36*
X98269642Y-86752131D02*
G01*
X98292697Y-86755550D01*
X98315306Y-86761214D01*
X98337250Y-86769066D01*
X98358320Y-86779031D01*
X98378311Y-86791013D01*
X98397031Y-86804897D01*
X98414301Y-86820549D01*
X98820887Y-87227135D01*
X98836539Y-87244405D01*
X98850423Y-87263125D01*
X98862405Y-87283116D01*
X98872370Y-87304186D01*
X98880222Y-87326130D01*
X98885886Y-87348739D01*
X98889305Y-87371794D01*
X98890449Y-87395073D01*
X98889305Y-87418352D01*
X98885886Y-87441407D01*
X98880222Y-87464016D01*
X98872370Y-87485960D01*
X98862405Y-87507030D01*
X98850423Y-87527021D01*
X98836539Y-87545741D01*
X98820887Y-87563011D01*
X98485011Y-87898887D01*
X98467741Y-87914539D01*
X98449021Y-87928423D01*
X98429030Y-87940405D01*
X98407960Y-87950370D01*
X98386016Y-87958222D01*
X98363407Y-87963886D01*
X98340352Y-87967305D01*
X98317073Y-87968449D01*
X98293794Y-87967305D01*
X98270739Y-87963886D01*
X98248130Y-87958222D01*
X98226186Y-87950370D01*
X98205116Y-87940405D01*
X98185125Y-87928423D01*
X98166405Y-87914539D01*
X98149135Y-87898887D01*
X97742549Y-87492301D01*
X97726897Y-87475031D01*
X97713013Y-87456311D01*
X97701031Y-87436320D01*
X97691066Y-87415250D01*
X97683214Y-87393306D01*
X97677550Y-87370697D01*
X97674131Y-87347642D01*
X97672987Y-87324363D01*
X97674131Y-87301084D01*
X97677550Y-87278029D01*
X97683214Y-87255420D01*
X97691066Y-87233476D01*
X97701031Y-87212406D01*
X97713013Y-87192415D01*
X97726897Y-87173695D01*
X97742549Y-87156425D01*
X98078425Y-86820549D01*
X98095695Y-86804897D01*
X98114415Y-86791013D01*
X98134406Y-86779031D01*
X98155476Y-86769066D01*
X98177420Y-86761214D01*
X98200029Y-86755550D01*
X98223084Y-86752131D01*
X98246363Y-86750987D01*
X98269642Y-86752131D01*
G37*
G04 #@! TD.AperFunction*
G04 #@! TA.AperFunction,SMDPad,CuDef*
G36*
X97610916Y-118121131D02*
G01*
X97633971Y-118124550D01*
X97656580Y-118130214D01*
X97678524Y-118138066D01*
X97699594Y-118148031D01*
X97719585Y-118160013D01*
X97738305Y-118173897D01*
X97755575Y-118189549D01*
X98091451Y-118525425D01*
X98107103Y-118542695D01*
X98120987Y-118561415D01*
X98132969Y-118581406D01*
X98142934Y-118602476D01*
X98150786Y-118624420D01*
X98156450Y-118647029D01*
X98159869Y-118670084D01*
X98161013Y-118693363D01*
X98159869Y-118716642D01*
X98156450Y-118739697D01*
X98150786Y-118762306D01*
X98142934Y-118784250D01*
X98132969Y-118805320D01*
X98120987Y-118825311D01*
X98107103Y-118844031D01*
X98091451Y-118861301D01*
X97684865Y-119267887D01*
X97667595Y-119283539D01*
X97648875Y-119297423D01*
X97628884Y-119309405D01*
X97607814Y-119319370D01*
X97585870Y-119327222D01*
X97563261Y-119332886D01*
X97540206Y-119336305D01*
X97516927Y-119337449D01*
X97493648Y-119336305D01*
X97470593Y-119332886D01*
X97447984Y-119327222D01*
X97426040Y-119319370D01*
X97404970Y-119309405D01*
X97384979Y-119297423D01*
X97366259Y-119283539D01*
X97348989Y-119267887D01*
X97013113Y-118932011D01*
X96997461Y-118914741D01*
X96983577Y-118896021D01*
X96971595Y-118876030D01*
X96961630Y-118854960D01*
X96953778Y-118833016D01*
X96948114Y-118810407D01*
X96944695Y-118787352D01*
X96943551Y-118764073D01*
X96944695Y-118740794D01*
X96948114Y-118717739D01*
X96953778Y-118695130D01*
X96961630Y-118673186D01*
X96971595Y-118652116D01*
X96983577Y-118632125D01*
X96997461Y-118613405D01*
X97013113Y-118596135D01*
X97419699Y-118189549D01*
X97436969Y-118173897D01*
X97455689Y-118160013D01*
X97475680Y-118148031D01*
X97496750Y-118138066D01*
X97518694Y-118130214D01*
X97541303Y-118124550D01*
X97564358Y-118121131D01*
X97587637Y-118119987D01*
X97610916Y-118121131D01*
G37*
G04 #@! TD.AperFunction*
G04 #@! TA.AperFunction,SMDPad,CuDef*
G36*
X98848352Y-116883695D02*
G01*
X98871407Y-116887114D01*
X98894016Y-116892778D01*
X98915960Y-116900630D01*
X98937030Y-116910595D01*
X98957021Y-116922577D01*
X98975741Y-116936461D01*
X98993011Y-116952113D01*
X99328887Y-117287989D01*
X99344539Y-117305259D01*
X99358423Y-117323979D01*
X99370405Y-117343970D01*
X99380370Y-117365040D01*
X99388222Y-117386984D01*
X99393886Y-117409593D01*
X99397305Y-117432648D01*
X99398449Y-117455927D01*
X99397305Y-117479206D01*
X99393886Y-117502261D01*
X99388222Y-117524870D01*
X99380370Y-117546814D01*
X99370405Y-117567884D01*
X99358423Y-117587875D01*
X99344539Y-117606595D01*
X99328887Y-117623865D01*
X98922301Y-118030451D01*
X98905031Y-118046103D01*
X98886311Y-118059987D01*
X98866320Y-118071969D01*
X98845250Y-118081934D01*
X98823306Y-118089786D01*
X98800697Y-118095450D01*
X98777642Y-118098869D01*
X98754363Y-118100013D01*
X98731084Y-118098869D01*
X98708029Y-118095450D01*
X98685420Y-118089786D01*
X98663476Y-118081934D01*
X98642406Y-118071969D01*
X98622415Y-118059987D01*
X98603695Y-118046103D01*
X98586425Y-118030451D01*
X98250549Y-117694575D01*
X98234897Y-117677305D01*
X98221013Y-117658585D01*
X98209031Y-117638594D01*
X98199066Y-117617524D01*
X98191214Y-117595580D01*
X98185550Y-117572971D01*
X98182131Y-117549916D01*
X98180987Y-117526637D01*
X98182131Y-117503358D01*
X98185550Y-117480303D01*
X98191214Y-117457694D01*
X98199066Y-117435750D01*
X98209031Y-117414680D01*
X98221013Y-117394689D01*
X98234897Y-117375969D01*
X98250549Y-117358699D01*
X98657135Y-116952113D01*
X98674405Y-116936461D01*
X98693125Y-116922577D01*
X98713116Y-116910595D01*
X98734186Y-116900630D01*
X98756130Y-116892778D01*
X98778739Y-116887114D01*
X98801794Y-116883695D01*
X98825073Y-116882551D01*
X98848352Y-116883695D01*
G37*
G04 #@! TD.AperFunction*
G04 #@! TA.AperFunction,SMDPad,CuDef*
G36*
X91129779Y-102142144D02*
G01*
X91152834Y-102145563D01*
X91175443Y-102151227D01*
X91197387Y-102159079D01*
X91218457Y-102169044D01*
X91238448Y-102181026D01*
X91257168Y-102194910D01*
X91274438Y-102210562D01*
X91290090Y-102227832D01*
X91303974Y-102246552D01*
X91315956Y-102266543D01*
X91325921Y-102287613D01*
X91333773Y-102309557D01*
X91339437Y-102332166D01*
X91342856Y-102355221D01*
X91344000Y-102378500D01*
X91344000Y-102853500D01*
X91342856Y-102876779D01*
X91339437Y-102899834D01*
X91333773Y-102922443D01*
X91325921Y-102944387D01*
X91315956Y-102965457D01*
X91303974Y-102985448D01*
X91290090Y-103004168D01*
X91274438Y-103021438D01*
X91257168Y-103037090D01*
X91238448Y-103050974D01*
X91218457Y-103062956D01*
X91197387Y-103072921D01*
X91175443Y-103080773D01*
X91152834Y-103086437D01*
X91129779Y-103089856D01*
X91106500Y-103091000D01*
X90531500Y-103091000D01*
X90508221Y-103089856D01*
X90485166Y-103086437D01*
X90462557Y-103080773D01*
X90440613Y-103072921D01*
X90419543Y-103062956D01*
X90399552Y-103050974D01*
X90380832Y-103037090D01*
X90363562Y-103021438D01*
X90347910Y-103004168D01*
X90334026Y-102985448D01*
X90322044Y-102965457D01*
X90312079Y-102944387D01*
X90304227Y-102922443D01*
X90298563Y-102899834D01*
X90295144Y-102876779D01*
X90294000Y-102853500D01*
X90294000Y-102378500D01*
X90295144Y-102355221D01*
X90298563Y-102332166D01*
X90304227Y-102309557D01*
X90312079Y-102287613D01*
X90322044Y-102266543D01*
X90334026Y-102246552D01*
X90347910Y-102227832D01*
X90363562Y-102210562D01*
X90380832Y-102194910D01*
X90399552Y-102181026D01*
X90419543Y-102169044D01*
X90440613Y-102159079D01*
X90462557Y-102151227D01*
X90485166Y-102145563D01*
X90508221Y-102142144D01*
X90531500Y-102141000D01*
X91106500Y-102141000D01*
X91129779Y-102142144D01*
G37*
G04 #@! TD.AperFunction*
G04 #@! TA.AperFunction,SMDPad,CuDef*
G36*
X92879779Y-102142144D02*
G01*
X92902834Y-102145563D01*
X92925443Y-102151227D01*
X92947387Y-102159079D01*
X92968457Y-102169044D01*
X92988448Y-102181026D01*
X93007168Y-102194910D01*
X93024438Y-102210562D01*
X93040090Y-102227832D01*
X93053974Y-102246552D01*
X93065956Y-102266543D01*
X93075921Y-102287613D01*
X93083773Y-102309557D01*
X93089437Y-102332166D01*
X93092856Y-102355221D01*
X93094000Y-102378500D01*
X93094000Y-102853500D01*
X93092856Y-102876779D01*
X93089437Y-102899834D01*
X93083773Y-102922443D01*
X93075921Y-102944387D01*
X93065956Y-102965457D01*
X93053974Y-102985448D01*
X93040090Y-103004168D01*
X93024438Y-103021438D01*
X93007168Y-103037090D01*
X92988448Y-103050974D01*
X92968457Y-103062956D01*
X92947387Y-103072921D01*
X92925443Y-103080773D01*
X92902834Y-103086437D01*
X92879779Y-103089856D01*
X92856500Y-103091000D01*
X92281500Y-103091000D01*
X92258221Y-103089856D01*
X92235166Y-103086437D01*
X92212557Y-103080773D01*
X92190613Y-103072921D01*
X92169543Y-103062956D01*
X92149552Y-103050974D01*
X92130832Y-103037090D01*
X92113562Y-103021438D01*
X92097910Y-103004168D01*
X92084026Y-102985448D01*
X92072044Y-102965457D01*
X92062079Y-102944387D01*
X92054227Y-102922443D01*
X92048563Y-102899834D01*
X92045144Y-102876779D01*
X92044000Y-102853500D01*
X92044000Y-102378500D01*
X92045144Y-102355221D01*
X92048563Y-102332166D01*
X92054227Y-102309557D01*
X92062079Y-102287613D01*
X92072044Y-102266543D01*
X92084026Y-102246552D01*
X92097910Y-102227832D01*
X92113562Y-102210562D01*
X92130832Y-102194910D01*
X92149552Y-102181026D01*
X92169543Y-102169044D01*
X92190613Y-102159079D01*
X92212557Y-102151227D01*
X92235166Y-102145563D01*
X92258221Y-102142144D01*
X92281500Y-102141000D01*
X92856500Y-102141000D01*
X92879779Y-102142144D01*
G37*
G04 #@! TD.AperFunction*
G04 #@! TA.AperFunction,SMDPad,CuDef*
G36*
X136948779Y-101761144D02*
G01*
X136971834Y-101764563D01*
X136994443Y-101770227D01*
X137016387Y-101778079D01*
X137037457Y-101788044D01*
X137057448Y-101800026D01*
X137076168Y-101813910D01*
X137093438Y-101829562D01*
X137109090Y-101846832D01*
X137122974Y-101865552D01*
X137134956Y-101885543D01*
X137144921Y-101906613D01*
X137152773Y-101928557D01*
X137158437Y-101951166D01*
X137161856Y-101974221D01*
X137163000Y-101997500D01*
X137163000Y-102472500D01*
X137161856Y-102495779D01*
X137158437Y-102518834D01*
X137152773Y-102541443D01*
X137144921Y-102563387D01*
X137134956Y-102584457D01*
X137122974Y-102604448D01*
X137109090Y-102623168D01*
X137093438Y-102640438D01*
X137076168Y-102656090D01*
X137057448Y-102669974D01*
X137037457Y-102681956D01*
X137016387Y-102691921D01*
X136994443Y-102699773D01*
X136971834Y-102705437D01*
X136948779Y-102708856D01*
X136925500Y-102710000D01*
X136350500Y-102710000D01*
X136327221Y-102708856D01*
X136304166Y-102705437D01*
X136281557Y-102699773D01*
X136259613Y-102691921D01*
X136238543Y-102681956D01*
X136218552Y-102669974D01*
X136199832Y-102656090D01*
X136182562Y-102640438D01*
X136166910Y-102623168D01*
X136153026Y-102604448D01*
X136141044Y-102584457D01*
X136131079Y-102563387D01*
X136123227Y-102541443D01*
X136117563Y-102518834D01*
X136114144Y-102495779D01*
X136113000Y-102472500D01*
X136113000Y-101997500D01*
X136114144Y-101974221D01*
X136117563Y-101951166D01*
X136123227Y-101928557D01*
X136131079Y-101906613D01*
X136141044Y-101885543D01*
X136153026Y-101865552D01*
X136166910Y-101846832D01*
X136182562Y-101829562D01*
X136199832Y-101813910D01*
X136218552Y-101800026D01*
X136238543Y-101788044D01*
X136259613Y-101778079D01*
X136281557Y-101770227D01*
X136304166Y-101764563D01*
X136327221Y-101761144D01*
X136350500Y-101760000D01*
X136925500Y-101760000D01*
X136948779Y-101761144D01*
G37*
G04 #@! TD.AperFunction*
G04 #@! TA.AperFunction,SMDPad,CuDef*
G36*
X135198779Y-101761144D02*
G01*
X135221834Y-101764563D01*
X135244443Y-101770227D01*
X135266387Y-101778079D01*
X135287457Y-101788044D01*
X135307448Y-101800026D01*
X135326168Y-101813910D01*
X135343438Y-101829562D01*
X135359090Y-101846832D01*
X135372974Y-101865552D01*
X135384956Y-101885543D01*
X135394921Y-101906613D01*
X135402773Y-101928557D01*
X135408437Y-101951166D01*
X135411856Y-101974221D01*
X135413000Y-101997500D01*
X135413000Y-102472500D01*
X135411856Y-102495779D01*
X135408437Y-102518834D01*
X135402773Y-102541443D01*
X135394921Y-102563387D01*
X135384956Y-102584457D01*
X135372974Y-102604448D01*
X135359090Y-102623168D01*
X135343438Y-102640438D01*
X135326168Y-102656090D01*
X135307448Y-102669974D01*
X135287457Y-102681956D01*
X135266387Y-102691921D01*
X135244443Y-102699773D01*
X135221834Y-102705437D01*
X135198779Y-102708856D01*
X135175500Y-102710000D01*
X134600500Y-102710000D01*
X134577221Y-102708856D01*
X134554166Y-102705437D01*
X134531557Y-102699773D01*
X134509613Y-102691921D01*
X134488543Y-102681956D01*
X134468552Y-102669974D01*
X134449832Y-102656090D01*
X134432562Y-102640438D01*
X134416910Y-102623168D01*
X134403026Y-102604448D01*
X134391044Y-102584457D01*
X134381079Y-102563387D01*
X134373227Y-102541443D01*
X134367563Y-102518834D01*
X134364144Y-102495779D01*
X134363000Y-102472500D01*
X134363000Y-101997500D01*
X134364144Y-101974221D01*
X134367563Y-101951166D01*
X134373227Y-101928557D01*
X134381079Y-101906613D01*
X134391044Y-101885543D01*
X134403026Y-101865552D01*
X134416910Y-101846832D01*
X134432562Y-101829562D01*
X134449832Y-101813910D01*
X134468552Y-101800026D01*
X134488543Y-101788044D01*
X134509613Y-101778079D01*
X134531557Y-101770227D01*
X134554166Y-101764563D01*
X134577221Y-101761144D01*
X134600500Y-101760000D01*
X135175500Y-101760000D01*
X135198779Y-101761144D01*
G37*
G04 #@! TD.AperFunction*
G04 #@! TA.AperFunction,SMDPad,CuDef*
G36*
X114052779Y-125192144D02*
G01*
X114075834Y-125195563D01*
X114098443Y-125201227D01*
X114120387Y-125209079D01*
X114141457Y-125219044D01*
X114161448Y-125231026D01*
X114180168Y-125244910D01*
X114197438Y-125260562D01*
X114213090Y-125277832D01*
X114226974Y-125296552D01*
X114238956Y-125316543D01*
X114248921Y-125337613D01*
X114256773Y-125359557D01*
X114262437Y-125382166D01*
X114265856Y-125405221D01*
X114267000Y-125428500D01*
X114267000Y-126003500D01*
X114265856Y-126026779D01*
X114262437Y-126049834D01*
X114256773Y-126072443D01*
X114248921Y-126094387D01*
X114238956Y-126115457D01*
X114226974Y-126135448D01*
X114213090Y-126154168D01*
X114197438Y-126171438D01*
X114180168Y-126187090D01*
X114161448Y-126200974D01*
X114141457Y-126212956D01*
X114120387Y-126222921D01*
X114098443Y-126230773D01*
X114075834Y-126236437D01*
X114052779Y-126239856D01*
X114029500Y-126241000D01*
X113554500Y-126241000D01*
X113531221Y-126239856D01*
X113508166Y-126236437D01*
X113485557Y-126230773D01*
X113463613Y-126222921D01*
X113442543Y-126212956D01*
X113422552Y-126200974D01*
X113403832Y-126187090D01*
X113386562Y-126171438D01*
X113370910Y-126154168D01*
X113357026Y-126135448D01*
X113345044Y-126115457D01*
X113335079Y-126094387D01*
X113327227Y-126072443D01*
X113321563Y-126049834D01*
X113318144Y-126026779D01*
X113317000Y-126003500D01*
X113317000Y-125428500D01*
X113318144Y-125405221D01*
X113321563Y-125382166D01*
X113327227Y-125359557D01*
X113335079Y-125337613D01*
X113345044Y-125316543D01*
X113357026Y-125296552D01*
X113370910Y-125277832D01*
X113386562Y-125260562D01*
X113403832Y-125244910D01*
X113422552Y-125231026D01*
X113442543Y-125219044D01*
X113463613Y-125209079D01*
X113485557Y-125201227D01*
X113508166Y-125195563D01*
X113531221Y-125192144D01*
X113554500Y-125191000D01*
X114029500Y-125191000D01*
X114052779Y-125192144D01*
G37*
G04 #@! TD.AperFunction*
G04 #@! TA.AperFunction,SMDPad,CuDef*
G36*
X114052779Y-123442144D02*
G01*
X114075834Y-123445563D01*
X114098443Y-123451227D01*
X114120387Y-123459079D01*
X114141457Y-123469044D01*
X114161448Y-123481026D01*
X114180168Y-123494910D01*
X114197438Y-123510562D01*
X114213090Y-123527832D01*
X114226974Y-123546552D01*
X114238956Y-123566543D01*
X114248921Y-123587613D01*
X114256773Y-123609557D01*
X114262437Y-123632166D01*
X114265856Y-123655221D01*
X114267000Y-123678500D01*
X114267000Y-124253500D01*
X114265856Y-124276779D01*
X114262437Y-124299834D01*
X114256773Y-124322443D01*
X114248921Y-124344387D01*
X114238956Y-124365457D01*
X114226974Y-124385448D01*
X114213090Y-124404168D01*
X114197438Y-124421438D01*
X114180168Y-124437090D01*
X114161448Y-124450974D01*
X114141457Y-124462956D01*
X114120387Y-124472921D01*
X114098443Y-124480773D01*
X114075834Y-124486437D01*
X114052779Y-124489856D01*
X114029500Y-124491000D01*
X113554500Y-124491000D01*
X113531221Y-124489856D01*
X113508166Y-124486437D01*
X113485557Y-124480773D01*
X113463613Y-124472921D01*
X113442543Y-124462956D01*
X113422552Y-124450974D01*
X113403832Y-124437090D01*
X113386562Y-124421438D01*
X113370910Y-124404168D01*
X113357026Y-124385448D01*
X113345044Y-124365457D01*
X113335079Y-124344387D01*
X113327227Y-124322443D01*
X113321563Y-124299834D01*
X113318144Y-124276779D01*
X113317000Y-124253500D01*
X113317000Y-123678500D01*
X113318144Y-123655221D01*
X113321563Y-123632166D01*
X113327227Y-123609557D01*
X113335079Y-123587613D01*
X113345044Y-123566543D01*
X113357026Y-123546552D01*
X113370910Y-123527832D01*
X113386562Y-123510562D01*
X113403832Y-123494910D01*
X113422552Y-123481026D01*
X113442543Y-123469044D01*
X113463613Y-123459079D01*
X113485557Y-123451227D01*
X113508166Y-123445563D01*
X113531221Y-123442144D01*
X113554500Y-123441000D01*
X114029500Y-123441000D01*
X114052779Y-123442144D01*
G37*
G04 #@! TD.AperFunction*
G04 #@! TA.AperFunction,SMDPad,CuDef*
G36*
X113671779Y-78611144D02*
G01*
X113694834Y-78614563D01*
X113717443Y-78620227D01*
X113739387Y-78628079D01*
X113760457Y-78638044D01*
X113780448Y-78650026D01*
X113799168Y-78663910D01*
X113816438Y-78679562D01*
X113832090Y-78696832D01*
X113845974Y-78715552D01*
X113857956Y-78735543D01*
X113867921Y-78756613D01*
X113875773Y-78778557D01*
X113881437Y-78801166D01*
X113884856Y-78824221D01*
X113886000Y-78847500D01*
X113886000Y-79422500D01*
X113884856Y-79445779D01*
X113881437Y-79468834D01*
X113875773Y-79491443D01*
X113867921Y-79513387D01*
X113857956Y-79534457D01*
X113845974Y-79554448D01*
X113832090Y-79573168D01*
X113816438Y-79590438D01*
X113799168Y-79606090D01*
X113780448Y-79619974D01*
X113760457Y-79631956D01*
X113739387Y-79641921D01*
X113717443Y-79649773D01*
X113694834Y-79655437D01*
X113671779Y-79658856D01*
X113648500Y-79660000D01*
X113173500Y-79660000D01*
X113150221Y-79658856D01*
X113127166Y-79655437D01*
X113104557Y-79649773D01*
X113082613Y-79641921D01*
X113061543Y-79631956D01*
X113041552Y-79619974D01*
X113022832Y-79606090D01*
X113005562Y-79590438D01*
X112989910Y-79573168D01*
X112976026Y-79554448D01*
X112964044Y-79534457D01*
X112954079Y-79513387D01*
X112946227Y-79491443D01*
X112940563Y-79468834D01*
X112937144Y-79445779D01*
X112936000Y-79422500D01*
X112936000Y-78847500D01*
X112937144Y-78824221D01*
X112940563Y-78801166D01*
X112946227Y-78778557D01*
X112954079Y-78756613D01*
X112964044Y-78735543D01*
X112976026Y-78715552D01*
X112989910Y-78696832D01*
X113005562Y-78679562D01*
X113022832Y-78663910D01*
X113041552Y-78650026D01*
X113061543Y-78638044D01*
X113082613Y-78628079D01*
X113104557Y-78620227D01*
X113127166Y-78614563D01*
X113150221Y-78611144D01*
X113173500Y-78610000D01*
X113648500Y-78610000D01*
X113671779Y-78611144D01*
G37*
G04 #@! TD.AperFunction*
G04 #@! TA.AperFunction,SMDPad,CuDef*
G36*
X113671779Y-80361144D02*
G01*
X113694834Y-80364563D01*
X113717443Y-80370227D01*
X113739387Y-80378079D01*
X113760457Y-80388044D01*
X113780448Y-80400026D01*
X113799168Y-80413910D01*
X113816438Y-80429562D01*
X113832090Y-80446832D01*
X113845974Y-80465552D01*
X113857956Y-80485543D01*
X113867921Y-80506613D01*
X113875773Y-80528557D01*
X113881437Y-80551166D01*
X113884856Y-80574221D01*
X113886000Y-80597500D01*
X113886000Y-81172500D01*
X113884856Y-81195779D01*
X113881437Y-81218834D01*
X113875773Y-81241443D01*
X113867921Y-81263387D01*
X113857956Y-81284457D01*
X113845974Y-81304448D01*
X113832090Y-81323168D01*
X113816438Y-81340438D01*
X113799168Y-81356090D01*
X113780448Y-81369974D01*
X113760457Y-81381956D01*
X113739387Y-81391921D01*
X113717443Y-81399773D01*
X113694834Y-81405437D01*
X113671779Y-81408856D01*
X113648500Y-81410000D01*
X113173500Y-81410000D01*
X113150221Y-81408856D01*
X113127166Y-81405437D01*
X113104557Y-81399773D01*
X113082613Y-81391921D01*
X113061543Y-81381956D01*
X113041552Y-81369974D01*
X113022832Y-81356090D01*
X113005562Y-81340438D01*
X112989910Y-81323168D01*
X112976026Y-81304448D01*
X112964044Y-81284457D01*
X112954079Y-81263387D01*
X112946227Y-81241443D01*
X112940563Y-81218834D01*
X112937144Y-81195779D01*
X112936000Y-81172500D01*
X112936000Y-80597500D01*
X112937144Y-80574221D01*
X112940563Y-80551166D01*
X112946227Y-80528557D01*
X112954079Y-80506613D01*
X112964044Y-80485543D01*
X112976026Y-80465552D01*
X112989910Y-80446832D01*
X113005562Y-80429562D01*
X113022832Y-80413910D01*
X113041552Y-80400026D01*
X113061543Y-80388044D01*
X113082613Y-80378079D01*
X113104557Y-80370227D01*
X113127166Y-80364563D01*
X113150221Y-80361144D01*
X113173500Y-80360000D01*
X113648500Y-80360000D01*
X113671779Y-80361144D01*
G37*
G04 #@! TD.AperFunction*
G04 #@! TA.AperFunction,SMDPad,CuDef*
G36*
X129963352Y-85387695D02*
G01*
X129986407Y-85391114D01*
X130009016Y-85396778D01*
X130030960Y-85404630D01*
X130052030Y-85414595D01*
X130072021Y-85426577D01*
X130090741Y-85440461D01*
X130108011Y-85456113D01*
X130443887Y-85791989D01*
X130459539Y-85809259D01*
X130473423Y-85827979D01*
X130485405Y-85847970D01*
X130495370Y-85869040D01*
X130503222Y-85890984D01*
X130508886Y-85913593D01*
X130512305Y-85936648D01*
X130513449Y-85959927D01*
X130512305Y-85983206D01*
X130508886Y-86006261D01*
X130503222Y-86028870D01*
X130495370Y-86050814D01*
X130485405Y-86071884D01*
X130473423Y-86091875D01*
X130459539Y-86110595D01*
X130443887Y-86127865D01*
X130037301Y-86534451D01*
X130020031Y-86550103D01*
X130001311Y-86563987D01*
X129981320Y-86575969D01*
X129960250Y-86585934D01*
X129938306Y-86593786D01*
X129915697Y-86599450D01*
X129892642Y-86602869D01*
X129869363Y-86604013D01*
X129846084Y-86602869D01*
X129823029Y-86599450D01*
X129800420Y-86593786D01*
X129778476Y-86585934D01*
X129757406Y-86575969D01*
X129737415Y-86563987D01*
X129718695Y-86550103D01*
X129701425Y-86534451D01*
X129365549Y-86198575D01*
X129349897Y-86181305D01*
X129336013Y-86162585D01*
X129324031Y-86142594D01*
X129314066Y-86121524D01*
X129306214Y-86099580D01*
X129300550Y-86076971D01*
X129297131Y-86053916D01*
X129295987Y-86030637D01*
X129297131Y-86007358D01*
X129300550Y-85984303D01*
X129306214Y-85961694D01*
X129314066Y-85939750D01*
X129324031Y-85918680D01*
X129336013Y-85898689D01*
X129349897Y-85879969D01*
X129365549Y-85862699D01*
X129772135Y-85456113D01*
X129789405Y-85440461D01*
X129808125Y-85426577D01*
X129828116Y-85414595D01*
X129849186Y-85404630D01*
X129871130Y-85396778D01*
X129893739Y-85391114D01*
X129916794Y-85387695D01*
X129940073Y-85386551D01*
X129963352Y-85387695D01*
G37*
G04 #@! TD.AperFunction*
G04 #@! TA.AperFunction,SMDPad,CuDef*
G36*
X128725916Y-86625131D02*
G01*
X128748971Y-86628550D01*
X128771580Y-86634214D01*
X128793524Y-86642066D01*
X128814594Y-86652031D01*
X128834585Y-86664013D01*
X128853305Y-86677897D01*
X128870575Y-86693549D01*
X129206451Y-87029425D01*
X129222103Y-87046695D01*
X129235987Y-87065415D01*
X129247969Y-87085406D01*
X129257934Y-87106476D01*
X129265786Y-87128420D01*
X129271450Y-87151029D01*
X129274869Y-87174084D01*
X129276013Y-87197363D01*
X129274869Y-87220642D01*
X129271450Y-87243697D01*
X129265786Y-87266306D01*
X129257934Y-87288250D01*
X129247969Y-87309320D01*
X129235987Y-87329311D01*
X129222103Y-87348031D01*
X129206451Y-87365301D01*
X128799865Y-87771887D01*
X128782595Y-87787539D01*
X128763875Y-87801423D01*
X128743884Y-87813405D01*
X128722814Y-87823370D01*
X128700870Y-87831222D01*
X128678261Y-87836886D01*
X128655206Y-87840305D01*
X128631927Y-87841449D01*
X128608648Y-87840305D01*
X128585593Y-87836886D01*
X128562984Y-87831222D01*
X128541040Y-87823370D01*
X128519970Y-87813405D01*
X128499979Y-87801423D01*
X128481259Y-87787539D01*
X128463989Y-87771887D01*
X128128113Y-87436011D01*
X128112461Y-87418741D01*
X128098577Y-87400021D01*
X128086595Y-87380030D01*
X128076630Y-87358960D01*
X128068778Y-87337016D01*
X128063114Y-87314407D01*
X128059695Y-87291352D01*
X128058551Y-87268073D01*
X128059695Y-87244794D01*
X128063114Y-87221739D01*
X128068778Y-87199130D01*
X128076630Y-87177186D01*
X128086595Y-87156116D01*
X128098577Y-87136125D01*
X128112461Y-87117405D01*
X128128113Y-87100135D01*
X128534699Y-86693549D01*
X128551969Y-86677897D01*
X128570689Y-86664013D01*
X128590680Y-86652031D01*
X128611750Y-86642066D01*
X128633694Y-86634214D01*
X128656303Y-86628550D01*
X128679358Y-86625131D01*
X128702637Y-86623987D01*
X128725916Y-86625131D01*
G37*
G04 #@! TD.AperFunction*
D13*
X108966000Y-92837000D02*
X107696000Y-94107000D01*
X107696000Y-94107000D02*
X106299000Y-94107000D01*
X106299000Y-94107000D02*
X105410000Y-94996000D01*
X105410000Y-94996000D02*
X105283000Y-95123000D01*
X111612050Y-90190950D02*
X111612050Y-89895050D01*
X110762051Y-91040949D02*
X111612050Y-90190950D01*
X111612050Y-89895050D02*
X110998000Y-89281000D01*
X110998000Y-89281000D02*
X110998000Y-88392000D01*
X110998000Y-88392000D02*
X110201989Y-87595989D01*
X110201989Y-87595989D02*
X110188961Y-87607628D01*
M02*
